<svg width="183" height="47" viewBox="0 0 183 47" fill="none" xmlns="http://www.w3.org/2000/svg">
<path d="M177.964 15.1278C178.581 15.1663 179.121 15.3202 179.584 15.5897C180.048 15.8206 180.376 16.2633 180.569 16.9177C180.993 18.4189 180.491 19.4582 179.063 20.0356C178.6 20.2281 178.118 20.3436 177.616 20.3821C177.153 20.4206 176.709 20.4398 176.285 20.4398H149.828C149.057 20.4398 148.246 20.4398 147.397 20.4398C146.587 20.4398 145.757 20.4206 144.908 20.3821C144.097 20.3051 143.403 19.9971 142.824 19.4582C142.283 18.8808 141.975 18.1302 141.897 17.2064C141.82 16.5135 141.782 15.8014 141.782 15.07C141.782 14.3002 141.782 13.6458 141.782 13.1069C141.782 13.0299 141.762 12.9337 141.724 12.8182C141.724 12.7027 141.724 12.6065 141.724 12.5295C141.724 12.1061 141.743 11.5864 141.782 10.9705C141.82 10.3161 142.013 9.77723 142.361 9.35381C142.901 8.73792 143.615 8.37223 144.502 8.25676C145.39 8.10278 146.259 8.0258 147.108 8.0258H168.585C169.28 8.0258 169.82 8.0258 170.206 8.0258C170.592 8.0258 170.939 8.0258 171.248 8.0258C171.557 8.0258 171.866 8.0258 172.174 8.0258C172.483 8.0258 172.869 8.0258 173.332 8.0258C173.332 7.94881 173.332 7.79484 173.332 7.56388C173.371 7.29443 173.39 7.04423 173.39 6.81327C173.429 6.54382 173.448 6.31286 173.448 6.12039C173.448 5.88943 173.409 5.77395 173.332 5.77395H148.555C148.362 5.77395 148.15 5.77395 147.918 5.77395C147.725 5.73546 147.513 5.73546 147.281 5.77395H145.892C145.506 5.77395 145.159 5.77395 144.85 5.77395C144.541 5.77395 144.232 5.73546 143.924 5.65848C143.576 5.58149 143.248 5.46601 142.939 5.31204C142.631 5.11957 142.38 4.86937 142.187 4.56142C142.032 4.21499 141.936 3.8493 141.897 3.46437C141.897 3.07944 141.897 2.71376 141.897 2.36732C141.897 2.02088 141.994 1.69369 142.187 1.38575C142.418 1.0778 142.669 0.827599 142.939 0.635134C143.248 0.442669 143.557 0.32719 143.866 0.288698C144.174 0.250205 144.522 0.192465 144.908 0.115477C145.216 0.0384923 145.525 0.0192466 145.834 0.0577392C146.143 0.0962317 146.452 0.0962317 146.76 0.0577392C147.108 0.0192466 147.436 0 147.744 0C148.092 0 148.439 0 148.786 0C149.983 0.0384925 151.507 0.0577392 153.36 0.0577392C155.212 0.0192466 157.007 0 158.744 0H174.548C176.516 0 178.021 0.327191 179.063 0.981573C180.106 1.59746 180.627 2.63677 180.627 4.09951V8.14128C180.627 8.48771 180.627 8.87264 180.627 9.29607C180.665 9.681 180.646 10.0852 180.569 10.5086C180.53 10.8935 180.434 11.2592 180.279 11.6056C180.125 11.9521 179.874 12.2215 179.527 12.414C178.948 12.7219 178.272 12.8952 177.5 12.9337C176.767 12.9337 176.072 12.9337 175.416 12.9337H148.844V15.07H176.053C176.362 15.07 176.671 15.07 176.979 15.07C177.327 15.07 177.655 15.0893 177.964 15.1278ZM143.576 46.3649C143.538 46.3649 143.48 46.3264 143.403 46.2494C143.017 45.9414 142.746 45.518 142.592 44.9791C142.476 44.4402 142.418 43.959 142.418 43.5356C142.38 42.8428 142.322 42.1499 142.245 41.457C142.206 40.7641 142.187 40.0905 142.187 39.4361C142.187 38.4353 142.187 37.5307 142.187 36.7224C142.187 35.914 142.283 35.0287 142.476 34.0663C142.592 33.4504 142.785 32.9693 143.055 32.6228C143.325 32.2379 143.75 31.93 144.329 31.699C145.409 31.2756 146.49 31.0639 147.571 31.0639H174.258C174.992 31.1024 175.744 31.1601 176.516 31.2371C177.288 31.3141 178.021 31.5066 178.716 31.8145C179.488 32.1224 179.99 32.5651 180.221 33.1425C180.491 33.6814 180.665 34.3358 180.742 35.1057C180.781 35.76 180.8 36.5106 180.8 37.3575C180.839 38.2043 180.839 39.0704 180.8 39.9558C180.762 40.8026 180.704 41.6495 180.627 42.4963C180.549 43.3432 180.414 44.113 180.221 44.8059C180.106 45.2293 179.97 45.595 179.816 45.903C179.662 46.2494 179.353 46.4996 178.89 46.6536C178.465 46.8075 178.021 46.9038 177.558 46.9423C177.134 46.9808 176.709 47 176.285 47L146.702 46.8845C146.201 46.846 145.66 46.8268 145.081 46.8268C144.502 46.8268 144.001 46.6728 143.576 46.3649ZM176.632 22.5184C177.288 22.5184 177.983 22.5184 178.716 22.5184C179.488 22.4799 180.183 22.5569 180.8 22.7494C181.456 22.9034 181.977 23.2305 182.363 23.731C182.788 24.2314 183 25.0012 183 26.0405C183 26.9644 182.614 27.7727 181.842 28.4656C181.225 29.0045 180.472 29.3124 179.584 29.3894C178.735 29.4279 177.925 29.4279 177.153 29.3894C176.96 29.3509 176.786 29.3317 176.632 29.3317C176.478 29.3317 176.304 29.3317 176.111 29.3317H144.213C144.174 29.3317 144.001 29.3317 143.692 29.3317C143.383 29.3317 143.017 29.2932 142.592 29.2162C142.206 29.1392 141.801 29.043 141.376 28.9275C140.952 28.7735 140.604 28.5426 140.334 28.2346C139.871 27.7342 139.64 27.0606 139.64 26.2138C139.64 25.4054 139.891 24.751 140.392 24.2506C140.894 23.7887 141.415 23.4038 141.955 23.0958C142.496 22.7879 143.055 22.5954 143.634 22.5184C143.75 22.5184 143.866 22.5377 143.981 22.5762C144.097 22.5762 144.213 22.5569 144.329 22.5184C144.869 22.4414 145.448 22.4414 146.066 22.5184C146.683 22.5569 147.32 22.5569 147.976 22.5184C149.983 22.4414 152.009 22.4222 154.055 22.4607C156.139 22.4992 158.3 22.5184 160.538 22.5184C162.97 22.5184 165.556 22.4992 168.296 22.4607C171.036 22.4222 173.718 22.4414 176.343 22.5184H176.632ZM149.076 39.7826C149.076 39.975 149.076 40.1675 149.076 40.36C149.114 40.5524 149.192 40.6871 149.307 40.7641C149.385 40.8411 149.5 40.8989 149.655 40.9373C149.848 40.9373 150.041 40.9373 150.234 40.9373C150.427 40.9373 150.658 40.9181 150.928 40.8796H168.469C169.01 40.9181 169.531 40.9566 170.032 40.9951C170.457 41.0336 170.901 41.0528 171.364 41.0528C171.827 41.0528 172.252 41.0143 172.638 40.9373C173.023 40.8989 173.255 40.7834 173.332 40.5909C173.409 40.3984 173.467 40.129 173.506 39.7826C173.545 39.4746 173.564 39.1282 173.564 38.7432C173.564 38.3198 173.448 37.9541 173.216 37.6462C172.946 37.3382 172.56 37.1843 172.059 37.1843C171.596 37.1458 171.171 37.1458 170.785 37.1843H155.27C154.421 37.1073 153.591 37.088 152.781 37.1265C151.97 37.1265 151.141 37.1458 150.292 37.1843C149.983 37.1843 149.732 37.2035 149.539 37.242C149.385 37.242 149.269 37.4152 149.192 37.7617C149.114 38.0311 149.076 38.3006 149.076 38.57C149.076 38.801 149.076 39.0319 149.076 39.2629C149.114 39.3399 149.114 39.4169 149.076 39.4939C149.076 39.5708 149.076 39.6671 149.076 39.7826Z" fill="white"/>
<path d="M132.373 36.8378C132.489 36.8763 132.605 36.8956 132.72 36.8956C132.836 36.8571 132.952 36.8378 133.068 36.8378C133.724 36.9148 134.322 37.0496 134.862 37.242C135.441 37.396 136.001 37.7039 136.541 38.1659C137.081 38.7048 137.352 39.3784 137.352 40.1867C137.352 40.6102 137.274 41.0721 137.12 41.5725C137.004 42.0344 136.831 42.4001 136.599 42.6695C136.29 42.9775 135.904 43.2084 135.441 43.3624C134.978 43.5164 134.534 43.6319 134.11 43.7089C133.685 43.7473 133.299 43.7666 132.952 43.7666C132.643 43.7666 132.469 43.7666 132.431 43.7666H100.012C99.8189 43.7666 99.6259 43.7858 99.4329 43.8243C99.2399 43.8243 99.047 43.8243 98.854 43.8243C98.0435 43.8628 97.1752 43.8628 96.2489 43.8243C95.3227 43.7473 94.5315 43.4394 93.8754 42.9005C93.0649 42.1691 92.6597 41.3415 92.6597 40.4177C92.6597 39.8403 92.8333 39.2437 93.1807 38.6278C93.528 38.0119 93.9912 37.5885 94.5701 37.3575C95.3419 37.0496 96.1331 36.8956 96.9436 36.8956C97.7927 36.8956 98.6417 36.8763 99.4908 36.8378H99.7803C103.138 36.7609 106.592 36.7609 110.143 36.8378L110.085 28.4079C108.927 28.3309 107.789 28.1962 106.669 28.0037C105.55 27.8112 104.469 27.5033 103.427 27.0799C102.385 26.6564 101.401 26.1175 100.475 25.4632C99.5873 24.7703 98.7961 23.9234 98.1014 22.9226C97.2138 21.7293 96.6156 20.4591 96.3068 19.1118C96.0366 17.7645 95.9016 16.3595 95.9016 14.8968C95.9016 11.8944 96.6927 9.39231 98.2751 7.39067C99.8961 5.35054 102.096 3.8878 104.875 3.00246C106.727 2.38658 108.599 2.00165 110.49 1.84767C112.42 1.65521 114.35 1.63596 116.279 1.78994C117.862 1.90541 119.444 2.05938 121.026 2.25185C122.609 2.44431 124.133 2.86774 125.6 3.52212C126.256 3.83006 126.893 4.19575 127.51 4.61917C128.128 5.0426 128.706 5.54301 129.247 6.1204C130.598 7.58314 131.524 9.16135 132.026 10.855C132.527 12.5487 132.701 14.3579 132.547 16.2826C132.392 18.4767 131.871 20.3436 130.984 21.8833C130.096 23.3845 128.957 24.6356 127.568 25.6364C126.217 26.5987 124.654 27.3108 122.879 27.7727C121.142 28.2347 119.328 28.4656 117.437 28.4656L117.553 36.8378C118.633 36.8378 119.618 36.8378 120.505 36.8378C121.393 36.7994 122.261 36.7801 123.11 36.7801C123.959 36.7801 124.809 36.7801 125.658 36.7801C126.507 36.7801 127.433 36.7994 128.436 36.8378C129.131 36.8763 129.806 36.8763 130.463 36.8378C131.119 36.7609 131.755 36.7609 132.373 36.8378ZM124.963 17.1487C125.079 16.6482 125.117 16.1671 125.079 15.7052C125.001 13.7035 124.365 12.2215 123.168 11.2592C122.01 10.2584 120.505 9.64251 118.653 9.41155C117.572 9.29608 116.241 9.1806 114.658 9.06512C113.076 8.91115 111.513 8.94964 109.969 9.1806C108.464 9.41156 107.132 9.89272 105.975 10.6241C104.817 11.317 104.122 12.4333 103.891 13.973C103.775 14.8968 103.775 15.7822 103.891 16.629C104.045 17.4758 104.373 18.2265 104.875 18.8808C105.376 19.5352 106.071 20.0934 106.959 20.5553C107.846 21.0172 108.985 21.3059 110.374 21.4214C111.725 21.5754 113.095 21.7101 114.485 21.8256C115.913 21.941 117.302 21.8641 118.653 21.5946C119.309 21.4791 119.965 21.3251 120.621 21.1327C121.316 20.9017 121.953 20.613 122.531 20.2666C123.11 19.9202 123.612 19.4967 124.037 18.9963C124.461 18.4574 124.77 17.8415 124.963 17.1487Z" fill="white"/>
<path d="M85.3039 15.1278C85.9214 15.1663 86.4617 15.3202 86.9248 15.5897C87.3879 15.8206 87.716 16.2633 87.909 16.9177C88.3335 18.4189 87.8318 19.4582 86.4038 20.0356C85.9407 20.2281 85.4582 20.3436 84.9565 20.3821C84.4934 20.4206 84.0496 20.4398 83.625 20.4398H57.1688C56.3969 20.4398 55.5865 20.4398 54.7374 20.4398C53.9269 20.4398 53.0971 20.4206 52.2481 20.3821C51.4376 20.3051 50.7429 19.9971 50.164 19.4582C49.6237 18.8808 49.3149 18.1302 49.2377 17.2064C49.1605 16.5135 49.122 15.8014 49.122 15.07C49.122 14.3002 49.122 13.6458 49.122 13.1069C49.122 13.0299 49.1027 12.9337 49.0641 12.8182C49.0641 12.7027 49.0641 12.6065 49.0641 12.5295C49.0641 12.1061 49.0834 11.5864 49.122 10.9705C49.1605 10.3161 49.3535 9.77723 49.7009 9.35381C50.2412 8.73792 50.9552 8.37223 51.8428 8.25676C52.7305 8.10278 53.5989 8.0258 54.4479 8.0258H75.9255C76.6202 8.0258 77.1605 8.0258 77.5465 8.0258C77.9324 8.0258 78.2798 8.0258 78.5885 8.0258C78.8973 8.0258 79.206 8.0258 79.5148 8.0258C79.8235 8.0258 80.2095 8.0258 80.6726 8.0258C80.6726 7.94881 80.6726 7.79484 80.6726 7.56388C80.7112 7.29443 80.7305 7.04423 80.7305 6.81327C80.7691 6.54382 80.7884 6.31286 80.7884 6.12039C80.7884 5.88943 80.7498 5.77395 80.6726 5.77395H55.8952C55.7022 5.77395 55.49 5.77395 55.2584 5.77395C55.0654 5.73546 54.8532 5.73546 54.6216 5.77395H53.2322C52.8463 5.77395 52.4989 5.77395 52.1902 5.77395C51.8814 5.77395 51.5727 5.73546 51.2639 5.65848C50.9166 5.58149 50.5885 5.46601 50.2798 5.31204C49.971 5.11957 49.7202 4.86937 49.5272 4.56142C49.3728 4.21499 49.2763 3.8493 49.2377 3.46437C49.2377 3.07944 49.2377 2.71376 49.2377 2.36732C49.2377 2.02088 49.3342 1.69369 49.5272 1.38575C49.7588 1.0778 50.0096 0.827599 50.2798 0.635134C50.5885 0.442669 50.8973 0.32719 51.206 0.288698C51.5148 0.250205 51.8621 0.192465 52.2481 0.115477C52.5568 0.0384923 52.8656 0.0192466 53.1743 0.0577392C53.4831 0.0962317 53.7918 0.0962317 54.1006 0.0577392C54.4479 0.0192466 54.776 0 55.0847 0C55.4321 0 55.7794 0 56.1268 0C57.3232 0.0384925 58.8476 0.0577392 60.7002 0.0577392C62.5527 0.0192466 64.3473 0 66.084 0H81.8883C83.8566 0 85.3618 0.327191 86.4038 0.981573C87.4458 1.59746 87.9669 2.63677 87.9669 4.09951V8.14128C87.9669 8.48771 87.9669 8.87264 87.9669 9.29607C88.0055 9.681 87.9862 10.0852 87.909 10.5086C87.8704 10.8935 87.7739 11.2592 87.6195 11.6056C87.4651 11.9521 87.2143 12.2215 86.8669 12.414C86.288 12.7219 85.6126 12.8952 84.8407 12.9337C84.1075 12.9337 83.4128 12.9337 82.7567 12.9337H56.1847V15.07H83.3935C83.7022 15.07 84.011 15.07 84.3197 15.07C84.6671 15.07 84.9951 15.0893 85.3039 15.1278ZM50.9166 46.3649C50.878 46.3649 50.8201 46.3264 50.7429 46.2494C50.357 45.9414 50.0868 45.518 49.9324 44.9791C49.8166 44.4402 49.7588 43.959 49.7588 43.5356C49.7202 42.8428 49.6623 42.1499 49.5851 41.457C49.5465 40.7641 49.5272 40.0905 49.5272 39.4361C49.5272 38.4353 49.5272 37.5307 49.5272 36.7224C49.5272 35.914 49.6237 35.0287 49.8166 34.0663C49.9324 33.4504 50.1254 32.9693 50.3956 32.6228C50.6657 32.2379 51.0902 31.93 51.6692 31.699C52.7498 31.2756 53.8304 31.0639 54.9111 31.0639H81.5988C82.3321 31.1024 83.0847 31.1601 83.8566 31.2371C84.6285 31.3141 85.3618 31.5066 86.0565 31.8145C86.8283 32.1224 87.3301 32.5651 87.5616 33.1425C87.8318 33.6814 88.0055 34.3358 88.0826 35.1057C88.1212 35.76 88.1405 36.5106 88.1405 37.3575C88.1791 38.2043 88.1791 39.0704 88.1405 39.9558C88.1019 40.8026 88.044 41.6495 87.9669 42.4963C87.8897 43.3432 87.7546 44.113 87.5616 44.8059C87.4458 45.2293 87.3108 45.595 87.1564 45.903C87.002 46.2494 86.6933 46.4996 86.2301 46.6536C85.8056 46.8075 85.3618 46.9038 84.8986 46.9423C84.4741 46.9808 84.0496 47 83.625 47L54.0427 46.8845C53.541 46.846 53.0007 46.8268 52.4217 46.8268C51.8428 46.8268 51.3411 46.6728 50.9166 46.3649ZM83.9724 22.5184C84.6285 22.5184 85.3232 22.5184 86.0565 22.5184C86.8283 22.4799 87.523 22.5569 88.1405 22.7494C88.7966 22.9034 89.3177 23.2305 89.7036 23.731C90.1281 24.2314 90.3404 25.0012 90.3404 26.0405C90.3404 26.9644 89.9545 27.7727 89.1826 28.4656C88.5651 29.0045 87.8125 29.3124 86.9248 29.3894C86.0758 29.4279 85.2653 29.4279 84.4934 29.3894C84.3004 29.3509 84.1268 29.3317 83.9724 29.3317C83.818 29.3317 83.6443 29.3317 83.4514 29.3317H51.5534C51.5148 29.3317 51.3411 29.3317 51.0324 29.3317C50.7236 29.3317 50.357 29.2932 49.9324 29.2162C49.5465 29.1392 49.1412 29.043 48.7167 28.9275C48.2922 28.7735 47.9448 28.5426 47.6747 28.2346C47.2115 27.7342 46.98 27.0606 46.98 26.2138C46.98 25.4054 47.2308 24.751 47.7326 24.2506C48.2343 23.7887 48.7553 23.4038 49.2956 23.0958C49.8359 22.7879 50.3956 22.5954 50.9745 22.5184C51.0902 22.5184 51.206 22.5377 51.3218 22.5762C51.4376 22.5762 51.5534 22.5569 51.6692 22.5184C52.2095 22.4414 52.7884 22.4414 53.4059 22.5184C54.0234 22.5569 54.6602 22.5569 55.3163 22.5184C57.3232 22.4414 59.3494 22.4222 61.3949 22.4607C63.4789 22.4992 65.6402 22.5184 67.8787 22.5184C70.3101 22.5184 72.8959 22.4992 75.6361 22.4607C78.3762 22.4222 81.0585 22.4414 83.6829 22.5184H83.9724ZM56.4162 39.7826C56.4162 39.975 56.4162 40.1675 56.4162 40.36C56.4548 40.5524 56.532 40.6871 56.6478 40.7641C56.725 40.8411 56.8408 40.8989 56.9951 40.9373C57.1881 40.9373 57.3811 40.9373 57.574 40.9373C57.767 40.9373 57.9986 40.9181 58.2687 40.8796H75.8097C76.35 40.9181 76.8711 40.9566 77.3728 40.9951C77.7973 41.0336 78.2412 41.0528 78.7043 41.0528C79.1674 41.0528 79.592 41.0143 79.9779 40.9373C80.3638 40.8989 80.5954 40.7834 80.6726 40.5909C80.7498 40.3984 80.8077 40.129 80.8463 39.7826C80.8849 39.4746 80.9042 39.1282 80.9042 38.7432C80.9042 38.3198 80.7884 37.9541 80.5568 37.6462C80.2866 37.3382 79.9007 37.1843 79.399 37.1843C78.9359 37.1458 78.5113 37.1458 78.1254 37.1843H62.6106C61.7615 37.1073 60.9317 37.088 60.1213 37.1265C59.3108 37.1265 58.481 37.1458 57.6319 37.1843C57.3232 37.1843 57.0723 37.2035 56.8794 37.242C56.725 37.242 56.6092 37.4152 56.532 37.7617C56.4548 38.0311 56.4162 38.3006 56.4162 38.57C56.4162 38.801 56.4162 39.0319 56.4162 39.2629C56.4548 39.3399 56.4548 39.4169 56.4162 39.4939C56.4162 39.5708 56.4162 39.6671 56.4162 39.7826Z" fill="white"/>
<path d="M39.7133 36.8378C39.8291 36.8763 39.9448 36.8956 40.0606 36.8956C40.1764 36.8571 40.2922 36.8378 40.408 36.8378C41.0641 36.9148 41.6623 37.0496 42.2026 37.242C42.7815 37.396 43.3411 37.7039 43.8814 38.1659C44.4218 38.7048 44.6919 39.3784 44.6919 40.1867C44.6919 40.6102 44.6147 41.0721 44.4603 41.5725C44.3446 42.0344 44.1709 42.4001 43.9393 42.6695C43.6306 42.9775 43.2446 43.2084 42.7815 43.3624C42.3184 43.5164 41.8745 43.6319 41.45 43.7089C41.0255 43.7473 40.6395 43.7666 40.2922 43.7666C39.9834 43.7666 39.8098 43.7666 39.7712 43.7666H7.35217C7.1592 43.7666 6.96623 43.7858 6.77326 43.8243C6.58028 43.8243 6.38731 43.8243 6.19434 43.8243C5.38387 43.8628 4.5155 43.8628 3.58925 43.8243C2.66299 43.7473 1.87181 43.4394 1.21571 42.9005C0.405237 42.1691 0 41.3415 0 40.4177C0 39.8403 0.173673 39.2437 0.52102 38.6278C0.868366 38.0119 1.33149 37.5885 1.91041 37.3575C2.68229 37.0496 3.47346 36.8956 4.28394 36.8956C5.13301 36.8956 5.98208 36.8763 6.83115 36.8378H7.1206C10.4783 36.7609 13.9325 36.7609 17.4831 36.8378L17.4252 28.4079C16.2674 28.3309 15.1289 28.1962 14.0096 28.0037C12.8904 27.8112 11.8098 27.5033 10.7677 27.0799C9.7257 26.6564 8.74155 26.1175 7.81529 25.4632C6.92763 24.7703 6.13645 23.9234 5.44176 22.9226C4.5541 21.7293 3.95589 20.4591 3.64714 19.1118C3.37698 17.7645 3.2419 16.3595 3.2419 14.8968C3.2419 11.8944 4.03308 9.39231 5.61543 7.39067C7.23638 5.35054 9.43624 3.8878 12.215 3.00246C14.0675 2.38658 15.9393 2.00165 17.8304 1.84767C19.7602 1.65521 21.6899 1.63596 23.6196 1.78994C25.2019 1.90541 26.7843 2.05938 28.3666 2.25185C29.949 2.44431 31.4734 2.86774 32.94 3.52212C33.5961 3.83006 34.2329 4.19575 34.8504 4.61917C35.4679 5.0426 36.0468 5.54301 36.5872 6.1204C37.9379 7.58314 38.8642 9.16135 39.3659 10.855C39.8677 12.5487 40.0413 14.3579 39.8869 16.2826C39.7326 18.4767 39.2116 20.3436 38.3239 21.8833C37.4362 23.3845 36.2977 24.6356 34.9083 25.6364C33.5575 26.5987 31.9945 27.3108 30.2191 27.7727C28.4824 28.2347 26.6685 28.4656 24.7774 28.4656L24.8932 36.8378C25.9738 36.8378 26.9579 36.8378 27.8456 36.8378C28.7333 36.7994 29.6016 36.7801 30.4507 36.7801C31.2998 36.7801 32.1488 36.7801 32.9979 36.7801C33.847 36.7801 34.7732 36.7994 35.7767 36.8378C36.4714 36.8763 37.1468 36.8763 37.8029 36.8378C38.459 36.7609 39.0958 36.7609 39.7133 36.8378ZM32.3032 17.1487C32.419 16.6482 32.4576 16.1671 32.419 15.7052C32.3418 13.7035 31.705 12.2215 30.5086 11.2592C29.3508 10.2584 27.8456 9.64251 25.9931 9.41155C24.9125 9.29608 23.581 9.1806 21.9986 9.06512C20.4163 8.91115 18.8532 8.94964 17.3094 9.1806C15.8043 9.41156 14.4728 9.89272 13.3149 10.6241C12.1571 11.317 11.4624 12.4333 11.2309 13.973C11.1151 14.8968 11.1151 15.7822 11.2309 16.629C11.3852 17.4758 11.7133 18.2265 12.215 18.8808C12.7167 19.5352 13.4114 20.0934 14.2991 20.5553C15.1868 21.0172 16.3253 21.3059 17.7147 21.4214C19.0655 21.5754 20.4355 21.7101 21.8249 21.8256C23.2529 21.941 24.6423 21.8641 25.9931 21.5946C26.6492 21.4791 27.3053 21.3251 27.9614 21.1327C28.6561 20.9017 29.2929 20.613 29.8718 20.2666C30.4507 19.9202 30.9524 19.4967 31.377 18.9963C31.8015 18.4574 32.1102 17.8415 32.3032 17.1487Z" fill="white"/>
</svg>
