<svg width="74" height="20" viewBox="0 0 74 20" fill="none" xmlns="http://www.w3.org/2000/svg">
<path d="M71.963 6.61548C72.2127 6.63104 72.4312 6.69328 72.6185 6.80221C72.8057 6.89558 72.9384 7.07453 73.0164 7.33907C73.1881 7.94595 72.9852 8.36609 72.4078 8.59951C72.2205 8.67731 72.0254 8.724 71.8225 8.73956C71.6353 8.75512 71.4558 8.7629 71.2841 8.7629H60.5859C60.2738 8.7629 59.9461 8.7629 59.6027 8.7629C59.275 8.7629 58.9394 8.75512 58.5961 8.73956C58.2684 8.70844 57.9874 8.58395 57.7534 8.36609C57.5349 8.13268 57.41 7.82924 57.3788 7.45577C57.3476 7.17568 57.332 6.8878 57.332 6.59214C57.332 6.28092 57.332 6.01638 57.332 5.79853C57.332 5.7674 57.3242 5.7285 57.3086 5.68182C57.3086 5.63513 57.3086 5.59623 57.3086 5.56511C57.3086 5.39394 57.3164 5.18387 57.332 4.93489C57.3476 4.67035 57.4256 4.4525 57.5661 4.28133C57.7846 4.03235 58.0733 3.88452 58.4322 3.83784C58.7912 3.77559 59.1423 3.74447 59.4857 3.74447H68.1706C68.4515 3.74447 68.67 3.74447 68.8261 3.74447C68.9822 3.74447 69.1226 3.74447 69.2475 3.74447C69.3723 3.74447 69.4972 3.74447 69.622 3.74447C69.7469 3.74447 69.9029 3.74447 70.0902 3.74447C70.0902 3.71335 70.0902 3.65111 70.0902 3.55774C70.1058 3.44881 70.1136 3.34767 70.1136 3.2543C70.1292 3.14537 70.137 3.05201 70.137 2.9742C70.137 2.88083 70.1214 2.83415 70.0902 2.83415H60.0709C59.9929 2.83415 59.907 2.83415 59.8134 2.83415C59.7354 2.81859 59.6495 2.81859 59.5559 2.83415H58.9941C58.838 2.83415 58.6975 2.83415 58.5727 2.83415C58.4478 2.83415 58.323 2.81859 58.1981 2.78747C58.0577 2.75635 57.925 2.70966 57.8002 2.64742C57.6753 2.56962 57.5739 2.46847 57.4958 2.34398C57.4334 2.20393 57.3944 2.0561 57.3788 1.90049C57.3788 1.74488 57.3788 1.59705 57.3788 1.457C57.3788 1.31695 57.4178 1.18468 57.4958 1.0602C57.5895 0.935708 57.6909 0.834561 57.8002 0.756756C57.925 0.678951 58.0499 0.632268 58.1747 0.616708C58.2996 0.601147 58.44 0.577805 58.5961 0.546682C58.7209 0.515561 58.8458 0.507781 58.9706 0.523341C59.0955 0.538902 59.2204 0.538902 59.3452 0.523341C59.4857 0.507781 59.6183 0.5 59.7432 0.5C59.8836 0.5 60.0241 0.5 60.1645 0.5C60.6483 0.515561 61.2648 0.523341 62.0139 0.523341C62.763 0.507781 63.4887 0.5 64.191 0.5H70.5818C71.3777 0.5 71.9864 0.632269 72.4078 0.896806C72.8291 1.14578 73.0398 1.56593 73.0398 2.15725V3.79115C73.0398 3.9312 73.0398 4.08681 73.0398 4.25799C73.0554 4.4136 73.0476 4.57699 73.0164 4.74816C73.0008 4.90377 72.9618 5.0516 72.8994 5.19165C72.8369 5.33169 72.7355 5.44062 72.595 5.51843C72.3609 5.64292 72.0878 5.71294 71.7757 5.7285C71.4792 5.7285 71.1983 5.7285 70.933 5.7285H60.1879V6.59214H71.1905C71.3153 6.59214 71.4402 6.59214 71.565 6.59214C71.7055 6.59214 71.8381 6.59992 71.963 6.61548ZM58.0577 19.2432C58.0421 19.2432 58.0187 19.2277 57.9874 19.1966C57.8314 19.0721 57.7221 18.9009 57.6597 18.683C57.6129 18.4652 57.5895 18.2707 57.5895 18.0995C57.5739 17.8194 57.5505 17.5393 57.5193 17.2592C57.5036 16.9791 57.4958 16.7068 57.4958 16.4423C57.4958 16.0377 57.4958 15.672 57.4958 15.3452C57.4958 15.0184 57.5349 14.6605 57.6129 14.2715C57.6597 14.0225 57.7377 13.828 57.847 13.688C57.9562 13.5324 58.1279 13.4079 58.362 13.3145C58.799 13.1433 59.236 13.0577 59.6729 13.0577H70.4648C70.7613 13.0733 71.0656 13.0966 71.3777 13.1278C71.6899 13.1589 71.9864 13.2367 72.2673 13.3612C72.5794 13.4857 72.7823 13.6646 72.876 13.898C72.9852 14.1159 73.0554 14.3804 73.0866 14.6916C73.1022 14.9562 73.1101 15.2596 73.1101 15.602C73.1257 15.9443 73.1257 16.2944 73.1101 16.6523C73.0944 16.9947 73.071 17.337 73.0398 17.6794C73.0086 18.0217 72.954 18.3329 72.876 18.613C72.8291 18.7842 72.7745 18.932 72.7121 19.0565C72.6497 19.1966 72.5248 19.2977 72.3375 19.36C72.1659 19.4222 71.9864 19.4611 71.7991 19.4767C71.6274 19.4922 71.4558 19.5 71.2841 19.5L59.3218 19.4533C59.1189 19.4378 58.9004 19.43 58.6663 19.43C58.4322 19.43 58.2293 19.3677 58.0577 19.2432ZM71.4246 9.6032C71.6899 9.6032 71.9708 9.6032 72.2673 9.6032C72.5794 9.58763 72.8603 9.61876 73.1101 9.69656C73.3754 9.7588 73.5861 9.89107 73.7421 10.0934C73.9138 10.2957 73.9996 10.6069 73.9996 11.027C73.9996 11.4005 73.8436 11.7273 73.5314 12.0074C73.2817 12.2252 72.9774 12.3497 72.6185 12.3808C72.2751 12.3964 71.9474 12.3964 71.6352 12.3808C71.5572 12.3653 71.487 12.3575 71.4246 12.3575C71.3621 12.3575 71.2919 12.3575 71.2139 12.3575H58.3152C58.2996 12.3575 58.2293 12.3575 58.1045 12.3575C57.9796 12.3575 57.8314 12.3419 57.6597 12.3108C57.5036 12.2797 57.3398 12.2408 57.1681 12.1941C56.9964 12.1319 56.856 12.0385 56.7467 11.914C56.5595 11.7117 56.4658 11.4394 56.4658 11.0971C56.4658 10.7703 56.5673 10.5057 56.7701 10.3034C56.973 10.1167 57.1837 9.9611 57.4022 9.83661C57.6207 9.71212 57.847 9.63432 58.0811 9.6032C58.1279 9.6032 58.1747 9.61098 58.2215 9.62654C58.2684 9.62654 58.3152 9.61876 58.362 9.6032C58.5805 9.57207 58.8146 9.57207 59.0643 9.6032C59.314 9.61876 59.5715 9.61876 59.8368 9.6032C60.6483 9.57207 61.4677 9.56429 62.2948 9.57985C63.1376 9.59541 64.0115 9.6032 64.9167 9.6032C65.8999 9.6032 66.9455 9.59541 68.0536 9.57985C69.1616 9.56429 70.2463 9.57207 71.3075 9.6032H71.4246ZM60.2816 16.5823C60.2816 16.6601 60.2816 16.7379 60.2816 16.8157C60.2972 16.8935 60.3284 16.948 60.3752 16.9791C60.4064 17.0102 60.4533 17.0336 60.5157 17.0491C60.5937 17.0491 60.6717 17.0491 60.7498 17.0491C60.8278 17.0491 60.9214 17.0414 61.0307 17.0258H68.1238C68.3423 17.0414 68.553 17.0569 68.7559 17.0725C68.9275 17.088 69.107 17.0958 69.2943 17.0958C69.4816 17.0958 69.6532 17.0803 69.8093 17.0491C69.9654 17.0336 70.059 16.9869 70.0902 16.9091C70.1214 16.8313 70.1448 16.7224 70.1604 16.5823C70.176 16.4578 70.1839 16.3178 70.1839 16.1622C70.1839 15.991 70.137 15.8432 70.0434 15.7187C69.9342 15.5942 69.7781 15.5319 69.5752 15.5319C69.3879 15.5164 69.2163 15.5164 69.0602 15.5319H62.7864C62.4431 15.5008 62.1075 15.493 61.7798 15.5086C61.4521 15.5086 61.1165 15.5164 60.7732 15.5319C60.6483 15.5319 60.5469 15.5397 60.4689 15.5553C60.4064 15.5553 60.3596 15.6253 60.3284 15.7654C60.2972 15.8743 60.2816 15.9832 60.2816 16.0921C60.2816 16.1855 60.2816 16.2789 60.2816 16.3722C60.2972 16.4034 60.2972 16.4345 60.2816 16.4656C60.2816 16.4967 60.2816 16.5356 60.2816 16.5823Z" fill="#E9534C"/>
<path d="M53.5287 15.3919C53.5755 15.4075 53.6224 15.4152 53.6692 15.4152C53.716 15.3997 53.7628 15.3919 53.8096 15.3919C54.0749 15.423 54.3168 15.4775 54.5353 15.5553C54.7694 15.6175 54.9957 15.742 55.2142 15.9287C55.4327 16.1466 55.5419 16.4189 55.5419 16.7457C55.5419 16.9169 55.5107 17.1036 55.4483 17.3059C55.4015 17.4926 55.3313 17.6405 55.2376 17.7494C55.1128 17.8739 54.9567 17.9672 54.7694 18.0295C54.5822 18.0917 54.4027 18.1384 54.231 18.1695C54.0593 18.1851 53.9033 18.1929 53.7628 18.1929C53.638 18.1929 53.5677 18.1929 53.5521 18.1929H40.4427C40.3647 18.1929 40.2867 18.2007 40.2086 18.2162C40.1306 18.2162 40.0526 18.2162 39.9746 18.2162C39.6468 18.2318 39.2957 18.2318 38.9211 18.2162C38.5466 18.1851 38.2266 18.0606 37.9613 17.8428C37.6336 17.5471 37.4697 17.2125 37.4697 16.8391C37.4697 16.6057 37.54 16.3645 37.6804 16.1155C37.8209 15.8665 38.0081 15.6953 38.2422 15.602C38.5544 15.4775 38.8743 15.4152 39.202 15.4152C39.5454 15.4152 39.8887 15.4075 40.2321 15.3919H40.3491C41.7069 15.3608 43.1036 15.3608 44.5394 15.3919L44.516 11.984C44.0478 11.9529 43.5874 11.8984 43.1349 11.8206C42.6823 11.7428 42.2453 11.6183 41.8239 11.4472C41.4025 11.276 41.0046 11.0581 40.63 10.7936C40.2711 10.5135 39.9511 10.1712 39.6702 9.76658C39.3113 9.28419 39.0694 8.77068 38.9445 8.22604C38.8353 7.68141 38.7807 7.11343 38.7807 6.52211C38.7807 5.30835 39.1006 4.29689 39.7405 3.48772C40.3959 2.66298 41.2855 2.07166 42.4092 1.71376C43.1583 1.46478 43.9152 1.30917 44.6799 1.24693C45.4602 1.16912 46.2405 1.16134 47.0208 1.22359C47.6607 1.27027 48.3006 1.33251 48.9404 1.41032C49.5803 1.48812 50.1968 1.65929 50.7898 1.92383C51.0551 2.04832 51.3126 2.19615 51.5623 2.36732C51.812 2.53849 52.0461 2.74079 52.2646 2.9742C52.8108 3.56552 53.1854 4.20352 53.3883 4.88821C53.5911 5.57289 53.6614 6.30426 53.599 7.08231C53.5365 7.96929 53.3258 8.724 52.9669 9.34644C52.6079 9.95332 52.1476 10.459 51.5857 10.8636C51.0395 11.2527 50.4074 11.5405 49.6895 11.7273C48.9873 11.914 48.2538 12.0074 47.489 12.0074L47.5359 15.3919C47.9728 15.3919 48.3708 15.3919 48.7298 15.3919C49.0887 15.3763 49.4398 15.3686 49.7832 15.3686C50.1265 15.3686 50.4699 15.3686 50.8132 15.3686C51.1565 15.3686 51.5311 15.3763 51.9369 15.3919C52.2178 15.4075 52.4909 15.4075 52.7562 15.3919C53.0215 15.3608 53.279 15.3608 53.5287 15.3919ZM50.5323 7.43243C50.5791 7.23014 50.5947 7.03562 50.5791 6.84889C50.5479 6.03972 50.2904 5.44062 49.8066 5.0516C49.3384 4.64701 48.7297 4.39803 47.9806 4.30467C47.5437 4.25798 47.0052 4.2113 46.3654 4.16462C45.7255 4.10237 45.0935 4.11794 44.4692 4.2113C43.8605 4.30467 43.3221 4.49918 42.8539 4.79484C42.3857 5.07494 42.1048 5.52621 42.0112 6.14865C41.9644 6.52211 41.9644 6.88002 42.0112 7.22236C42.0736 7.5647 42.2063 7.86814 42.4092 8.13268C42.612 8.39721 42.893 8.62285 43.2519 8.80958C43.6108 8.99631 44.0712 9.11302 44.6331 9.1597C45.1793 9.22195 45.7333 9.27641 46.2951 9.3231C46.8726 9.36978 47.4344 9.33866 47.9806 9.22973C48.246 9.18305 48.5113 9.1208 48.7766 9.043C49.0575 8.94963 49.315 8.83292 49.5491 8.69287C49.7832 8.55282 49.9861 8.38165 50.1577 8.17936C50.3294 7.96151 50.4543 7.71253 50.5323 7.43243Z" fill="#E9534C"/>
<path d="M34.4952 6.61548C34.7449 6.63104 34.9634 6.69328 35.1507 6.80221C35.338 6.89558 35.4706 7.07453 35.5486 7.33907C35.7203 7.94595 35.5174 8.36609 34.94 8.59951C34.7527 8.67731 34.5576 8.724 34.3548 8.73956C34.1675 8.75512 33.988 8.7629 33.8163 8.7629H23.1181C22.806 8.7629 22.4783 8.7629 22.1349 8.7629C21.8072 8.7629 21.4717 8.75512 21.1283 8.73956C20.8006 8.70844 20.5197 8.58395 20.2856 8.36609C20.0671 8.13268 19.9422 7.82924 19.911 7.45577C19.8798 7.17568 19.8642 6.8878 19.8642 6.59214C19.8642 6.28092 19.8642 6.01638 19.8642 5.79853C19.8642 5.7674 19.8564 5.7285 19.8408 5.68182C19.8408 5.63513 19.8408 5.59623 19.8408 5.56511C19.8408 5.39394 19.8486 5.18387 19.8642 4.93489C19.8798 4.67035 19.9578 4.4525 20.0983 4.28133C20.3168 4.03235 20.6055 3.88452 20.9645 3.83784C21.3234 3.77559 21.6745 3.74447 22.0179 3.74447H30.7029C30.9838 3.74447 31.2023 3.74447 31.3583 3.74447C31.5144 3.74447 31.6548 3.74447 31.7797 3.74447C31.9045 3.74447 32.0294 3.74447 32.1542 3.74447C32.2791 3.74447 32.4352 3.74447 32.6224 3.74447C32.6224 3.71335 32.6224 3.65111 32.6224 3.55774C32.638 3.44881 32.6458 3.34767 32.6458 3.2543C32.6615 3.14537 32.6693 3.05201 32.6693 2.9742C32.6693 2.88083 32.6537 2.83415 32.6224 2.83415H22.6031C22.5251 2.83415 22.4393 2.83415 22.3456 2.83415C22.2676 2.81859 22.1818 2.81859 22.0881 2.83415H21.5263C21.3702 2.83415 21.2298 2.83415 21.1049 2.83415C20.9801 2.83415 20.8552 2.81859 20.7304 2.78747C20.5899 2.75635 20.4572 2.70966 20.3324 2.64742C20.2075 2.56962 20.1061 2.46847 20.0281 2.34398C19.9656 2.20393 19.9266 2.0561 19.911 1.90049C19.911 1.74488 19.911 1.59705 19.911 1.457C19.911 1.31695 19.95 1.18468 20.0281 1.0602C20.1217 0.935708 20.2231 0.834561 20.3324 0.756756C20.4572 0.678951 20.5821 0.632268 20.7069 0.616708C20.8318 0.601147 20.9723 0.577805 21.1283 0.546682C21.2532 0.515561 21.378 0.507781 21.5029 0.523341C21.6277 0.538902 21.7526 0.538902 21.8774 0.523341C22.0179 0.507781 22.1505 0.5 22.2754 0.5C22.4158 0.5 22.5563 0.5 22.6968 0.5C23.1806 0.515561 23.797 0.523341 24.5461 0.523341C25.2952 0.507781 26.0209 0.5 26.7232 0.5H33.114C33.91 0.5 34.5186 0.632269 34.94 0.896806C35.3614 1.14578 35.5721 1.56593 35.5721 2.15725V3.79115C35.5721 3.9312 35.5721 4.08681 35.5721 4.25799C35.5877 4.4136 35.5799 4.57699 35.5486 4.74816C35.533 4.90377 35.494 5.0516 35.4316 5.19165C35.3692 5.33169 35.2677 5.44062 35.1273 5.51843C34.8932 5.64292 34.6201 5.71294 34.3079 5.7285C34.0114 5.7285 33.7305 5.7285 33.4652 5.7285H22.7202V6.59214H33.7227C33.8475 6.59214 33.9724 6.59214 34.0972 6.59214C34.2377 6.59214 34.3704 6.59992 34.4952 6.61548ZM20.5899 19.2432C20.5743 19.2432 20.5509 19.2277 20.5197 19.1966C20.3636 19.0721 20.2544 18.9009 20.1919 18.683C20.1451 18.4652 20.1217 18.2707 20.1217 18.0995C20.1061 17.8194 20.0827 17.5393 20.0515 17.2592C20.0359 16.9791 20.0281 16.7068 20.0281 16.4423C20.0281 16.0377 20.0281 15.672 20.0281 15.3452C20.0281 15.0184 20.0671 14.6605 20.1451 14.2715C20.1919 14.0225 20.27 13.828 20.3792 13.688C20.4885 13.5324 20.6601 13.4079 20.8942 13.3145C21.3312 13.1433 21.7682 13.0577 22.2052 13.0577H32.997C33.2935 13.0733 33.5978 13.0966 33.91 13.1278C34.2221 13.1589 34.5186 13.2367 34.7995 13.3612C35.1117 13.4857 35.3145 13.6646 35.4082 13.898C35.5174 14.1159 35.5877 14.3804 35.6189 14.6916C35.6345 14.9562 35.6423 15.2596 35.6423 15.602C35.6579 15.9443 35.6579 16.2944 35.6423 16.6523C35.6267 16.9947 35.6033 17.337 35.5721 17.6794C35.5408 18.0217 35.4862 18.3329 35.4082 18.613C35.3614 18.7842 35.3067 18.932 35.2443 19.0565C35.1819 19.1966 35.057 19.2977 34.8698 19.36C34.6981 19.4222 34.5186 19.4611 34.3313 19.4767C34.1597 19.4922 33.988 19.5 33.8163 19.5L21.854 19.4533C21.6511 19.4378 21.4326 19.43 21.1985 19.43C20.9645 19.43 20.7616 19.3677 20.5899 19.2432ZM33.9568 9.6032C34.2221 9.6032 34.503 9.6032 34.7995 9.6032C35.1117 9.58763 35.3926 9.61876 35.6423 9.69656C35.9076 9.7588 36.1183 9.89107 36.2743 10.0934C36.446 10.2957 36.5318 10.6069 36.5318 11.027C36.5318 11.4005 36.3758 11.7273 36.0637 12.0074C35.814 12.2252 35.5096 12.3497 35.1507 12.3808C34.8073 12.3964 34.4796 12.3964 34.1675 12.3808C34.0894 12.3653 34.0192 12.3575 33.9568 12.3575C33.8944 12.3575 33.8241 12.3575 33.7461 12.3575H20.8474C20.8318 12.3575 20.7616 12.3575 20.6367 12.3575C20.5119 12.3575 20.3636 12.3419 20.1919 12.3108C20.0359 12.2797 19.872 12.2408 19.7003 12.1941C19.5287 12.1319 19.3882 12.0385 19.279 11.914C19.0917 11.7117 18.998 11.4394 18.998 11.0971C18.998 10.7703 19.0995 10.5057 19.3024 10.3034C19.5053 10.1167 19.7159 9.9611 19.9344 9.83661C20.1529 9.71212 20.3792 9.63432 20.6133 9.6032C20.6601 9.6032 20.7069 9.61098 20.7538 9.62654C20.8006 9.62654 20.8474 9.61876 20.8942 9.6032C21.1127 9.57207 21.3468 9.57207 21.5965 9.6032C21.8462 9.61876 22.1037 9.61876 22.369 9.6032C23.1806 9.57207 23.9999 9.56429 24.827 9.57985C25.6698 9.59541 26.5437 9.6032 27.4489 9.6032C28.4321 9.6032 29.4777 9.59541 30.5858 9.57985C31.6939 9.56429 32.7785 9.57207 33.8397 9.6032H33.9568ZM22.8138 16.5823C22.8138 16.6601 22.8138 16.7379 22.8138 16.8157C22.8294 16.8935 22.8606 16.948 22.9075 16.9791C22.9387 17.0102 22.9855 17.0336 23.0479 17.0491C23.1259 17.0491 23.204 17.0491 23.282 17.0491C23.36 17.0491 23.4537 17.0414 23.5629 17.0258H30.656C30.8745 17.0414 31.0852 17.0569 31.2881 17.0725C31.4598 17.088 31.6392 17.0958 31.8265 17.0958C32.0138 17.0958 32.1855 17.0803 32.3415 17.0491C32.4976 17.0336 32.5912 16.9869 32.6224 16.9091C32.6537 16.8313 32.6771 16.7224 32.6927 16.5823C32.7083 16.4578 32.7161 16.3178 32.7161 16.1622C32.7161 15.991 32.6693 15.8432 32.5756 15.7187C32.4664 15.5942 32.3103 15.5319 32.1074 15.5319C31.9202 15.5164 31.7485 15.5164 31.5924 15.5319H25.3186C24.9753 15.5008 24.6398 15.493 24.312 15.5086C23.9843 15.5086 23.6488 15.5164 23.3054 15.5319C23.1806 15.5319 23.0791 15.5397 23.0011 15.5553C22.9387 15.5553 22.8918 15.6253 22.8606 15.7654C22.8294 15.8743 22.8138 15.9832 22.8138 16.0921C22.8138 16.1855 22.8138 16.2789 22.8138 16.3722C22.8294 16.4034 22.8294 16.4345 22.8138 16.4656C22.8138 16.4967 22.8138 16.5356 22.8138 16.5823Z" fill="#E9534C"/>
<path d="M16.059 15.3919C16.1058 15.4075 16.1526 15.4152 16.1994 15.4152C16.2463 15.3997 16.2931 15.3919 16.3399 15.3919C16.6052 15.423 16.8471 15.4775 17.0656 15.5553C17.2997 15.6175 17.526 15.742 17.7445 15.9287C17.963 16.1466 18.0722 16.4189 18.0722 16.7457C18.0722 16.9169 18.041 17.1036 17.9786 17.3059C17.9318 17.4926 17.8615 17.6405 17.7679 17.7494C17.643 17.8739 17.487 17.9672 17.2997 18.0295C17.1124 18.0917 16.933 18.1384 16.7613 18.1695C16.5896 18.1851 16.4335 18.1929 16.2931 18.1929C16.1682 18.1929 16.098 18.1929 16.0824 18.1929H2.97302C2.89499 18.1929 2.81696 18.2007 2.73892 18.2162C2.66089 18.2162 2.58286 18.2162 2.50483 18.2162C2.17709 18.2318 1.82595 18.2318 1.4514 18.2162C1.07684 18.1851 0.756911 18.0606 0.491602 17.8428C0.163867 17.5471 0 17.2125 0 16.8391C0 16.6057 0.0702288 16.3645 0.210686 16.1155C0.351144 15.8665 0.538421 15.6953 0.772517 15.602C1.08465 15.4775 1.40458 15.4152 1.73231 15.4152C2.07565 15.4152 2.41899 15.4075 2.76233 15.3919H2.87938C4.23714 15.3608 5.63391 15.3608 7.0697 15.3919L7.04629 11.984C6.5781 11.9529 6.11771 11.8984 5.66513 11.8206C5.21254 11.7428 4.77556 11.6183 4.35419 11.4472C3.93281 11.276 3.53485 11.0581 3.1603 10.7936C2.80135 10.5135 2.48142 10.1712 2.2005 9.76658C1.84156 9.28419 1.59966 8.77068 1.47481 8.22604C1.36556 7.68141 1.31094 7.11343 1.31094 6.52211C1.31094 5.30835 1.63087 4.29689 2.27073 3.48772C2.9262 2.66298 3.81577 2.07166 4.93943 1.71376C5.68854 1.46478 6.44545 1.30917 7.21016 1.24693C7.99048 1.16912 8.7708 1.16134 9.55112 1.22359C10.191 1.27027 10.8308 1.33251 11.4707 1.41032C12.1106 1.48812 12.727 1.65929 13.3201 1.92383C13.5854 2.04832 13.8429 2.19615 14.0926 2.36732C14.3423 2.53849 14.5764 2.74079 14.7949 2.9742C15.3411 3.56552 15.7157 4.20352 15.9185 4.88821C16.1214 5.57289 16.1916 6.30426 16.1292 7.08231C16.0668 7.96929 15.8561 8.724 15.4972 9.34644C15.1382 9.95332 14.6778 10.459 14.116 10.8636C13.5698 11.2527 12.9377 11.5405 12.2198 11.7273C11.5175 11.914 10.784 12.0074 10.0193 12.0074L10.0661 15.3919C10.5031 15.3919 10.9011 15.3919 11.26 15.3919C11.619 15.3763 11.9701 15.3686 12.3135 15.3686C12.6568 15.3686 13.0001 15.3686 13.3435 15.3686C13.6868 15.3686 14.0614 15.3763 14.4671 15.3919C14.7481 15.4075 15.0212 15.4075 15.2865 15.3919C15.5518 15.3608 15.8093 15.3608 16.059 15.3919ZM13.0626 7.43243C13.1094 7.23014 13.125 7.03562 13.1094 6.84889C13.0782 6.03972 12.8207 5.44062 12.3369 5.0516C11.8687 4.64701 11.26 4.39803 10.5109 4.30467C10.0739 4.25798 9.53551 4.2113 8.89565 4.16462C8.25579 4.10237 7.62373 4.11794 6.99947 4.2113C6.39082 4.30467 5.8524 4.49918 5.38421 4.79484C4.91602 5.07494 4.6351 5.52621 4.54146 6.14865C4.49465 6.52211 4.49465 6.88002 4.54146 7.22236C4.60389 7.5647 4.73654 7.86814 4.93943 8.13268C5.14231 8.39721 5.42323 8.62285 5.78217 8.80958C6.14112 8.99631 6.60151 9.11302 7.16334 9.1597C7.70957 9.22195 8.26359 9.27641 8.82542 9.3231C9.40286 9.36978 9.96469 9.33866 10.5109 9.22973C10.7762 9.18305 11.0415 9.1208 11.3068 9.043C11.5878 8.94963 11.8453 8.83292 12.0794 8.69287C12.3135 8.55282 12.5163 8.38165 12.688 8.17936C12.8597 7.96151 12.9845 7.71253 13.0626 7.43243Z" fill="#E9534C"/>
</svg>
