<svg width="52" height="52" viewBox="0 0 52 52" fill="none" xmlns="http://www.w3.org/2000/svg">
<circle cx="26" cy="26" r="26" fill="#3A3A3A"/>
<path d="M33.6647 31.0275C33.3774 31.6563 33.0374 32.2352 32.6434 32.7674C32.1064 33.4929 31.6667 33.9952 31.3279 34.274C30.8026 34.7318 30.2398 34.9662 29.6371 34.9796C29.2045 34.9796 28.6827 34.8629 28.0753 34.6262C27.466 34.3907 26.906 34.274 26.394 34.274C25.857 34.274 25.281 34.3907 24.665 34.6262C24.048 34.8629 23.551 34.9862 23.171 34.9985C22.5931 35.0218 22.017 34.7807 21.442 34.274C21.075 33.9707 20.616 33.4507 20.0661 32.7141C19.4761 31.9274 18.991 31.0152 18.611 29.9753C18.204 28.852 18 27.7642 18 26.7112C18 25.5049 18.2751 24.4644 18.826 23.5926C19.259 22.8923 19.8351 22.3398 20.5561 21.9343C21.277 21.5288 22.056 21.3221 22.895 21.3089C23.354 21.3089 23.956 21.4434 24.704 21.7079C25.45 21.9732 25.9289 22.1077 26.1389 22.1077C26.2959 22.1077 26.828 21.9504 27.73 21.6368C28.583 21.3459 29.3029 21.2254 29.8927 21.2729C31.4908 21.3951 32.6915 21.9921 33.49 23.0676C32.0607 23.8882 31.3537 25.0376 31.3677 26.5122C31.3806 27.6607 31.8203 28.6164 32.6845 29.3753C33.0761 29.7275 33.5134 29.9997 34 30.193C33.8945 30.483 33.7831 30.7608 33.6647 31.0275ZM29.9994 17.3601C29.9994 18.2603 29.6524 19.1008 28.9606 19.8788C28.1258 20.8037 27.116 21.3381 26.021 21.2538C26.007 21.1458 25.9989 21.0321 25.9989 20.9127C25.9989 20.0485 26.396 19.1236 27.101 18.3674C27.453 17.9845 27.9006 17.6662 28.4435 17.4122C28.9852 17.162 29.4976 17.0237 29.9795 17C29.9936 17.1203 29.9994 17.2407 29.9994 17.3601Z" fill="white"/>
</svg>
