<svg width="16" height="19" viewBox="0 0 16 19" fill="none" xmlns="http://www.w3.org/2000/svg">
<path d="M2 16.3359L6.71289 14.0977L6.86719 14.0293C7.59322 13.7332 8.40678 13.7332 9.13281 14.0293L9.28711 14.0977L14 16.3359V2.5H2V16.3359ZM16 17.918L15.9912 18.0527C15.9104 18.6661 15.285 19.0614 14.6963 18.8711L14.5713 18.8213L8.42871 15.9033C8.15747 15.7747 7.84253 15.7747 7.57129 15.9033L1.42871 18.8213L1.30371 18.8711C0.71497 19.0614 0.0896391 18.6661 0.00878906 18.0527L0 17.918V1.5C0 0.982323 0.393331 0.556214 0.897461 0.504883L1 0.5H15C15.5523 0.5 16 0.947715 16 1.5V17.918Z" fill="#D8D8D8"/>
</svg>
