<svg width="18" height="18" viewBox="0 0 18 18" fill="none" xmlns="http://www.w3.org/2000/svg">
<path d="M7.41694 1.74079C8.26588 0.807265 9.73412 0.807264 10.5831 1.74079V1.74079C11.0566 2.26152 11.756 2.51606 12.4534 2.42155V2.42155C13.7038 2.25212 14.8286 3.19588 14.8788 4.45669V4.45669C14.9069 5.15998 15.279 5.80451 15.874 6.18044V6.18044C16.9408 6.85438 17.1957 8.30031 16.4238 9.29846V9.29846C15.9932 9.85524 15.864 10.5882 16.0782 11.2586V11.2586C16.4622 12.4606 15.7281 13.7321 14.4951 14.0006V14.0006C13.8074 14.1503 13.2373 14.6287 12.9704 15.28V15.28C12.4919 16.4476 11.1122 16.9497 9.99521 16.3629V16.3629C9.37212 16.0355 8.62788 16.0355 8.00479 16.3629V16.3629C6.88777 16.9497 5.50807 16.4476 5.02961 15.28V15.28C4.76272 14.6287 4.19261 14.1503 3.50487 14.0006V14.0006C2.27194 13.7321 1.53782 12.4606 1.92181 11.2586V11.2586C2.136 10.5882 2.00676 9.85524 1.57617 9.29846V9.29846C0.804252 8.30031 1.05921 6.85438 2.12596 6.18044V6.18044C2.72102 5.80451 3.09313 5.15998 3.12117 4.45669V4.45669C3.17144 3.19588 4.29618 2.25212 5.54656 2.42155V2.42155C6.24404 2.51606 6.94339 2.26152 7.41694 1.74079V1.74079Z" fill="#4C71E9"/>
<path d="M6.5 9L8.28462 11.5L11.5 6.5" stroke="white" stroke-linecap="round" stroke-linejoin="round"/>
</svg>
