<svg width="52" height="35" viewBox="0 0 52 35" fill="none" xmlns="http://www.w3.org/2000/svg">
<mask id="path-1-inside-1_0_417" fill="white">
<path d="M28.8887 0C37.7208 0 44.9181 7.07024 45.2461 15.917C49.1416 17.0055 51.9999 20.5784 52 24.8213C52 29.9283 47.86 34.0683 42.7529 34.0684H9.24707C4.14004 34.0683 0 29.9283 0 24.8213C0.000140701 19.7144 4.14012 15.5743 9.24707 15.5742H12.5479C13.0464 6.88839 20.171 8.03817e-05 28.8887 0Z"/>
</mask>
<path d="M28.8887 0V-4H28.8886L28.8887 0ZM45.2461 15.917L41.2488 16.0652C41.3133 17.8037 42.4941 19.3012 44.1696 19.7694L45.2461 15.917ZM52 24.8213H56V24.8212L52 24.8213ZM42.7529 34.0684V38.0684H42.753L42.7529 34.0684ZM9.24707 34.0684L9.24699 38.0684H9.24707V34.0684ZM0 24.8213L-4 24.8212V24.8213H0ZM9.24707 15.5742V11.5742H9.24699L9.24707 15.5742ZM12.5479 15.5742V19.5742C14.668 19.5742 16.4198 17.92 16.5413 15.8034L12.5479 15.5742ZM28.8887 0V4C35.5226 4 40.9988 9.32137 41.2488 16.0652L45.2461 15.917L49.2433 15.7688C48.8374 4.81911 39.9191 -4 28.8887 -4V0ZM45.2461 15.917L44.1696 19.7694C46.3838 20.3881 47.9999 22.4213 48 24.8214L52 24.8213L56 24.8212C55.9998 18.7356 51.8995 13.6229 46.3225 12.0646L45.2461 15.917ZM52 24.8213H48C48 27.7191 45.6509 30.0683 42.7529 30.0684L42.7529 34.0684L42.753 38.0684C50.069 38.0682 56 32.1376 56 24.8213H52ZM42.7529 34.0684V30.0684H9.24707V34.0684V38.0684H42.7529V34.0684ZM9.24707 34.0684L9.24715 30.0684C6.34912 30.0683 4 27.7191 4 24.8213H0H-4C-4 32.1376 1.93096 38.0682 9.24699 38.0684L9.24707 34.0684ZM0 24.8213L4 24.8214C4.00008 21.9235 6.34931 19.5743 9.24715 19.5742L9.24707 15.5742L9.24699 11.5742C1.93094 11.5744 -3.9998 17.5052 -4 24.8212L0 24.8213ZM9.24707 15.5742V19.5742H12.5479V15.5742V11.5742H9.24707V15.5742ZM12.5479 15.5742L16.5413 15.8034C16.9212 9.184 22.341 4.00006 28.8887 4L28.8887 0L28.8886 -4C18.0009 -3.9999 9.17156 4.59277 8.55442 15.345L12.5479 15.5742Z" fill="#E9534C" mask="url(#path-1-inside-1_0_417)"/>
</svg>
