<svg width="14" height="16" viewBox="0 0 14 16" fill="none" xmlns="http://www.w3.org/2000/svg">
<path d="M9 4V2C9 1.44772 8.55228 1 8 1H2C1.44772 1 1 1.44772 1 2V12C1 12.5523 1.44772 13 2 13H5" stroke="#E9534C" stroke-width="1.5"/>
<path d="M12 4H6C5.44772 4 5 4.44771 5 5V14C5 14.5523 5.44772 15 6 15H8.58579C8.851 15 9.10536 14.8946 9.29289 14.7071L12.7071 11.2929C12.8946 11.1054 13 10.851 13 10.5858V5C13 4.44772 12.5523 4 12 4Z" stroke="#E9534C" stroke-width="1.5"/>
<path d="M12.5 10H10C9.44772 10 9 10.4477 9 11V15" stroke="#E9534C" stroke-width="1.5"/>
</svg>
