<svg width="67" height="26" viewBox="0 0 67 26" fill="none" xmlns="http://www.w3.org/2000/svg">
<path d="M0 2C0 0.89543 0.89543 0 2 0H63.7486C65.2391 0 66.2059 1.57168 65.5337 2.90196L60.8871 12.098C60.6005 12.6652 60.6005 13.3348 60.8871 13.902L65.5337 23.098C66.2059 24.4283 65.2391 26 63.7486 26H2C0.895429 26 0 25.1046 0 24V2Z" fill="#5DC1FF"/>
<path d="M35.707 7.90039C35.707 8.5293 35.5312 9.11133 35.1797 9.64648C34.832 10.1816 34.3281 10.6309 33.668 10.9941C33.0117 11.3574 32.2402 11.6035 31.3535 11.7324L30.8027 10.5723C31.5605 10.4707 32.2109 10.2812 32.7539 10.0039C33.3008 9.72656 33.7129 9.4043 33.9902 9.03711C34.2715 8.66992 34.4121 8.29102 34.4121 7.90039V7.54297H35.707V7.90039ZM35.9531 7.90039C35.9531 8.29492 36.0918 8.67773 36.3691 9.04883C36.6465 9.41602 37.0586 9.73633 37.6055 10.0098C38.1562 10.2832 38.8125 10.4707 39.5742 10.5723L39.0117 11.7324C38.1211 11.6035 37.3477 11.3574 36.6914 10.9941C36.0391 10.6309 35.5371 10.1836 35.1855 9.65234C34.8379 9.11719 34.6641 8.5332 34.6641 7.90039V7.54297H35.9531V7.90039ZM35.9062 14.8555H34.4238V13.2031H35.9062V14.8555ZM40.0488 13.4785H30.3223V12.2832H40.0488V13.4785ZM38.8594 18.0781H37.3711V15.6992H31.3945V14.5215H38.8594V18.0781ZM49.1484 13.8242H47.6543V7.40234H49.1484V13.8242ZM50.5898 11.2344H48.7266V10.0273H50.5898V11.2344ZM49.1484 18.0781H47.6543V15.4824H41.9707V14.2871H49.1484V18.0781ZM42.4863 9.50586H44.6719V8.08789H46.1719V13.2617H41.0039V8.08789H42.4863V9.50586ZM44.6719 12.0781V10.6602H42.4863V12.0781H44.6719Z" fill="white"/>
<path d="M15.4169 5.74079C16.2659 4.80726 17.7341 4.80726 18.5831 5.74079C19.0566 6.26152 19.756 6.51606 20.4534 6.42155C21.7038 6.25212 22.8286 7.19588 22.8788 8.45669C22.9069 9.15998 23.279 9.80451 23.874 10.1804C24.9408 10.8544 25.1957 12.3003 24.4238 13.2985C23.9932 13.8552 23.864 14.5882 24.0782 15.2586C24.4622 16.4606 23.7281 17.7321 22.4951 18.0006C21.8074 18.1503 21.2373 18.6287 20.9704 19.28C20.4919 20.4476 19.1122 20.9497 17.9952 20.3629C17.3721 20.0355 16.6279 20.0355 16.0048 20.3629C14.8878 20.9497 13.5081 20.4476 13.0296 19.28C12.7627 18.6287 12.1926 18.1503 11.5049 18.0006C10.2719 17.7321 9.53782 16.4606 9.92181 15.2586C10.136 14.5882 10.0068 13.8552 9.57617 13.2985C8.80425 12.3003 9.05921 10.8544 10.126 10.1804C10.721 9.80451 11.0931 9.15998 11.1212 8.45669C11.1714 7.19588 12.2962 6.25212 13.5466 6.42155C14.244 6.51606 14.9434 6.26152 15.4169 5.74079Z" fill="white"/>
<path d="M13 9.57143C13 9.25584 13.2804 9 13.6264 9H18.3736C18.7196 9 19 9.25584 19 9.57143V16.4286C19 16.7442 18.7196 17 18.3736 17H13.6264C13.2804 17 13 16.7442 13 16.4286V9.57143Z" fill="#5DC1FF"/>
<path d="M17 11.5934C17 11.2657 17.2617 11 17.5846 11H20.4154C20.7383 11 21 11.2657 21 11.5934V16.4066C21 16.7343 20.7383 17 20.4154 17H17.5846C17.2617 17 17 16.7343 17 16.4066V11.5934Z" fill="#27A7FF"/>
<path d="M14 12.1667C14 12.0746 14.0746 12 14.1667 12H14.8333C14.9254 12 15 12.0746 15 12.1667V12.8333C15 12.9254 14.9254 13 14.8333 13H14.1667C14.0746 13 14 12.9254 14 12.8333V12.1667Z" fill="#27A7FF"/>
<path d="M18 15.3214C18 15.1439 18.1636 15 18.3654 15H19.6346C19.8364 15 20 15.1439 20 15.3214V16.6786C20 16.8561 19.8364 17 19.6346 17H18.3654C18.1636 17 18 16.8561 18 16.6786V15.3214Z" fill="#5DC1FF"/>
<path d="M14 10.1667C14 10.0746 14.0746 10 14.1667 10H14.8333C14.9254 10 15 10.0746 15 10.1667V10.8333C15 10.9254 14.9254 11 14.8333 11H14.1667C14.0746 11 14 10.9254 14 10.8333V10.1667Z" fill="#27A7FF"/>
</svg>
