<svg width="78" height="26" viewBox="0 0 78 26" fill="none" xmlns="http://www.w3.org/2000/svg">
<path d="M0 2C0 0.89543 0.895431 0 2 0H74.5032C76.05 0 77.0113 1.68077 76.227 3.01404L70.9494 11.986C70.5813 12.6119 70.5813 13.3881 70.9494 14.014L76.227 22.986C77.0113 24.3192 76.05 26 74.5032 26H2C0.89543 26 0 25.1046 0 24V2Z" fill="#5894F7"/>
<path d="M35.4141 9.40625H30.8086V8.1875H35.4141V9.40625ZM33.6445 13.332H32.1562V10.6484H33.6445V13.332ZM36.2988 8.84961C36.291 9.4668 36.2734 10 36.2461 10.4492C36.2227 10.8945 36.1602 11.4043 36.0586 11.9785L34.582 11.8496C34.6953 11.2637 34.7656 10.7539 34.793 10.3203C34.8203 9.88281 34.8359 9.39258 34.8398 8.84961V8.1875H36.2988V8.84961ZM38.9062 15.3887H37.3711V7.40234H38.9062V15.3887ZM40.2012 11.9141H38.3027V10.666H40.2012V11.9141ZM39.2402 17.8965H31.7461V16.6895H39.2402V17.8965ZM33.2461 17.0703H31.7461V14.6797H33.2461V17.0703ZM30.1758 12.7578C31.4922 12.7539 32.6855 12.7305 33.7559 12.6875C34.8262 12.6445 35.8418 12.5547 36.8027 12.418L36.873 13.4961C35.8926 13.6758 34.8574 13.7969 33.7676 13.8594C32.6777 13.918 31.5234 13.9473 30.3047 13.9473L30.1758 12.7578ZM45.7852 9.20117H41.1797V7.99414H45.7852V9.20117ZM44.0156 13.0215H42.5273V10.3789H44.0156V13.0215ZM46.6816 8.68555C46.6777 9.21289 46.6621 9.68555 46.6348 10.1035C46.6074 10.5215 46.5371 10.9844 46.4238 11.4922L44.9648 11.3809C45.0664 10.8691 45.1289 10.4141 45.1523 10.0156C45.1797 9.61719 45.1934 9.17383 45.1934 8.68555V7.99414H46.6816V8.68555ZM49.2773 13.918H47.7422V7.40234H49.2773V13.918ZM50.584 11.2812H48.6562V10.0449H50.584V11.2812ZM40.5469 12.2891C41.8789 12.2852 43.0781 12.2637 44.1445 12.2246C45.2109 12.1855 46.2207 12.1074 47.1738 11.9902L47.2441 13.0391C46.248 13.2109 45.1973 13.3281 44.0918 13.3906C42.9902 13.4531 41.8516 13.4844 40.6758 13.4844L40.5469 12.2891ZM45.6445 14.041C46.4062 14.041 47.0645 14.1211 47.6191 14.2812C48.1738 14.4414 48.5996 14.6719 48.8965 14.9727C49.1973 15.2695 49.3477 15.6211 49.3477 16.0273C49.3477 16.4531 49.1992 16.8164 48.9023 17.1172C48.6055 17.4219 48.1797 17.6543 47.625 17.8145C47.0703 17.9746 46.4102 18.0547 45.6445 18.0547C44.8828 18.0547 44.2227 17.9746 43.6641 17.8145C43.1094 17.6543 42.6816 17.4219 42.3809 17.1172C42.084 16.8164 41.9355 16.4531 41.9355 16.0273C41.9355 15.6211 42.084 15.2695 42.3809 14.9727C42.6816 14.6719 43.1113 14.4414 43.6699 14.2812C44.2324 14.1211 44.8906 14.041 45.6445 14.041ZM45.6445 15.1953C45.1836 15.1914 44.7871 15.2207 44.4551 15.2832C44.127 15.3457 43.877 15.4414 43.7051 15.5703C43.5371 15.6953 43.4531 15.8477 43.4531 16.0273C43.4531 16.2266 43.5371 16.3906 43.7051 16.5195C43.873 16.6445 44.1191 16.7383 44.4434 16.8008C44.7676 16.8633 45.168 16.8945 45.6445 16.8945C46.125 16.8945 46.5234 16.8633 46.8398 16.8008C47.1602 16.7383 47.4023 16.6445 47.5664 16.5195C47.7305 16.3906 47.8125 16.2266 47.8125 16.0273C47.8125 15.8477 47.7285 15.6953 47.5605 15.5703C47.3965 15.4414 47.1523 15.3457 46.8281 15.2832C46.5078 15.2207 46.1133 15.1914 45.6445 15.1953ZM54.8789 10.3145C54.8789 11.1543 54.7598 11.9551 54.5215 12.7168C54.2871 13.4746 53.9414 14.1484 53.4844 14.7383C53.0273 15.3281 52.4766 15.7734 51.832 16.0742L50.9766 14.8965C51.5508 14.6348 52.0391 14.2617 52.4414 13.7773C52.8477 13.293 53.1523 12.752 53.3555 12.1543C53.5625 11.5527 53.666 10.9395 53.666 10.3145V9.07227H54.8789V10.3145ZM55.1895 10.3145C55.1895 10.9082 55.291 11.4883 55.4941 12.0547C55.6973 12.6211 56 13.1328 56.4023 13.5898C56.8047 14.043 57.293 14.3887 57.8672 14.627L57.0586 15.7988C56.3984 15.5137 55.8398 15.0938 55.3828 14.5391C54.9258 13.9844 54.582 13.3457 54.3516 12.623C54.125 11.8965 54.0117 11.127 54.0117 10.3145V9.07227H55.1895V10.3145ZM57.4277 9.66406H51.4043V8.44531H57.4277V9.66406ZM59.9883 18.0781H58.4707V7.40234H59.9883V18.0781Z" fill="white"/>
<path d="M15.4169 5.74079C16.2659 4.80726 17.7341 4.80726 18.5831 5.74079C19.0566 6.26152 19.756 6.51606 20.4534 6.42155C21.7038 6.25212 22.8286 7.19588 22.8788 8.45669C22.9069 9.15998 23.279 9.80451 23.874 10.1804C24.9408 10.8544 25.1957 12.3003 24.4238 13.2985C23.9932 13.8552 23.864 14.5882 24.0782 15.2586C24.4622 16.4606 23.7281 17.7321 22.4951 18.0006C21.8074 18.1503 21.2373 18.6287 20.9704 19.28C20.4919 20.4476 19.1122 20.9497 17.9952 20.3629C17.3721 20.0355 16.6279 20.0355 16.0048 20.3629C14.8878 20.9497 13.5081 20.4476 13.0296 19.28C12.7627 18.6287 12.1926 18.1503 11.5049 18.0006C10.2719 17.7321 9.53782 16.4606 9.92181 15.2586C10.136 14.5882 10.0068 13.8552 9.57617 13.2985C8.80425 12.3003 9.05921 10.8544 10.126 10.1804C10.721 9.80451 11.0931 9.15998 11.1212 8.45669C11.1714 7.19588 12.2962 6.25212 13.5466 6.42155C14.244 6.51606 14.9434 6.26152 15.4169 5.74079Z" fill="white"/>
<path d="M18.0001 9.26714C18.0001 9.89303 17.5524 10.4004 17.0002 10.4004C16.4479 10.4004 16.0002 9.89303 16.0002 9.26714C16.0002 8.64126 16.4479 8.13388 17.0002 8.13388C17.5524 8.13388 18.0001 8.64126 18.0001 9.26714Z" fill="#CCE0FC"/>
<path d="M21 13.1706C21 15.396 19.2092 17.2 17.0002 17.2C14.7912 17.2 13.0005 15.396 13.0005 13.1706C13.0005 10.9453 14.7912 9.14124 17.0002 9.14124C19.2092 9.14124 21 10.9453 21 13.1706Z" fill="#5894F7"/>
<path d="M15.3183 11.5423C15.2964 11.4601 15.3711 11.3849 15.4527 11.4069L17.8397 12.0512C17.9213 12.0733 17.9486 12.176 17.8889 12.2362L16.1415 13.9966C16.0817 14.0567 15.9797 14.0292 15.9579 13.947L15.3183 11.5423Z" fill="white"/>
<path d="M18.7896 14.7686C18.8115 14.8508 18.7368 14.9261 18.6552 14.904L16.2682 14.2597C16.1866 14.2377 16.1593 14.1349 16.219 14.0747L17.9664 12.3144C18.0262 12.2542 18.1282 12.2818 18.15 12.364L18.7896 14.7686Z" fill="#CCE0FC"/>
<path d="M17.4781 13.041C17.5408 13.277 17.4018 13.5195 17.1676 13.5827C16.9334 13.6459 16.6927 13.5059 16.63 13.27C16.5672 13.034 16.7062 12.7915 16.9404 12.7283C17.1746 12.6651 17.4153 12.8051 17.4781 13.041Z" fill="#5894F7"/>
</svg>
