<svg width="78" height="26" viewBox="0 0 78 26" fill="none" xmlns="http://www.w3.org/2000/svg">
<path d="M0 2C0 0.89543 0.895431 0 2 0H74.5032C76.05 0 77.0113 1.68077 76.227 3.01404L70.9494 11.986C70.5813 12.6119 70.5813 13.3881 70.9494 14.014L76.227 22.986C77.0113 24.3192 76.05 26 74.5032 26H2C0.89543 26 0 25.1046 0 24V2Z" fill="#FFD78D"/>
<path d="M31.3711 14.3457C32.1562 14.3457 32.832 14.3281 33.3984 14.293C33.9688 14.2578 34.5625 14.1855 35.1797 14.0762L35.3086 15.2891C34.6758 15.4062 34.0703 15.4824 33.4922 15.5176C32.9141 15.5527 32.207 15.5723 31.3711 15.5762H30.6152V14.3457H31.3711ZM34.3887 12.5234H32.0566V14.8379H30.6152V11.3398H32.9531V9.66406H30.6035V8.47461H34.3887V12.5234ZM39.5332 18.0781H38.127V7.40234H39.5332V18.0781ZM36.5391 12.2598H34.8398V11.0527H36.5391V12.2598ZM37.3301 17.5625H35.9297V7.60742H37.3301V17.5625ZM50.4434 16.8945H40.6934V15.6406H50.4434V16.8945ZM46.2715 16.209H44.7891V13.2031H46.2715V16.209ZM49.6289 9.50586H41.4492V8.31055H49.6289V9.50586ZM49.582 13.7188H41.502V12.5469H49.582V13.7188ZM44.4199 12.6934H42.9258V9.27148H44.4199V12.6934ZM48.1289 12.6934H46.6582V9.27148H48.1289V12.6934ZM60.8145 16.8359H51.0645V15.623H60.8145V16.8359ZM56.4785 9.88672C56.4785 10.6094 56.3008 11.2715 55.9453 11.873C55.5938 12.4746 55.0781 12.9805 54.3984 13.3906C53.7188 13.7969 52.9082 14.0742 51.9668 14.2227L51.3984 13.0273C52.2148 12.9141 52.9043 12.6973 53.4668 12.377C54.0332 12.0566 54.457 11.6797 54.7383 11.2461C55.0234 10.8125 55.166 10.3594 55.166 9.88672V9.6582H56.4785V9.88672ZM56.6953 9.88672C56.6953 10.3594 56.8359 10.8125 57.1172 11.2461C57.3984 11.6797 57.8242 12.0566 58.3945 12.377C58.9648 12.6973 59.6582 12.9141 60.4746 13.0273L59.8887 14.2227C58.9473 14.0742 58.1348 13.7969 57.4512 13.3906C56.7715 12.9805 56.252 12.4746 55.8926 11.873C55.5371 11.2715 55.3594 10.6094 55.3594 9.88672V9.6582H56.6953V9.88672ZM59.9707 10.1035H51.9023V8.90234H59.9707V10.1035ZM56.666 9.38867H55.1836V7.57812H56.666V9.38867Z" fill="white"/>
<path d="M15.4169 5.74079C16.2659 4.80726 17.7341 4.80726 18.5831 5.74079C19.0566 6.26152 19.756 6.51606 20.4534 6.42155C21.7038 6.25212 22.8286 7.19588 22.8788 8.45669C22.9069 9.15998 23.279 9.80451 23.874 10.1804C24.9408 10.8544 25.1957 12.3003 24.4238 13.2985C23.9932 13.8552 23.864 14.5882 24.0782 15.2586C24.4622 16.4606 23.7281 17.7321 22.4951 18.0006C21.8074 18.1503 21.2373 18.6287 20.9704 19.28C20.4919 20.4476 19.1122 20.9497 17.9952 20.3629C17.3721 20.0355 16.6279 20.0355 16.0048 20.3629C14.8878 20.9497 13.5081 20.4476 13.0296 19.28C12.7627 18.6287 12.1926 18.1503 11.5049 18.0006C10.2719 17.7321 9.53782 16.4606 9.92181 15.2586C10.136 14.5882 10.0068 13.8552 9.57617 13.2985C8.80425 12.3003 9.05921 10.8544 10.126 10.1804C10.721 9.80451 11.0931 9.15998 11.1212 8.45669C11.1714 7.19588 12.2962 6.25212 13.5466 6.42155C14.244 6.51606 14.9434 6.26152 15.4169 5.74079Z" fill="white"/>
<path d="M18.5641 16.3612L17.7642 17.7465L17.3027 17.4799L18.1027 16.0946L18.5641 16.3612Z" fill="#FFE2BA"/>
<path d="M15.4364 16.3612L16.2363 17.7465L16.6978 17.4799L15.8978 16.0946L15.4364 16.3612Z" fill="#FFE2BA"/>
<path d="M13.0005 12.139C13.0005 10.2153 14.4245 8.58879 16.3313 8.33455L16.4716 8.31585C16.8224 8.26907 17.1779 8.26907 17.5288 8.31585L17.6691 8.33455C19.5758 8.58879 20.9999 10.2153 20.9999 12.139V12.3978C20.9999 12.8234 20.9008 13.2432 20.7105 13.6238L19.7014 15.6419C19.1899 16.665 18.8667 17.0447 17.0002 17.0447C15.1337 17.0447 14.8105 16.665 14.2989 15.6419L13.2899 13.6238C13.0996 13.2432 13.0005 12.8234 13.0005 12.3978V12.139Z" fill="#FFE2BA"/>
<mask id="mask0_401_3653" style="mask-type:alpha" maskUnits="userSpaceOnUse" x="13" y="8" width="8" height="10">
<path d="M13.0005 12.139C13.0005 10.2153 14.4245 8.58879 16.3313 8.33455L16.4716 8.31585C16.8224 8.26907 17.1779 8.26907 17.5288 8.31585L17.6691 8.33455C19.5758 8.58879 20.9999 10.2153 20.9999 12.139V12.3978C20.9999 12.8234 20.9008 13.2432 20.7105 13.6238L19.7014 15.6419C19.1899 16.665 18.8667 17.0447 17.0002 17.0447C15.1337 17.0447 14.8105 16.665 14.2989 15.6419L13.2899 13.6238C13.0996 13.2432 13.0005 12.8234 13.0005 12.3978V12.139Z" fill="#24A5FF"/>
</mask>
<g mask="url(#mask0_401_3653)">
<path d="M17.4156 18.2944C18.4602 15.71 18.4601 7.95669 17.4155 6.14758C20.2882 7.18136 25.9289 9.97254 25.5111 12.8671C24.9888 16.4853 16.5006 20.5582 17.4156 18.2944Z" fill="#FFD78D"/>
<path d="M16.5854 18.2944C15.5408 15.71 15.5408 7.95669 16.5854 6.14758C13.7128 7.18136 8.07203 9.97254 8.48986 12.8671C9.01216 16.4853 17.5004 20.5582 16.5854 18.2944Z" fill="#FFD78D"/>
</g>
<path d="M15.7387 17.4716C15.6811 17.3652 15.7649 17.2401 15.8938 17.2401H18.1064C18.2353 17.2401 18.3191 17.3652 18.2615 17.4716L17.7414 18.4315C17.7121 18.4857 17.652 18.52 17.5864 18.52H16.4138C16.3482 18.52 16.2882 18.4857 16.2588 18.4315L15.7387 17.4716Z" fill="#FFE2BA"/>
</svg>
