<svg width="67" height="26" viewBox="0 0 67 26" fill="none" xmlns="http://www.w3.org/2000/svg">
<path d="M0 2C0 0.89543 0.89543 0 2 0H63.7486C65.2391 0 66.2059 1.57168 65.5337 2.90196L60.8871 12.098C60.6005 12.6652 60.6005 13.3348 60.8871 13.902L65.5337 23.098C66.2059 24.4283 65.2391 26 63.7486 26H2C0.895429 26 0 25.1046 0 24V2Z" fill="#8F62F6"/>
<path d="M34.2188 16.2793H32.7422V13.4551H34.2188V16.2793ZM37.6348 16.2793H36.1523V13.4551H37.6348V16.2793ZM40.0723 16.8301H30.3223V15.6348H40.0723V16.8301ZM35.6484 8.7793C35.6484 9.51758 35.4648 10.207 35.0977 10.8477C34.7344 11.4844 34.2129 12.0254 33.5332 12.4707C32.8574 12.916 32.0645 13.2148 31.1543 13.3672L30.5508 12.1309C31.3242 12.0059 31.998 11.7715 32.5723 11.4277C33.1465 11.0801 33.584 10.6758 33.8848 10.2148C34.1855 9.75 34.3359 9.27148 34.3359 8.7793V8H35.6484V8.7793ZM35.9238 8.7793C35.9238 9.27539 36.0742 9.75781 36.375 10.2266C36.6797 10.6914 37.1191 11.0957 37.6934 11.4395C38.2715 11.7793 38.9473 12.0098 39.7207 12.1309L39.1289 13.3672C38.2148 13.2109 37.416 12.9121 36.7324 12.4707C36.0527 12.0293 35.5312 11.4922 35.168 10.8594C34.8086 10.2227 34.6289 9.5293 34.6289 8.7793V8H35.9238V8.7793ZM46.9453 9.42383H41.1504V8.22266H46.9453V9.42383ZM40.8633 12.1895C41.9961 12.1895 43.1211 12.166 44.2383 12.1191C45.3594 12.0723 46.4004 11.9883 47.3613 11.8672L47.4551 12.9629C46.4941 13.1348 45.4746 13.25 44.3965 13.3086C43.3223 13.3633 42.1992 13.3906 41.0273 13.3906L40.8633 12.1895ZM43.4414 12.752H42.0059V9.16602H43.4414V12.752ZM46.0605 12.752H44.6309V9.16602H46.0605V12.752ZM49.6113 13.8477H48.1172V7.42578H49.6113V13.8477ZM45.9961 14.0527C46.7617 14.0527 47.4199 14.1309 47.9707 14.2871C48.5254 14.4395 48.9492 14.666 49.2422 14.9668C49.5352 15.2676 49.6816 15.6309 49.6816 16.0566C49.6816 16.4785 49.5352 16.8418 49.2422 17.1465C48.9492 17.4551 48.5254 17.6875 47.9707 17.8438C47.416 18 46.7578 18.0781 45.9961 18.0781C45.2422 18.0781 44.5898 18 44.0391 17.8438C43.4883 17.6875 43.0645 17.4551 42.7676 17.1465C42.4746 16.8418 42.3281 16.4785 42.3281 16.0566C42.3281 15.6309 42.4746 15.2676 42.7676 14.9668C43.0645 14.666 43.4863 14.4395 44.0332 14.2871C44.584 14.1309 45.2383 14.0527 45.9961 14.0527ZM45.9961 15.1953C45.5234 15.1953 45.125 15.2266 44.8008 15.2891C44.4766 15.3516 44.2305 15.4473 44.0625 15.5762C43.8984 15.7051 43.8164 15.8652 43.8164 16.0566C43.8164 16.248 43.8984 16.4102 44.0625 16.543C44.2305 16.6719 44.4766 16.7715 44.8008 16.8418C45.125 16.9082 45.5234 16.9414 45.9961 16.9414C46.4766 16.9414 46.8789 16.9082 47.2031 16.8418C47.5312 16.7715 47.7773 16.6719 47.9414 16.543C48.1055 16.4102 48.1875 16.248 48.1875 16.0566C48.1875 15.8652 48.1055 15.7051 47.9414 15.5762C47.7773 15.4473 47.5312 15.3516 47.2031 15.2891C46.8789 15.2266 46.4766 15.1953 45.9961 15.1953Z" fill="white"/>
<path d="M15.4169 5.74079C16.2659 4.80726 17.7341 4.80726 18.5831 5.74079C19.0566 6.26152 19.756 6.51606 20.4534 6.42155C21.7038 6.25212 22.8286 7.19588 22.8788 8.45669C22.9069 9.15998 23.279 9.80451 23.874 10.1804C24.9408 10.8544 25.1957 12.3003 24.4238 13.2985C23.9932 13.8552 23.864 14.5882 24.0782 15.2586C24.4622 16.4606 23.7281 17.7321 22.4951 18.0006C21.8074 18.1503 21.2373 18.6287 20.9704 19.28C20.4919 20.4476 19.1122 20.9497 17.9952 20.3629C17.3721 20.0355 16.6279 20.0355 16.0048 20.3629C14.8878 20.9497 13.5081 20.4476 13.0296 19.28C12.7627 18.6287 12.1926 18.1503 11.5049 18.0006C10.2719 17.7321 9.53782 16.4606 9.92181 15.2586C10.136 14.5882 10.0068 13.8552 9.57617 13.2985C8.80425 12.3003 9.05921 10.8544 10.126 10.1804C10.721 9.80451 11.0931 9.15998 11.1212 8.45669C11.1714 7.19588 12.2962 6.25212 13.5466 6.42155C14.244 6.51606 14.9434 6.26152 15.4169 5.74079Z" fill="white"/>
<path d="M17.1634 16.3333C17.1634 16.7015 16.8649 17 16.4967 17C16.1286 17 15.8301 16.7015 15.8301 16.3333C15.8301 15.9651 16.1286 15.6667 16.4967 15.6667C16.8649 15.6667 17.1634 15.9651 17.1634 16.3333Z" fill="#8F62F6"/>
<path d="M19.8302 16.3333C19.8302 16.7015 19.5317 17 19.1635 17C18.7953 17 18.4968 16.7015 18.4968 16.3333C18.4968 15.9651 18.7953 15.6667 19.1635 15.6667C19.5317 15.6667 19.8302 15.9651 19.8302 16.3333Z" fill="#8F62F6"/>
<path d="M13.0983 9C13.6518 9 14.1414 9.34752 14.3079 9.8586L14.5711 10.6667H20.5975C20.95 10.6667 21.2168 10.9755 21.1543 11.3114L20.7066 13.7163C20.658 13.977 20.4237 14.1666 20.1501 14.1666H15.6957L15.8647 14.6335C15.9442 14.853 16.1583 15.0001 16.3986 15.0001H20.2785C20.4687 15.0001 20.6229 15.1494 20.6229 15.3335C20.6229 15.5175 20.4686 15.6667 20.2785 15.6667H15.6198C15.4963 15.6667 15.387 15.5892 15.3499 15.4752L14.7608 13.6668L13.784 10.6667L13.6655 10.3027C13.5422 9.92416 13.1796 9.66665 12.7696 9.66661H12.1745C11.9844 9.66661 11.8301 9.51749 11.8301 9.33344C11.8301 9.14934 11.9843 9 12.1745 9H13.0983Z" fill="#8F62F6"/>
</svg>
