<svg width="78" height="26" viewBox="0 0 78 26" fill="none" xmlns="http://www.w3.org/2000/svg">
<path d="M0 2C0 0.89543 0.895431 0 2 0H74.5032C76.05 0 77.0113 1.68077 76.227 3.01404L70.9494 11.986C70.5813 12.6119 70.5813 13.3881 70.9494 14.014L76.227 22.986C77.0113 24.3192 76.05 26 74.5032 26H2C0.89543 26 0 25.1046 0 24V2Z" fill="#FEB98A"/>
<path d="M39.2461 18.1074H37.7285V7.40234H39.2461V18.1074ZM33.4512 8.1582C33.9863 8.1582 34.4668 8.31445 34.8926 8.62695C35.3223 8.93945 35.6562 9.38281 35.8945 9.95703C36.1367 10.5312 36.2578 11.1992 36.2578 11.9609C36.2578 12.7266 36.1367 13.3965 35.8945 13.9707C35.6562 14.5449 35.3223 14.9883 34.8926 15.3008C34.4668 15.6094 33.9863 15.7637 33.4512 15.7637C32.9082 15.7637 32.4219 15.6094 31.9922 15.3008C31.5664 14.9883 31.2324 14.5449 30.9902 13.9707C30.748 13.3965 30.627 12.7266 30.627 11.9609C30.627 11.1992 30.748 10.5312 30.9902 9.95703C31.2324 9.38281 31.5664 8.93945 31.9922 8.62695C32.4219 8.31445 32.9082 8.1582 33.4512 8.1582ZM33.4512 9.51172C33.1777 9.50781 32.9355 9.60156 32.7246 9.79297C32.5176 9.98047 32.3574 10.2598 32.2441 10.6309C32.1348 10.998 32.0801 11.4414 32.0801 11.9609C32.0801 12.4805 32.1348 12.9238 32.2441 13.291C32.3574 13.6582 32.5176 13.9375 32.7246 14.1289C32.9355 14.3164 33.1777 14.4102 33.4512 14.4102C33.7207 14.4102 33.959 14.3164 34.166 14.1289C34.373 13.9375 34.5332 13.6582 34.6465 13.291C34.7598 12.9238 34.8164 12.4805 34.8164 11.9609C34.8164 11.4414 34.7598 10.998 34.6465 10.6309C34.5332 10.2598 34.373 9.98047 34.166 9.79297C33.9629 9.60156 33.7246 9.50781 33.4512 9.51172ZM49.8516 15.4824H48.4277V7.40234H49.8516V15.4824ZM46.6523 11.5684H44.9297V10.3672H46.6523V11.5684ZM47.6836 15.1426H46.2715V7.57812H47.6836V15.1426ZM42.4805 9.86328H43.9277V8.23438H45.3164V13.6191H41.0625V8.23438H42.4805V9.86328ZM43.9277 12.4238V11H42.4805V12.4238H43.9277ZM50.1211 17.8965H42.6211V16.6895H50.1211V17.8965ZM44.1152 17.3926H42.6211V14.416H44.1152V17.3926ZM59.7539 14.1055H52.207V12.9277H59.7539V14.1055ZM60.8145 16.8359H51.0645V15.623H60.8145V16.8359ZM59.6719 9.41211H53.7305V13.2441H52.207V8.19336H59.6719V9.41211ZM59.4199 11.7031H53.2852V10.5371H59.4199V11.7031Z" fill="white"/>
<path d="M15.4169 5.74079C16.2659 4.80726 17.7341 4.80726 18.5831 5.74079C19.0566 6.26152 19.756 6.51606 20.4534 6.42155C21.7038 6.25212 22.8286 7.19588 22.8788 8.45669C22.9069 9.15998 23.279 9.80451 23.874 10.1804C24.9408 10.8544 25.1957 12.3003 24.4238 13.2985C23.9932 13.8552 23.864 14.5882 24.0782 15.2586C24.4622 16.4606 23.7281 17.7321 22.4951 18.0006C21.8074 18.1503 21.2373 18.6287 20.9704 19.28C20.4919 20.4476 19.1122 20.9497 17.9952 20.3629C17.3721 20.0355 16.6279 20.0355 16.0048 20.3629C14.8878 20.9497 13.5081 20.4476 13.0296 19.28C12.7627 18.6287 12.1926 18.1503 11.5049 18.0006C10.2719 17.7321 9.53782 16.4606 9.92181 15.2586C10.136 14.5882 10.0068 13.8552 9.57617 13.2985C8.80425 12.3003 9.05921 10.8544 10.126 10.1804C10.721 9.80451 11.0931 9.15998 11.1212 8.45669C11.1714 7.19588 12.2962 6.25212 13.5466 6.42155C14.244 6.51606 14.9434 6.26152 15.4169 5.74079Z" fill="white"/>
<path d="M20.3469 14.1423L13.5422 17.1725C13.2214 17.3362 12.8783 16.994 13.0424 16.674L16.0747 9.89302C16.1895 9.66921 16.4898 9.62204 16.668 9.79981L20.4403 13.5506C20.6186 13.7283 20.5713 14.0278 20.3469 14.1423Z" fill="#FEB98A"/>
<path d="M18.014 10.167C18.0759 9.6113 18.014 8.68522 17.6426 8.5" stroke="#FEB98A" stroke-width="0.5"/>
<ellipse cx="18.9425" cy="9.61125" rx="0.371406" ry="0.370434" fill="#FFE0BF"/>
<ellipse cx="20.911" cy="11.3054" rx="0.185703" ry="0.185217" fill="#FEB98A"/>
<path d="M18.9426 10.7227V11.4636" stroke="#FFE0BF" stroke-width="0.5"/>
<path d="M19.4998 11.0931L20.614 9.98178" stroke="#FEB98A" stroke-width="0.5"/>
<path d="M19.834 11.9916L21.1339 12.3621" stroke="#FFE0BF" stroke-width="0.5"/>
</svg>
