<svg width="78" height="26" viewBox="0 0 78 26" fill="none" xmlns="http://www.w3.org/2000/svg">
<path d="M0 2C0 0.89543 0.895431 0 2 0H74.5032C76.05 0 77.0113 1.68077 76.227 3.01404L70.9494 11.986C70.5813 12.6119 70.5813 13.3881 70.9494 14.014L76.227 22.986C77.0113 24.3192 76.05 26 74.5032 26H2C0.89543 26 0 25.1046 0 24V2Z" fill="#63CBC2"/>
<path d="M35.1797 7.60742C35.9688 7.60742 36.6543 7.69141 37.2363 7.85938C37.8184 8.02344 38.2656 8.26367 38.5781 8.58008C38.8945 8.89648 39.0527 9.26953 39.0527 9.69922C39.0527 10.125 38.8945 10.4922 38.5781 10.8008C38.2656 11.1094 37.8184 11.3477 37.2363 11.5156C36.6543 11.6797 35.9688 11.7617 35.1797 11.7617C34.3984 11.7617 33.7148 11.6797 33.1289 11.5156C32.543 11.3477 32.0898 11.1094 31.7695 10.8008C31.4492 10.4922 31.2891 10.125 31.2891 9.69922C31.2891 9.26953 31.4492 8.89648 31.7695 8.58008C32.0898 8.26367 32.543 8.02344 33.1289 7.85938C33.7148 7.69141 34.3984 7.60742 35.1797 7.60742ZM35.1797 8.76758C34.6836 8.76758 34.2598 8.80273 33.9082 8.87305C33.5605 8.94336 33.2949 9.04883 33.1113 9.18945C32.9316 9.32617 32.8418 9.49609 32.8418 9.69922C32.8418 9.89453 32.9316 10.0605 33.1113 10.1973C33.291 10.3301 33.5547 10.4316 33.9023 10.502C34.2539 10.5684 34.6797 10.6035 35.1797 10.6074C35.6719 10.6035 36.0918 10.5684 36.4395 10.502C36.7871 10.4316 37.0527 10.3301 37.2363 10.1973C37.4199 10.0605 37.5117 9.89453 37.5117 9.69922C37.5117 9.49609 37.4199 9.32617 37.2363 9.18945C37.0527 9.04883 36.7871 8.94336 36.4395 8.87305C36.0918 8.80273 35.6719 8.76758 35.1797 8.76758ZM38.8828 17.9609H31.4473V14.3223H38.8828V17.9609ZM32.918 16.7598H37.418V15.5059H32.918V16.7598ZM40.0488 13.5781H30.3223V12.3828H40.0488V13.5781ZM44.4668 8.92578C44.4668 9.61328 44.3516 10.2578 44.1211 10.8594C43.8906 11.457 43.5449 11.9785 43.084 12.4238C42.627 12.8691 42.0645 13.2012 41.3965 13.4199L40.6523 12.248C41.2266 12.0605 41.707 11.7949 42.0938 11.4512C42.4805 11.1074 42.7656 10.7188 42.9492 10.2852C43.1328 9.84766 43.2246 9.39453 43.2246 8.92578V7.90039H44.4668V8.92578ZM44.7773 8.92578C44.7773 9.39062 44.8652 9.82812 45.041 10.2383C45.2168 10.6484 45.4922 11.0156 45.8672 11.3398C46.2461 11.6602 46.7168 11.9043 47.2793 12.0723L46.541 13.25C45.877 13.0391 45.3203 12.7227 44.8711 12.3008C44.4219 11.875 44.084 11.375 43.8574 10.8008C43.6348 10.2266 43.5234 9.60156 43.5234 8.92578V7.90039H44.7773V8.92578ZM49.6113 18.0781H48.1172V15.4355H42.2871V14.2344H49.6113V18.0781ZM49.6113 13.7773H48.1172V7.40234H49.6113V13.7773ZM58.9395 11.0879H56.8652V9.875H58.9395V11.0879ZM60.0469 13.584H58.5586V7.40234H60.0469V13.584ZM60.0469 17.9609H52.8809V14.0176H60.0469V17.9609ZM54.375 16.7598H58.5879V15.1953H54.375V16.7598ZM54.7793 9.08398C54.7793 9.77539 54.668 10.4219 54.4453 11.0234C54.2227 11.6211 53.8848 12.1465 53.4316 12.5996C52.9824 13.0488 52.4297 13.3809 51.7734 13.5957L51 12.4121C51.5625 12.2285 52.0352 11.9648 52.418 11.6211C52.8047 11.2734 53.0918 10.8828 53.2793 10.4492C53.4668 10.0117 53.5605 9.55664 53.5605 9.08398V8.39258H54.7793V9.08398ZM55.084 9.0957C55.084 9.5293 55.1719 9.94922 55.3477 10.3555C55.5273 10.7578 55.8008 11.125 56.168 11.457C56.5352 11.7852 56.9922 12.041 57.5391 12.2246L56.8008 13.3965C56.1562 13.1855 55.6133 12.8652 55.1719 12.4355C54.7344 12.0059 54.4082 11.5059 54.1934 10.9355C53.9785 10.3613 53.8711 9.74805 53.8711 9.0957V8.39258H55.084V9.0957ZM57.2109 9.1543H51.4219V7.95898H57.2109V9.1543Z" fill="white"/>
<path d="M15.4169 5.74079C16.2659 4.80726 17.7341 4.80726 18.5831 5.74079C19.0566 6.26152 19.756 6.51606 20.4534 6.42155C21.7038 6.25212 22.8286 7.19588 22.8788 8.45669C22.9069 9.15998 23.279 9.80451 23.874 10.1804C24.9408 10.8544 25.1957 12.3003 24.4238 13.2985C23.9932 13.8552 23.864 14.5882 24.0782 15.2586C24.4622 16.4606 23.7281 17.7321 22.4951 18.0006C21.8074 18.1503 21.2373 18.6287 20.9704 19.28C20.4919 20.4476 19.1122 20.9497 17.9952 20.3629C17.3721 20.0355 16.6279 20.0355 16.0048 20.3629C14.8878 20.9497 13.5081 20.4476 13.0296 19.28C12.7627 18.6287 12.1926 18.1503 11.5049 18.0006C10.2719 17.7321 9.53782 16.4606 9.92181 15.2586C10.136 14.5882 10.0068 13.8552 9.57617 13.2985C8.80425 12.3003 9.05921 10.8544 10.126 10.1804C10.721 9.80451 11.0931 9.15998 11.1212 8.45669C11.1714 7.19588 12.2962 6.25212 13.5466 6.42155C14.244 6.51606 14.9434 6.26152 15.4169 5.74079Z" fill="white"/>
<path d="M20.7323 10.0311C20.8801 10.1164 20.9044 10.3512 20.7865 10.5555L19.7546 12.3426C19.6301 12.5583 19.4731 12.7414 19.2959 12.8876C18.5793 13.4792 17.4836 13.8033 17.019 14.6081L15.4582 17.3114C15.3729 17.4592 15.1838 17.5099 15.036 17.4245C14.8881 17.3391 14.8375 17.1501 14.9228 17.0022L16.4836 14.299C16.9482 13.4942 16.6811 12.3832 16.835 11.4668C16.8731 11.2403 16.9531 11.0127 17.0777 10.7971L18.1095 9.0099C18.2274 8.80569 18.4429 8.70927 18.5907 8.79463C18.7385 8.87999 18.7628 9.1148 18.6449 9.31902L17.9689 10.4899C17.8706 10.6601 17.9108 10.8672 18.0587 10.9526C18.2065 11.0379 18.406 10.9692 18.5043 10.799L19.1803 9.62813C19.2982 9.42391 19.5136 9.3275 19.6615 9.41285C19.8093 9.49821 19.8336 9.73302 19.7157 9.93724L19.0397 11.1081C18.9414 11.2783 18.9816 11.4854 19.1295 11.5708C19.2773 11.6562 19.4768 11.5874 19.5751 11.4172L20.2511 10.2464C20.369 10.0421 20.5844 9.94572 20.7323 10.0311Z" fill="#63CBC2"/>
<path d="M13.8954 9.38704C14.696 8.92494 15.7346 9.27033 16.1453 10.1351L16.6096 11.1124C16.8126 11.5398 16.5916 12.1381 16.3541 12.5704C16.2838 12.6983 16.2795 12.8539 16.3528 12.9801L18.6459 16.9299C18.7411 17.0938 18.6851 17.3039 18.5209 17.3987C18.3568 17.4935 18.1469 17.437 18.0525 17.2726L15.7781 13.3118C15.7055 13.1853 15.5686 13.1112 15.4227 13.1081C14.9296 13.0976 14.3009 12.9899 14.0323 12.6005L13.4181 11.7097C12.8745 10.9216 13.0949 9.84924 13.8954 9.38704Z" fill="#63CBC2"/>
</svg>
