<svg width="67" height="26" viewBox="0 0 67 26" fill="none" xmlns="http://www.w3.org/2000/svg">
<path d="M0 2C0 0.89543 0.89543 0 2 0H63.7486C65.2391 0 66.2059 1.57168 65.5337 2.90196L60.8871 12.098C60.6005 12.6652 60.6005 13.3348 60.8871 13.902L65.5337 23.098C66.2059 24.4283 65.2391 26 63.7486 26H2C0.895429 26 0 25.1046 0 24V2Z" fill="#FFBA58"/>
<path d="M40.0605 13.877H30.3105V12.6816H40.0605V13.877ZM36.0527 15.7168H34.5762V13.4316H36.0527V15.7168ZM38.8184 11.8086H31.5234V7.88281H38.8184V11.8086ZM32.9883 10.6426H37.3477V9.03711H32.9883V10.6426ZM38.9883 17.8965H31.4473V16.6895H38.9883V17.8965ZM32.9473 17.0879H31.4473V14.7852H32.9473V17.0879ZM44.6953 15.4531H43.1895V13.7129H44.6953V15.4531ZM49.2188 18.0781H47.707V7.40234H49.2188V18.0781ZM50.6074 12.9863H48.7031V11.7559H50.6074V12.9863ZM40.5645 15.0664C41.8574 15.0703 43.043 15.0547 44.1211 15.0195C45.1992 14.9805 46.2188 14.8945 47.1797 14.7617L47.2793 15.8516C46.5801 15.9805 45.8516 16.0781 45.0938 16.1445C44.3398 16.207 43.6328 16.248 42.9727 16.2676C42.3164 16.2832 41.5801 16.291 40.7637 16.291L40.5645 15.0664ZM47.0918 9.76953H40.7637V8.59766H47.0918V9.76953ZM43.957 10.1973C44.4648 10.1973 44.916 10.2812 45.3105 10.4492C45.7051 10.6172 46.0137 10.8535 46.2363 11.1582C46.4629 11.459 46.5762 11.8066 46.5762 12.2012C46.5762 12.5879 46.4629 12.9336 46.2363 13.2383C46.0137 13.5391 45.7051 13.7754 45.3105 13.9473C44.916 14.1152 44.4648 14.1992 43.957 14.1992C43.4453 14.1992 42.9902 14.1152 42.5918 13.9473C42.1934 13.7754 41.8828 13.5391 41.6602 13.2383C41.4414 12.9375 41.332 12.5918 41.332 12.2012C41.332 11.8066 41.4414 11.459 41.6602 11.1582C41.8828 10.8535 42.1934 10.6172 42.5918 10.4492C42.9902 10.2812 43.4453 10.1973 43.957 10.1973ZM43.957 11.3281C43.7148 11.3281 43.502 11.3633 43.3184 11.4336C43.1387 11.5 42.998 11.5996 42.8965 11.7324C42.7988 11.8613 42.75 12.0176 42.75 12.2012C42.75 12.3809 42.7988 12.5371 42.8965 12.6699C42.9941 12.7988 43.1348 12.8965 43.3184 12.9629C43.502 13.0293 43.7148 13.0625 43.957 13.0625C44.1953 13.0625 44.4043 13.0293 44.584 12.9629C44.7637 12.8965 44.9023 12.7988 45 12.6699C45.0977 12.5371 45.1465 12.3809 45.1465 12.2012C45.1465 12.0176 45.0977 11.8613 45 11.7324C44.9023 11.5996 44.7637 11.5 44.584 11.4336C44.4043 11.3633 44.1953 11.3281 43.957 11.3281ZM44.6953 9.45898H43.1895V7.4668H44.6953V9.45898Z" fill="white"/>
<path d="M15.4169 5.74079C16.2659 4.80726 17.7341 4.80726 18.5831 5.74079C19.0566 6.26152 19.756 6.51606 20.4534 6.42155C21.7038 6.25212 22.8286 7.19588 22.8788 8.45669C22.9069 9.15998 23.279 9.80451 23.874 10.1804C24.9408 10.8544 25.1957 12.3003 24.4238 13.2985C23.9932 13.8552 23.864 14.5882 24.0782 15.2586C24.4622 16.4606 23.7281 17.7321 22.4951 18.0006C21.8074 18.1503 21.2373 18.6287 20.9704 19.28C20.4919 20.4476 19.1122 20.9497 17.9952 20.3629C17.3721 20.0355 16.6279 20.0355 16.0048 20.3629C14.8878 20.9497 13.5081 20.4476 13.0296 19.28C12.7627 18.6287 12.1926 18.1503 11.5049 18.0006C10.2719 17.7321 9.53782 16.4606 9.92181 15.2586C10.136 14.5882 10.0068 13.8552 9.57617 13.2985C8.80425 12.3003 9.05921 10.8544 10.126 10.1804C10.721 9.80451 11.0931 9.15998 11.1212 8.45669C11.1714 7.19588 12.2962 6.25212 13.5466 6.42155C14.244 6.51606 14.9434 6.26152 15.4169 5.74079Z" fill="white"/>
<path d="M13 11.1227C13 10.834 13.2388 10.6 13.5333 10.6H20.4667C20.7612 10.6 21 10.834 21 11.1227V15.6773C21 15.966 20.7612 16.2 20.4667 16.2H13.5333C13.2388 16.2 13 15.966 13 15.6773V11.1227Z" fill="#FFD78D"/>
<path d="M13.7998 10.4754C13.7998 10.2513 13.9213 10.0503 14.1143 9.99131C14.3976 9.90464 14.8529 9.79999 15.3998 9.79999C15.9467 9.79999 16.402 9.90464 16.6853 9.99131C16.8783 10.0503 16.9998 10.2513 16.9998 10.4754V15.1115C16.9998 15.3243 16.791 15.4622 16.619 15.3719C16.2863 15.1971 15.796 14.9819 15.3998 14.9819C15.1417 14.9819 14.8436 15.0733 14.5751 15.1853C14.2191 15.3338 13.7998 15.0571 13.7998 14.6315V10.4754Z" fill="#FFBA58"/>
<path d="M17 10.4754C17 10.2513 17.1215 10.0503 17.3145 9.99131C17.5978 9.90464 18.0531 9.79999 18.6 9.79999C19.1469 9.79999 19.6022 9.90464 19.8855 9.99131C20.0785 10.0503 20.2 10.2513 20.2 10.4754V14.6315C20.2 15.0571 19.7807 15.3338 19.4247 15.1853C19.1562 15.0733 18.8581 14.9819 18.6 14.9819C18.2038 14.9819 17.7135 15.1971 17.3808 15.3719C17.2088 15.4622 17 15.3243 17 15.1115V10.4754Z" fill="#FFBA58"/>
</svg>
