<svg width="52" height="52" viewBox="0 0 52 52" fill="none" xmlns="http://www.w3.org/2000/svg">
<circle cx="26" cy="26" r="25" stroke="#FAFAFA" stroke-width="2"/>
<path d="M34.8249 24.2373H34.1V24.2H26V27.8H31.0864C30.3443 29.8956 28.3503 31.4 26 31.4C23.0178 31.4 20.6 28.9822 20.6 26C20.6 23.0178 23.0178 20.6 26 20.6C27.3765 20.6 28.6289 21.1193 29.5824 21.9675L32.1281 19.4219C30.5207 17.9238 28.3706 17 26 17C21.0297 17 17 21.0297 17 26C17 30.9703 21.0297 35 26 35C30.9703 35 35 30.9703 35 26C35 25.3966 34.9379 24.8075 34.8249 24.2373Z" fill="#FFC107"/>
<path d="M18.0376 21.811L20.9945 23.9795C21.7946 21.9986 23.7323 20.6 25.9999 20.6C27.3764 20.6 28.6288 21.1193 29.5823 21.9675L32.128 19.4219C30.5206 17.9238 28.3705 17 25.9999 17C22.543 17 19.5451 18.9517 18.0376 21.811Z" fill="#E9534C"/>
<path d="M26 35C28.3247 35 30.437 34.1103 32.0341 32.6636L29.2486 30.3065C28.345 30.9909 27.2218 31.4 26 31.4C23.6591 31.4 21.6715 29.9073 20.9227 27.8243L17.9878 30.0855C19.4773 33.0002 22.5022 35 26 35Z" fill="#4CAF50"/>
<path d="M34.825 24.2374H34.1V24.2H26V27.8H31.0864C30.73 28.8067 30.0824 29.6747 29.2472 30.307L29.2485 30.3061L32.034 32.6632C31.8369 32.8423 35 30.5 35 26C35 25.3966 34.9379 24.8075 34.825 24.2374Z" fill="#1976D2"/>
</svg>
