<svg width="22" height="24" viewBox="0 0 22 24" fill="none" xmlns="http://www.w3.org/2000/svg">
<path d="M10.0098 1.53613C10.5761 1.03846 11.4239 1.03846 11.9902 1.53613L20.9902 9.44531C21.3141 9.73002 21.4999 10.1401 21.5 10.5713V22C21.5 22.8284 20.8284 23.5 20 23.5H16C15.1716 23.5 14.5 22.8284 14.5 22V19.333C14.4998 17.4002 12.9329 15.833 11 15.833C9.06711 15.833 7.50018 17.4002 7.5 19.333V22C7.5 22.8284 6.82843 23.5 6 23.5H2C1.17157 23.5 0.5 22.8284 0.5 22V10.5713C0.500095 10.1401 0.685935 9.73002 1.00977 9.44531L10.0098 1.53613Z" fill="#E9534C" stroke="#E9534C"/>
</svg>
