<svg width="29" height="31" viewBox="0 0 29 31" fill="none" xmlns="http://www.w3.org/2000/svg">
<path d="M25.291 20.423L1.86662 30.8543C0.762076 31.418 -0.419047 30.2399 0.14607 29.1383L10.5845 5.7953C10.9797 5.02486 12.0132 4.86248 12.6268 5.47443L25.6127 18.3861C26.2263 18.9981 26.0635 20.0289 25.291 20.423Z" fill="#FEB98A"/>
<mask id="mask0_401_3900" style="mask-type:alpha" maskUnits="userSpaceOnUse" x="0" y="5" width="26" height="26">
<path d="M25.291 20.4231L1.86662 30.8544C0.762076 31.418 -0.419047 30.24 0.14607 29.1383L10.5845 5.79537C10.9797 5.02492 12.0132 4.86254 12.6268 5.47449L25.6127 18.3862C26.2263 18.9981 26.0635 20.0289 25.291 20.4231Z" fill="#FEB98A"/>
</mask>
<g mask="url(#mask0_401_3900)">
<path d="M-1.27832 21.8729L0.560706 20.8139L6.95337 31.8573L5.11435 32.9163L-1.27832 21.8729Z" fill="#FFE0BF"/>
<path d="M3.94336 18.0008L5.78239 16.9418L12.1751 27.9853L10.336 29.0442L3.94336 18.0008Z" fill="#FFE0BF"/>
<path d="M6.5 10.3488L8.33903 9.2898L17.9235 25.8472L16.0845 26.9061L6.5 10.3488Z" fill="#FFE0BF"/>
<path d="M9.76807 5.88477L11.6071 4.82578L23.0375 24.5721L21.1985 25.631L9.76807 5.88477Z" fill="#FFE0BF"/>
</g>
<path d="M17.2603 6.73835C17.4734 4.82557 17.2603 1.63759 15.9818 1" stroke="#FEB98A"/>
<ellipse cx="20.4565" cy="4.82539" rx="1.27853" ry="1.27519" fill="#FFE0BF"/>
<ellipse cx="27.233" cy="10.6573" rx="0.639267" ry="0.637594" fill="#FEB98A"/>
<path d="M20.4565 8.65152V11.2019" stroke="#FFE0BF"/>
<path d="M22.3745 9.92643L26.2101 6.10086" stroke="#FEB98A"/>
<path d="M23.5251 13.0196L28 14.2948" stroke="#FFE0BF"/>
</svg>
