<svg width="34" height="28" viewBox="0 0 34 28" fill="none" xmlns="http://www.w3.org/2000/svg">
<path d="M4.98431 0C6.9415 0 8.67298 1.26921 9.26166 3.13574L10.1923 6.08691H31.5019C32.7483 6.08691 33.6915 7.21472 33.4706 8.44141L31.8876 17.2246C31.7158 18.1767 30.8874 18.869 29.9199 18.8691H14.1689L14.7665 20.5742C15.0475 21.3761 15.8046 21.9131 16.6542 21.9131H30.374C31.0463 21.9131 31.5917 22.4585 31.5917 23.1309C31.5915 23.803 31.0462 24.3477 30.374 24.3477H13.9003C13.4639 24.3477 13.0775 24.0647 12.9462 23.6484L10.8632 17.0439L7.40912 6.08691L6.99017 4.75781C6.55422 3.37516 5.27193 2.4347 3.8222 2.43457H1.71771C1.04549 2.43457 0.500146 1.88994 0.499939 1.21777C0.499939 0.545427 1.04537 0 1.71771 0H4.98431Z" fill="#DDCFFB"/>
<ellipse cx="16.0456" cy="25.5652" rx="2.30309" ry="2.43478" fill="#8F62F6"/>
<ellipse cx="29.2883" cy="25.5652" rx="2.30309" ry="2.43478" fill="#8F62F6"/>
</svg>
