<svg width="26" height="32" viewBox="0 0 26 32" fill="none" xmlns="http://www.w3.org/2000/svg">
<path d="M17.8877 25.2533L15.3877 29.5827L13.9457 28.7494L16.4457 24.42L17.8877 25.2533Z" fill="#FFE2BA"/>
<path d="M8.11202 25.2533L10.612 29.5827L12.0541 28.7494L9.55408 24.42L8.11202 25.2533Z" fill="#FFE2BA"/>
<path d="M0.499939 12.0577C0.499939 6.04587 4.9504 0.962619 10.9095 0.168068L11.3479 0.109621C12.4444 -0.0365809 13.5555 -0.0365809 14.652 0.109621L15.0903 0.168068C21.0495 0.962619 25.4999 6.04587 25.4999 12.0577V12.8668C25.4999 14.1969 25.1903 15.5087 24.5954 16.6984L21.442 23.0052C19.8432 26.2028 18.8333 27.3893 12.9999 27.3893C7.16661 27.3892 6.15667 26.2028 4.55786 23.0052L1.40444 16.6983C0.809614 15.5087 0.499939 14.1969 0.499939 12.8668V12.0577Z" fill="#FFE2BA"/>
<mask id="mask0_401_3885" style="mask-type:alpha" maskUnits="userSpaceOnUse" x="0" y="0" width="26" height="28">
<path d="M0.499939 12.0577C0.499939 6.04587 4.9504 0.962619 10.9095 0.168068L11.3479 0.109621C12.4444 -0.0365809 13.5555 -0.0365809 14.652 0.109621L15.0903 0.168068C21.0495 0.962619 25.4999 6.04587 25.4999 12.0577V12.8668C25.4999 14.1969 25.1903 15.5087 24.5954 16.6984L21.442 23.0052C19.8432 26.2028 18.8333 27.3893 12.9999 27.3893C7.16661 27.3892 6.15667 26.2028 4.55786 23.0052L1.40444 16.6983C0.809614 15.5087 0.499939 14.1969 0.499939 12.8668V12.0577Z" fill="#24A5FF"/>
</mask>
<g mask="url(#mask0_401_3885)">
<path d="M14.2976 31.2951C17.5621 23.2181 17.562 -1.01281 14.2974 -6.66669C23.275 -3.4359 40.9038 5.28722 39.598 14.3334C37.9657 25.6412 11.438 38.3699 14.2976 31.2951Z" fill="#FFD78D"/>
<path d="M11.7027 31.2951C8.4381 23.2181 8.43829 -1.01281 11.7029 -6.66669C2.72525 -3.4359 -14.9036 5.28722 -13.5977 14.3334C-11.9654 25.6412 14.5622 38.3699 11.7027 31.2951Z" fill="#FFD78D"/>
</g>
<path d="M9.05783 28.7236C8.87772 28.3912 9.13967 28 9.5424 28H16.4575C16.8602 28 17.1222 28.3912 16.942 28.7236L15.3167 31.7236C15.225 31.893 15.0374 32 14.8322 32H11.1677C10.9625 32 10.7749 31.893 10.6831 31.7236L9.05783 28.7236Z" fill="#FFE2BA"/>
</svg>
