<svg width="30" height="34" viewBox="0 0 30 34" fill="none" xmlns="http://www.w3.org/2000/svg">
<path d="M18.7498 4.25C18.7498 6.59721 17.0708 8.5 14.9998 8.5C12.9287 8.5 11.2498 6.59721 11.2498 4.25C11.2498 1.90279 12.9287 0 14.9998 0C17.0708 0 18.7498 1.90279 18.7498 4.25Z" fill="#CCE0FC"/>
<path d="M29.9998 18.8889C29.9998 27.2345 23.284 34 14.9998 34C6.71548 34 -0.000244141 27.2345 -0.000244141 18.8889C-0.000244141 10.5432 6.71548 3.77777 14.9998 3.77777C23.284 3.77777 29.9998 10.5432 29.9998 18.8889Z" fill="#5894F7"/>
<path d="M8.69222 12.7824C8.61022 12.4741 8.89027 12.192 9.19631 12.2746L18.1481 14.691C18.4541 14.7736 18.5566 15.159 18.3326 15.3847L11.7794 21.9864C11.5554 22.212 11.1728 22.1088 11.0908 21.8005L8.69222 12.7824Z" fill="white"/>
<path d="M21.7106 24.8818C21.7926 25.1901 21.5126 25.4722 21.2065 25.3896L12.2548 22.9732C11.9487 22.8906 11.8462 22.5052 12.0703 22.2795L18.6234 15.6778C18.8474 15.4521 19.23 15.5554 19.312 15.8637L21.7106 24.8818Z" fill="#CCE0FC"/>
<path d="M16.7914 18.4029C17.0267 19.2876 16.5055 20.1971 15.6273 20.4341C14.749 20.6712 13.8462 20.1462 13.6109 19.2614C13.3756 18.3766 13.8968 17.4672 14.7751 17.2301C15.6533 16.993 16.5561 17.5181 16.7914 18.4029Z" fill="#5894F7"/>
</svg>
