<svg width="31" height="35" viewBox="0 0 31 35" fill="none" xmlns="http://www.w3.org/2000/svg">
<path d="M29.3688 5.10628C29.8953 5.41023 29.9816 6.24634 29.5618 6.97352L25.8876 13.3373C24.6708 15.4449 22.5819 16.6784 20.5369 16.7226C19.6078 16.7427 18.6424 17.0809 18.1778 17.8856L10.5888 31.0301C10.2849 31.5565 9.6117 31.7369 9.08525 31.433C8.55879 31.129 8.37842 30.4558 8.68236 29.9294L16.2713 16.7849C16.7359 15.9802 16.5461 14.975 16.0989 14.1604C15.1148 12.3673 15.1385 9.94144 16.3554 7.8338L20.0295 1.47006C20.4493 0.74288 21.2166 0.399566 21.743 0.703514C22.2695 1.00746 22.3558 1.84357 21.9359 2.57075L19.5288 6.74002C19.1789 7.34601 19.3221 8.08366 19.8485 8.3876C20.375 8.69155 21.0854 8.4467 21.4353 7.84072L23.8424 3.67145C24.2622 2.94426 25.0295 2.60095 25.5559 2.9049C26.0824 3.20884 26.1687 4.04495 25.7488 4.77214L23.3417 8.94141C22.9919 9.54739 23.135 10.285 23.6615 10.589C24.1879 10.8929 24.8983 10.6481 25.2482 10.0421L27.6553 5.87283C28.0751 5.14565 28.8424 4.80233 29.3688 5.10628Z" fill="#C7EEEE"/>
<path d="M5.02438 2.81295C7.87498 1.1675 11.5733 2.39737 13.0358 5.47674L14.6892 8.9568C15.4119 10.4787 14.6248 12.6089 13.7792 14.1483C13.529 14.6037 13.5137 15.1577 13.7746 15.6071L21.9401 29.6718C22.279 30.2556 22.0796 31.0035 21.495 31.341C20.9105 31.6785 20.163 31.4773 19.8269 30.892L11.7283 16.7885C11.4696 16.3379 10.9821 16.0742 10.4626 16.0631C8.7067 16.0257 6.46834 15.6422 5.51168 14.2554L3.32457 11.0835C1.3889 8.27714 2.17373 4.45877 5.02438 2.81295Z" fill="#63CBC2"/>
</svg>
