<svg width="30" height="24" viewBox="0 0 30 24" fill="none" xmlns="http://www.w3.org/2000/svg">
<rect x="0.000244141" y="2.08929" width="30" height="21.4286" rx="2" fill="#FFD78D"/>
<path d="M2.00024 3.2885C2.00024 2.47576 2.49381 1.74708 3.27785 1.53301C4.42876 1.21877 6.27853 0.839294 8.50024 0.839294C10.722 0.839294 12.5717 1.21877 13.7226 1.53301C14.5067 1.74708 15.0002 2.47576 15.0002 3.2885V20.0988C15.0002 20.8704 14.152 21.3704 13.4532 21.0429C12.1017 20.4094 10.1097 19.6288 8.50024 19.6288C7.4516 19.6288 6.24056 19.9602 5.15007 20.3663C3.70378 20.905 2.00024 19.9016 2.00024 18.3582V3.2885Z" fill="#FFBA58"/>
<path d="M15.0002 3.2885C15.0002 2.47576 15.4938 1.74708 16.2778 1.53301C17.4288 1.21877 19.2785 0.839294 21.5002 0.839294C23.722 0.839294 25.5717 1.21877 26.7226 1.53301C27.5067 1.74708 28.0002 2.47576 28.0002 3.2885V18.3582C28.0002 19.9016 26.2967 20.905 24.8504 20.3663C23.7599 19.9602 22.5489 19.6288 21.5002 19.6288C19.8908 19.6288 17.8988 20.4094 16.5473 21.0429C15.8485 21.3704 15.0002 20.8704 15.0002 20.0988V3.2885Z" fill="#FFBA58"/>
<rect x="17.0002" y="6" width="9" height="1.5" rx="0.75" fill="#FFD78D"/>
<rect x="4.00024" y="6" width="9" height="1.5" rx="0.75" fill="#FFD78D"/>
<rect x="17.0002" y="9" width="9" height="1.5" rx="0.75" fill="#FFD78D"/>
<rect x="4.00024" y="9" width="9" height="1.5" rx="0.75" fill="#FFD78D"/>
</svg>
