<svg width="36" height="44" viewBox="0 0 36 44" fill="none" xmlns="http://www.w3.org/2000/svg">
<rect width="36" height="36" rx="18" fill="#E9534C"/>
<path d="M29.7001 17.125C29.7866 17.1304 29.8623 17.152 29.9272 17.1899C29.9921 17.2223 30.038 17.2845 30.0651 17.3764C30.1245 17.5873 30.0542 17.7333 29.8542 17.8144C29.7893 17.8414 29.7217 17.8577 29.6514 17.8631C29.5865 17.8685 29.5243 17.8712 29.4649 17.8712H25.7583C25.6501 17.8712 25.5366 17.8712 25.4176 17.8712C25.3041 17.8712 25.1878 17.8685 25.0689 17.8631C24.9553 17.8523 24.858 17.809 24.7769 17.7333C24.7012 17.6522 24.6579 17.5468 24.6471 17.417C24.6363 17.3197 24.6309 17.2196 24.6309 17.1169C24.6309 17.0087 24.6309 16.9168 24.6309 16.8411C24.6309 16.8303 24.6282 16.8168 24.6228 16.8006C24.6228 16.7843 24.6228 16.7708 24.6228 16.76C24.6228 16.7005 24.6255 16.6275 24.6309 16.541C24.6363 16.4491 24.6633 16.3734 24.712 16.3139C24.7877 16.2274 24.8877 16.176 25.0121 16.1598C25.1365 16.1382 25.2581 16.1274 25.3771 16.1274H28.3862C28.4835 16.1274 28.5592 16.1274 28.6132 16.1274C28.6673 16.1274 28.716 16.1274 28.7592 16.1274C28.8025 16.1274 28.8458 16.1274 28.889 16.1274C28.9323 16.1274 28.9863 16.1274 29.0512 16.1274C29.0512 16.1166 29.0512 16.0949 29.0512 16.0625C29.0566 16.0246 29.0593 15.9895 29.0593 15.9571C29.0647 15.9192 29.0674 15.8868 29.0674 15.8597C29.0674 15.8273 29.062 15.8111 29.0512 15.8111H25.5799C25.5528 15.8111 25.5231 15.8111 25.4906 15.8111C25.4636 15.8057 25.4339 15.8057 25.4014 15.8111H25.2068C25.1527 15.8111 25.104 15.8111 25.0608 15.8111C25.0175 15.8111 24.9743 15.8057 24.931 15.7948C24.8823 15.784 24.8364 15.7678 24.7931 15.7462C24.7499 15.7191 24.7147 15.684 24.6877 15.6407C24.6661 15.5921 24.6525 15.5407 24.6471 15.4866C24.6471 15.4326 24.6471 15.3812 24.6471 15.3325C24.6471 15.2839 24.6606 15.2379 24.6877 15.1947C24.7201 15.1514 24.7553 15.1163 24.7931 15.0892C24.8364 15.0622 24.8796 15.046 24.9229 15.0406C24.9661 15.0351 25.0148 15.027 25.0689 15.0162C25.1121 15.0054 25.1554 15.0027 25.1987 15.0081C25.2419 15.0135 25.2852 15.0135 25.3284 15.0081C25.3771 15.0027 25.423 15 25.4663 15C25.515 15 25.5636 15 25.6123 15C25.7799 15.0054 25.9935 15.0081 26.253 15.0081C26.5126 15.0027 26.764 15 27.0073 15H29.2216C29.4973 15 29.7082 15.046 29.8542 15.1379C30.0002 15.2244 30.0732 15.3704 30.0732 15.5759V16.1436C30.0732 16.1923 30.0732 16.2463 30.0732 16.3058C30.0786 16.3599 30.0759 16.4167 30.0651 16.4761C30.0597 16.5302 30.0461 16.5816 30.0245 16.6302C30.0029 16.6789 29.9677 16.7168 29.9191 16.7438C29.838 16.7871 29.7433 16.8114 29.6352 16.8168C29.5325 16.8168 29.4351 16.8168 29.3432 16.8168H25.6204V17.1169H29.4324C29.4757 17.1169 29.5189 17.1169 29.5622 17.1169C29.6109 17.1169 29.6568 17.1196 29.7001 17.125ZM24.8823 21.5129C24.8769 21.5129 24.8688 21.5075 24.858 21.4967C24.8039 21.4534 24.7661 21.3939 24.7445 21.3182C24.7282 21.2425 24.7201 21.1749 24.7201 21.1155C24.7147 21.0181 24.7066 20.9208 24.6958 20.8235C24.6904 20.7261 24.6877 20.6315 24.6877 20.5396C24.6877 20.399 24.6877 20.2719 24.6877 20.1584C24.6877 20.0448 24.7012 19.9205 24.7282 19.7853C24.7445 19.6988 24.7715 19.6312 24.8093 19.5825C24.8472 19.5285 24.9067 19.4852 24.9878 19.4528C25.1392 19.3933 25.2906 19.3635 25.442 19.3635H29.181C29.2837 19.369 29.3892 19.3771 29.4973 19.3879C29.6055 19.3987 29.7082 19.4257 29.8055 19.469C29.9137 19.5122 29.984 19.5744 30.0164 19.6555C30.0542 19.7312 30.0786 19.8232 30.0894 19.9313C30.0948 20.0232 30.0975 20.1287 30.0975 20.2476C30.1029 20.3666 30.1029 20.4882 30.0975 20.6126C30.0921 20.7315 30.084 20.8505 30.0732 20.9695C30.0624 21.0884 30.0434 21.1966 30.0164 21.2939C30.0002 21.3534 29.9813 21.4047 29.9596 21.448C29.938 21.4967 29.8947 21.5318 29.8299 21.5534C29.7704 21.5751 29.7082 21.5886 29.6433 21.594C29.5838 21.5994 29.5243 21.6021 29.4649 21.6021L25.3203 21.5859C25.25 21.5805 25.1743 21.5778 25.0932 21.5778C25.0121 21.5778 24.9418 21.5561 24.8823 21.5129ZM29.5135 18.1632C29.6055 18.1632 29.7028 18.1632 29.8055 18.1632C29.9137 18.1578 30.011 18.1686 30.0975 18.1956C30.1894 18.2172 30.2624 18.2632 30.3165 18.3335C30.376 18.4038 30.4057 18.5119 30.4057 18.6579C30.4057 18.7877 30.3516 18.9012 30.2435 18.9986C30.157 19.0743 30.0515 19.1175 29.9272 19.1283C29.8082 19.1337 29.6947 19.1337 29.5865 19.1283C29.5595 19.1229 29.5352 19.1202 29.5135 19.1202C29.4919 19.1202 29.4676 19.1202 29.4405 19.1202H24.9716C24.9661 19.1202 24.9418 19.1202 24.8986 19.1202C24.8553 19.1202 24.8039 19.1148 24.7445 19.104C24.6904 19.0932 24.6336 19.0797 24.5741 19.0635C24.5147 19.0418 24.466 19.0094 24.4281 18.9661C24.3633 18.8958 24.3308 18.8012 24.3308 18.6822C24.3308 18.5687 24.366 18.4768 24.4362 18.4065C24.5065 18.3416 24.5795 18.2875 24.6552 18.2443C24.7309 18.201 24.8093 18.174 24.8904 18.1632C24.9067 18.1632 24.9229 18.1659 24.9391 18.1713C24.9553 18.1713 24.9716 18.1686 24.9878 18.1632C25.0635 18.1524 25.1446 18.1524 25.2311 18.1632C25.3176 18.1686 25.4068 18.1686 25.4987 18.1632C25.7799 18.1524 26.0638 18.1496 26.3504 18.1551C26.6424 18.1605 26.9452 18.1632 27.2588 18.1632C27.5994 18.1632 27.9617 18.1605 28.3456 18.1551C28.7295 18.1496 29.1053 18.1524 29.473 18.1632H29.5135ZM25.6529 20.5883C25.6529 20.6153 25.6529 20.6423 25.6529 20.6694C25.6583 20.6964 25.6691 20.7153 25.6853 20.7261C25.6961 20.737 25.7123 20.7451 25.734 20.7505C25.761 20.7505 25.788 20.7505 25.8151 20.7505C25.8421 20.7505 25.8745 20.7478 25.9124 20.7424H28.3699C28.4456 20.7478 28.5186 20.7532 28.5889 20.7586C28.6484 20.764 28.7106 20.7667 28.7755 20.7667C28.8403 20.7667 28.8998 20.7613 28.9539 20.7505C29.008 20.7451 29.0404 20.7288 29.0512 20.7018C29.062 20.6748 29.0702 20.6369 29.0756 20.5883C29.081 20.545 29.0837 20.4963 29.0837 20.4423C29.0837 20.3828 29.0674 20.3314 29.035 20.2882C28.9972 20.2449 28.9431 20.2233 28.8728 20.2233C28.8079 20.2179 28.7484 20.2179 28.6944 20.2233H26.5207C26.4017 20.2125 26.2855 20.2098 26.1719 20.2152C26.0584 20.2152 25.9421 20.2179 25.8232 20.2233C25.7799 20.2233 25.7448 20.226 25.7177 20.2314C25.6961 20.2314 25.6799 20.2557 25.6691 20.3044C25.6583 20.3422 25.6529 20.3801 25.6529 20.4179C25.6529 20.4504 25.6529 20.4828 25.6529 20.5153C25.6583 20.5261 25.6583 20.5369 25.6529 20.5477C25.6529 20.5585 25.6529 20.572 25.6529 20.5883Z" fill="white"/>
<path d="M23.3129 20.1747C23.3292 20.1801 23.3454 20.1828 23.3616 20.1828C23.3778 20.1774 23.3941 20.1747 23.4103 20.1747C23.5022 20.1855 23.586 20.2044 23.6617 20.2314C23.7428 20.2531 23.8212 20.2963 23.8969 20.3612C23.9726 20.4369 24.0105 20.5315 24.0105 20.6451C24.0105 20.7046 23.9997 20.7694 23.978 20.8397C23.9618 20.9046 23.9375 20.956 23.905 20.9938C23.8618 21.0371 23.8077 21.0695 23.7428 21.0912C23.6779 21.1128 23.6157 21.129 23.5563 21.1398C23.4968 21.1452 23.4427 21.1479 23.3941 21.1479C23.3508 21.1479 23.3265 21.1479 23.3211 21.1479H18.7791C18.752 21.1479 18.725 21.1506 18.698 21.1561C18.6709 21.1561 18.6439 21.1561 18.6169 21.1561C18.5033 21.1615 18.3817 21.1615 18.2519 21.1561C18.1221 21.1452 18.0113 21.102 17.9193 21.0263C17.8058 20.9235 17.749 20.8073 17.749 20.6775C17.749 20.5964 17.7734 20.5126 17.822 20.4261C17.8707 20.3396 17.9356 20.2801 18.0167 20.2477C18.1248 20.2044 18.2357 20.1828 18.3492 20.1828C18.4682 20.1828 18.5871 20.1801 18.7061 20.1747H18.7466C19.2171 20.1638 19.701 20.1638 20.1984 20.1747L20.1903 18.9905C20.0281 18.9797 19.8686 18.9608 19.7118 18.9337C19.555 18.9067 19.4036 18.8634 19.2576 18.804C19.1116 18.7445 18.9737 18.6688 18.844 18.5769C18.7196 18.4795 18.6088 18.3606 18.5114 18.22C18.3871 18.0524 18.3033 17.8739 18.26 17.6847C18.2221 17.4954 18.2032 17.2981 18.2032 17.0926C18.2032 16.6708 18.3141 16.3194 18.5358 16.0382C18.7629 15.7516 19.0711 15.5462 19.4604 15.4218C19.7199 15.3353 19.9822 15.2812 20.2471 15.2596C20.5175 15.2326 20.7878 15.2299 21.0582 15.2515C21.2799 15.2677 21.5016 15.2893 21.7233 15.3164C21.9449 15.3434 22.1585 15.4029 22.364 15.4948C22.4559 15.5381 22.5451 15.5894 22.6317 15.6489C22.7182 15.7084 22.7993 15.7787 22.875 15.8598C23.0642 16.0653 23.194 16.2869 23.2643 16.5249C23.3346 16.7628 23.3589 17.0169 23.3373 17.2873C23.3157 17.5955 23.2427 17.8577 23.1183 18.074C22.9939 18.2849 22.8344 18.4606 22.6398 18.6012C22.4505 18.7364 22.2315 18.8364 21.9828 18.9013C21.7395 18.9662 21.4853 18.9986 21.2204 18.9986L21.2366 20.1747C21.388 20.1747 21.5259 20.1747 21.6503 20.1747C21.7746 20.1693 21.8963 20.1666 22.0152 20.1666C22.1342 20.1666 22.2532 20.1666 22.3721 20.1666C22.4911 20.1666 22.6208 20.1693 22.7614 20.1747C22.8588 20.1801 22.9534 20.1801 23.0453 20.1747C23.1372 20.1638 23.2264 20.1638 23.3129 20.1747ZM22.2748 17.4089C22.291 17.3386 22.2964 17.271 22.291 17.2062C22.2802 16.925 22.191 16.7168 22.0234 16.5816C21.8611 16.441 21.6503 16.3545 21.3907 16.3221C21.2393 16.3059 21.0528 16.2896 20.8311 16.2734C20.6094 16.2518 20.3904 16.2572 20.1741 16.2896C19.9632 16.3221 19.7767 16.3897 19.6145 16.4924C19.4523 16.5897 19.3549 16.7465 19.3225 16.9628C19.3063 17.0926 19.3063 17.217 19.3225 17.3359C19.3441 17.4549 19.3901 17.5603 19.4604 17.6522C19.5307 17.7442 19.628 17.8226 19.7524 17.8875C19.8767 17.9523 20.0362 17.9929 20.2309 18.0091C20.4201 18.0307 20.6121 18.0497 20.8067 18.0659C21.0068 18.0821 21.2015 18.0713 21.3907 18.0334C21.4826 18.0172 21.5746 17.9956 21.6665 17.9686C21.7638 17.9361 21.853 17.8956 21.9341 17.8469C22.0152 17.7982 22.0855 17.7388 22.145 17.6685C22.2045 17.5928 22.2477 17.5062 22.2748 17.4089Z" fill="white"/>
<path d="M16.7181 17.125C16.8047 17.1304 16.8804 17.152 16.9452 17.1899C17.0101 17.2223 17.0561 17.2845 17.0831 17.3764C17.1426 17.5873 17.0723 17.7333 16.8722 17.8144C16.8074 17.8414 16.7398 17.8577 16.6695 17.8631C16.6046 17.8685 16.5424 17.8712 16.4829 17.8712H12.7764C12.6682 17.8712 12.5547 17.8712 12.4357 17.8712C12.3222 17.8712 12.2059 17.8685 12.0869 17.8631C11.9734 17.8523 11.8761 17.809 11.795 17.7333C11.7193 17.6522 11.676 17.5468 11.6652 17.417C11.6544 17.3197 11.649 17.2196 11.649 17.1169C11.649 17.0087 11.649 16.9168 11.649 16.8411C11.649 16.8303 11.6463 16.8168 11.6409 16.8006C11.6409 16.7843 11.6409 16.7708 11.6409 16.76C11.6409 16.7005 11.6436 16.6275 11.649 16.541C11.6544 16.4491 11.6814 16.3734 11.7301 16.3139C11.8058 16.2274 11.9058 16.176 12.0302 16.1598C12.1545 16.1382 12.2762 16.1274 12.3952 16.1274H15.4042C15.5015 16.1274 15.5772 16.1274 15.6313 16.1274C15.6854 16.1274 15.7341 16.1274 15.7773 16.1274C15.8206 16.1274 15.8638 16.1274 15.9071 16.1274C15.9503 16.1274 16.0044 16.1274 16.0693 16.1274C16.0693 16.1166 16.0693 16.0949 16.0693 16.0625C16.0747 16.0246 16.0774 15.9895 16.0774 15.9571C16.0828 15.9192 16.0855 15.8868 16.0855 15.8597C16.0855 15.8273 16.0801 15.8111 16.0693 15.8111H12.5979C12.5709 15.8111 12.5411 15.8111 12.5087 15.8111C12.4817 15.8057 12.4519 15.8057 12.4195 15.8111H12.2248C12.1708 15.8111 12.1221 15.8111 12.0788 15.8111C12.0356 15.8111 11.9923 15.8057 11.9491 15.7948C11.9004 15.784 11.8544 15.7678 11.8112 15.7462C11.7679 15.7191 11.7328 15.684 11.7057 15.6407C11.6841 15.5921 11.6706 15.5407 11.6652 15.4866C11.6652 15.4326 11.6652 15.3812 11.6652 15.3325C11.6652 15.2839 11.6787 15.2379 11.7057 15.1947C11.7382 15.1514 11.7733 15.1163 11.8112 15.0892C11.8544 15.0622 11.8977 15.046 11.941 15.0406C11.9842 15.0351 12.0329 15.027 12.0869 15.0162C12.1302 15.0054 12.1735 15.0027 12.2167 15.0081C12.26 15.0135 12.3032 15.0135 12.3465 15.0081C12.3952 15.0027 12.4411 15 12.4844 15C12.533 15 12.5817 15 12.6304 15C12.798 15.0054 13.0116 15.0081 13.2711 15.0081C13.5306 15.0027 13.7821 15 14.0254 15H16.2396C16.5154 15 16.7263 15.046 16.8722 15.1379C17.0182 15.2244 17.0912 15.3704 17.0912 15.5759V16.1436C17.0912 16.1923 17.0912 16.2463 17.0912 16.3058C17.0966 16.3599 17.0939 16.4167 17.0831 16.4761C17.0777 16.5302 17.0642 16.5816 17.0426 16.6302C17.0209 16.6789 16.9858 16.7168 16.9371 16.7438C16.856 16.7871 16.7614 16.8114 16.6533 16.8168C16.5505 16.8168 16.4532 16.8168 16.3613 16.8168H12.6385V17.1169H16.4505C16.4938 17.1169 16.537 17.1169 16.5803 17.1169C16.6289 17.1169 16.6749 17.1196 16.7181 17.125ZM11.9004 21.5129C11.895 21.5129 11.8869 21.5075 11.8761 21.4967C11.822 21.4534 11.7842 21.3939 11.7625 21.3182C11.7463 21.2425 11.7382 21.1749 11.7382 21.1155C11.7328 21.0181 11.7247 20.9208 11.7139 20.8235C11.7085 20.7261 11.7057 20.6315 11.7057 20.5396C11.7057 20.399 11.7057 20.2719 11.7057 20.1584C11.7057 20.0448 11.7193 19.9205 11.7463 19.7853C11.7625 19.6988 11.7896 19.6312 11.8274 19.5825C11.8653 19.5285 11.9247 19.4852 12.0058 19.4528C12.1572 19.3933 12.3086 19.3635 12.46 19.3635H16.1991C16.3018 19.369 16.4072 19.3771 16.5154 19.3879C16.6235 19.3987 16.7263 19.4257 16.8236 19.469C16.9317 19.5122 17.002 19.5744 17.0345 19.6555C17.0723 19.7312 17.0966 19.8232 17.1075 19.9313C17.1129 20.0232 17.1156 20.1287 17.1156 20.2476C17.121 20.3666 17.121 20.4882 17.1156 20.6126C17.1102 20.7315 17.1021 20.8505 17.0912 20.9695C17.0804 21.0884 17.0615 21.1966 17.0345 21.2939C17.0182 21.3534 16.9993 21.4047 16.9777 21.448C16.9561 21.4967 16.9128 21.5318 16.8479 21.5534C16.7884 21.5751 16.7263 21.5886 16.6614 21.594C16.6019 21.5994 16.5424 21.6021 16.4829 21.6021L12.3384 21.5859C12.2681 21.5805 12.1924 21.5778 12.1113 21.5778C12.0302 21.5778 11.9599 21.5561 11.9004 21.5129ZM16.5316 18.1632C16.6235 18.1632 16.7208 18.1632 16.8236 18.1632C16.9317 18.1578 17.0291 18.1686 17.1156 18.1956C17.2075 18.2172 17.2805 18.2632 17.3346 18.3335C17.394 18.4038 17.4238 18.5119 17.4238 18.6579C17.4238 18.7877 17.3697 18.9012 17.2616 18.9986C17.175 19.0743 17.0696 19.1175 16.9452 19.1283C16.8263 19.1337 16.7127 19.1337 16.6046 19.1283C16.5776 19.1229 16.5532 19.1202 16.5316 19.1202C16.51 19.1202 16.4856 19.1202 16.4586 19.1202H11.9896C11.9842 19.1202 11.9599 19.1202 11.9166 19.1202C11.8734 19.1202 11.822 19.1148 11.7625 19.104C11.7085 19.0932 11.6517 19.0797 11.5922 19.0635C11.5327 19.0418 11.4841 19.0094 11.4462 18.9661C11.3813 18.8958 11.3489 18.8012 11.3489 18.6822C11.3489 18.5687 11.384 18.4768 11.4543 18.4065C11.5246 18.3416 11.5976 18.2875 11.6733 18.2443C11.749 18.201 11.8274 18.174 11.9085 18.1632C11.9247 18.1632 11.941 18.1659 11.9572 18.1713C11.9734 18.1713 11.9896 18.1686 12.0058 18.1632C12.0815 18.1524 12.1626 18.1524 12.2492 18.1632C12.3357 18.1686 12.4249 18.1686 12.5168 18.1632C12.798 18.1524 13.0819 18.1496 13.3684 18.1551C13.6604 18.1605 13.9632 18.1632 14.2768 18.1632C14.6175 18.1632 14.9798 18.1605 15.3637 18.1551C15.7476 18.1496 16.1234 18.1524 16.491 18.1632H16.5316ZM12.6709 20.5883C12.6709 20.6153 12.6709 20.6423 12.6709 20.6694C12.6763 20.6964 12.6871 20.7153 12.7034 20.7261C12.7142 20.737 12.7304 20.7451 12.752 20.7505C12.7791 20.7505 12.8061 20.7505 12.8331 20.7505C12.8602 20.7505 12.8926 20.7478 12.9305 20.7424H15.388C15.4637 20.7478 15.5367 20.7532 15.607 20.7586C15.6665 20.764 15.7286 20.7667 15.7935 20.7667C15.8584 20.7667 15.9179 20.7613 15.972 20.7505C16.026 20.7451 16.0585 20.7288 16.0693 20.7018C16.0801 20.6748 16.0882 20.6369 16.0936 20.5883C16.099 20.545 16.1017 20.4963 16.1017 20.4423C16.1017 20.3828 16.0855 20.3314 16.0531 20.2882C16.0152 20.2449 15.9612 20.2233 15.8909 20.2233C15.826 20.2179 15.7665 20.2179 15.7124 20.2233H13.5388C13.4198 20.2125 13.3036 20.2098 13.19 20.2152C13.0765 20.2152 12.9602 20.2179 12.8412 20.2233C12.798 20.2233 12.7628 20.226 12.7358 20.2314C12.7142 20.2314 12.698 20.2557 12.6871 20.3044C12.6763 20.3422 12.6709 20.3801 12.6709 20.4179C12.6709 20.4504 12.6709 20.4828 12.6709 20.5153C12.6763 20.5261 12.6763 20.5369 12.6709 20.5477C12.6709 20.5585 12.6709 20.572 12.6709 20.5883Z" fill="white"/>
<path d="M10.331 20.1747C10.3472 20.1801 10.3635 20.1828 10.3797 20.1828C10.3959 20.1774 10.4121 20.1747 10.4283 20.1747C10.5203 20.1855 10.6041 20.2044 10.6798 20.2314C10.7609 20.2531 10.8393 20.2963 10.915 20.3612C10.9907 20.4369 11.0285 20.5315 11.0285 20.6451C11.0285 20.7046 11.0177 20.7694 10.9961 20.8397C10.9799 20.9046 10.9555 20.956 10.9231 20.9938C10.8798 21.0371 10.8258 21.0695 10.7609 21.0912C10.696 21.1128 10.6338 21.129 10.5743 21.1398C10.5149 21.1452 10.4608 21.1479 10.4121 21.1479C10.3689 21.1479 10.3445 21.1479 10.3391 21.1479H5.79715C5.77011 21.1479 5.74307 21.1506 5.71604 21.1561C5.689 21.1561 5.66197 21.1561 5.63493 21.1561C5.52138 21.1615 5.39972 21.1615 5.26995 21.1561C5.14018 21.1452 5.02934 21.102 4.93741 21.0263C4.82386 20.9235 4.76709 20.8073 4.76709 20.6775C4.76709 20.5964 4.79142 20.5126 4.84009 20.4261C4.88875 20.3396 4.95364 20.2801 5.03474 20.2477C5.14288 20.2044 5.25373 20.1828 5.36728 20.1828C5.48624 20.1828 5.60519 20.1801 5.72415 20.1747H5.7647C6.23512 20.1638 6.71906 20.1638 7.21652 20.1747L7.2084 18.9905C7.04619 18.9797 6.88668 18.9608 6.72987 18.9337C6.57307 18.9067 6.42167 18.8634 6.27568 18.804C6.12968 18.7445 5.9918 18.6688 5.86203 18.5769C5.73767 18.4795 5.62682 18.3606 5.52949 18.22C5.40513 18.0524 5.32132 17.8739 5.27806 17.6847C5.24021 17.4954 5.22129 17.2981 5.22129 17.0926C5.22129 16.6708 5.33213 16.3194 5.55383 16.0382C5.78092 15.7516 6.08913 15.5462 6.47844 15.4218C6.73799 15.3353 7.00023 15.2812 7.26518 15.2596C7.53554 15.2326 7.80589 15.2299 8.07625 15.2515C8.29794 15.2677 8.51963 15.2893 8.74132 15.3164C8.96302 15.3434 9.1766 15.4029 9.38207 15.4948C9.47399 15.5381 9.56321 15.5894 9.64972 15.6489C9.73623 15.7084 9.81734 15.7787 9.89304 15.8598C10.0823 16.0653 10.2121 16.2869 10.2824 16.5249C10.3526 16.7628 10.377 17.0169 10.3553 17.2873C10.3337 17.5955 10.2607 17.8577 10.1364 18.074C10.012 18.2849 9.85249 18.4606 9.65783 18.6012C9.46858 18.7364 9.24959 18.8364 9.00086 18.9013C8.75754 18.9662 8.50341 18.9986 8.23846 18.9986L8.25468 20.1747C8.40608 20.1747 8.54396 20.1747 8.66833 20.1747C8.79269 20.1693 8.91435 20.1666 9.03331 20.1666C9.15226 20.1666 9.27122 20.1666 9.39018 20.1666C9.50913 20.1666 9.63891 20.1693 9.77949 20.1747C9.87682 20.1801 9.97144 20.1801 10.0634 20.1747C10.1553 20.1638 10.2445 20.1638 10.331 20.1747ZM9.29285 17.4089C9.30907 17.3386 9.31448 17.271 9.30907 17.2062C9.29826 16.925 9.20904 16.7168 9.04142 16.5816C8.8792 16.441 8.66833 16.3545 8.40879 16.3221C8.25739 16.3059 8.07084 16.2896 7.84915 16.2734C7.62746 16.2518 7.40847 16.2572 7.19218 16.2896C6.98131 16.3221 6.79476 16.3897 6.63255 16.4924C6.47033 16.5897 6.373 16.7465 6.34056 16.9628C6.32434 17.0926 6.32434 17.217 6.34056 17.3359C6.36219 17.4549 6.40815 17.5603 6.47844 17.6522C6.54874 17.7442 6.64606 17.8226 6.77043 17.8875C6.89479 17.9523 7.0543 17.9929 7.24896 18.0091C7.43821 18.0307 7.63016 18.0497 7.82482 18.0659C8.02488 18.0821 8.21954 18.0713 8.40879 18.0334C8.50071 18.0172 8.59263 17.9956 8.68455 17.9686C8.78188 17.9361 8.87109 17.8956 8.9522 17.8469C9.03331 17.7982 9.1036 17.7388 9.16308 17.6685C9.22256 17.5928 9.26581 17.5062 9.29285 17.4089Z" fill="white"/>
<path d="M16.5344 42.4217L5 30H31L19.4656 42.4217C18.6743 43.2738 17.3257 43.2738 16.5344 42.4217Z" fill="#E9534C"/>
</svg>
