<svg width="112" height="26" viewBox="0 0 112 26" fill="none" xmlns="http://www.w3.org/2000/svg">
<path d="M0 2C0 0.89543 0.895431 0 2 0H107.693C109.395 0 110.319 1.99037 109.221 3.29054L102.11 11.7095C101.48 12.4547 101.48 13.5453 102.11 14.2905L109.221 22.7095C110.319 24.0096 109.395 26 107.693 26H2C0.89543 26 0 25.1046 0 24V2Z" fill="#4C71E9"/>
<path d="M39.2461 18.1074H37.7285V7.40234H39.2461V18.1074ZM33.4512 8.1582C33.9863 8.1582 34.4668 8.31445 34.8926 8.62695C35.3223 8.93945 35.6562 9.38281 35.8945 9.95703C36.1367 10.5312 36.2578 11.1992 36.2578 11.9609C36.2578 12.7266 36.1367 13.3965 35.8945 13.9707C35.6562 14.5449 35.3223 14.9883 34.8926 15.3008C34.4668 15.6094 33.9863 15.7637 33.4512 15.7637C32.9082 15.7637 32.4219 15.6094 31.9922 15.3008C31.5664 14.9883 31.2324 14.5449 30.9902 13.9707C30.748 13.3965 30.627 12.7266 30.627 11.9609C30.627 11.1992 30.748 10.5312 30.9902 9.95703C31.2324 9.38281 31.5664 8.93945 31.9922 8.62695C32.4219 8.31445 32.9082 8.1582 33.4512 8.1582ZM33.4512 9.51172C33.1777 9.50781 32.9355 9.60156 32.7246 9.79297C32.5176 9.98047 32.3574 10.2598 32.2441 10.6309C32.1348 10.998 32.0801 11.4414 32.0801 11.9609C32.0801 12.4805 32.1348 12.9238 32.2441 13.291C32.3574 13.6582 32.5176 13.9375 32.7246 14.1289C32.9355 14.3164 33.1777 14.4102 33.4512 14.4102C33.7207 14.4102 33.959 14.3164 34.166 14.1289C34.373 13.9375 34.5332 13.6582 34.6465 13.291C34.7598 12.9238 34.8164 12.4805 34.8164 11.9609C34.8164 11.4414 34.7598 10.998 34.6465 10.6309C34.5332 10.2598 34.373 9.98047 34.166 9.79297C33.9629 9.60156 33.7246 9.50781 33.4512 9.51172ZM41.9531 11.3105C43.1016 11.3105 44.0254 11.2852 44.7246 11.2344C45.4238 11.1836 46.1074 11.0918 46.7754 10.959L46.9395 12.1133C46.4941 12.2148 46.0371 12.293 45.5684 12.3477C45.1035 12.3984 44.5996 12.4316 44.0566 12.4473C43.5137 12.4629 42.8125 12.4707 41.9531 12.4707H41.0625V11.3105H41.9531ZM45.8613 9.14258H42.5449V11.9609H41.0625V7.9707H45.8613V9.14258ZM49.1484 12.7227H47.6543V7.40234H49.1484V12.7227ZM50.5898 10.6484H48.7266V9.43555H50.5898V10.6484ZM49.1484 16.0918H43.5645V17.3809H42.0938V14.9785H47.6602V14.3398H42.0762V13.1504H49.1484V16.0918ZM49.459 17.9609H42.0938V16.7598H49.459V17.9609ZM54.5156 8.12305C55.0742 8.12305 55.5781 8.23633 56.0273 8.46289C56.4766 8.68555 56.8281 8.99609 57.082 9.39453C57.3398 9.78906 57.4688 10.2383 57.4688 10.7422C57.4688 11.2461 57.3398 11.6973 57.082 12.0957C56.8281 12.4902 56.4766 12.8008 56.0273 13.0273C55.582 13.25 55.0781 13.3613 54.5156 13.3613C53.9609 13.3613 53.457 13.25 53.0039 13.0273C52.5508 12.8008 52.1953 12.4902 51.9375 12.0957C51.6797 11.6973 51.5508 11.2461 51.5508 10.7422C51.5508 10.2383 51.6797 9.78906 51.9375 9.39453C52.1953 8.99609 52.5508 8.68555 53.0039 8.46289C53.457 8.23633 53.9609 8.12305 54.5156 8.12305ZM54.5156 9.41211C54.2305 9.41211 53.9766 9.46484 53.7539 9.57031C53.5312 9.67578 53.3555 9.83008 53.2266 10.0332C53.0977 10.2324 53.0332 10.4688 53.0332 10.7422C53.0332 11.0195 53.0977 11.2578 53.2266 11.457C53.3555 11.6523 53.5312 11.8047 53.7539 11.9141C53.9766 12.0195 54.2305 12.0723 54.5156 12.0723C54.8008 12.0723 55.0566 12.0195 55.2832 11.9141C55.5137 11.8047 55.6914 11.6523 55.8164 11.457C55.9453 11.2578 56.0098 11.0195 56.0098 10.7422C56.0098 10.4688 55.9453 10.2324 55.8164 10.0332C55.6914 9.83008 55.5137 9.67578 55.2832 9.57031C55.0566 9.46484 54.8008 9.41211 54.5156 9.41211ZM60.0176 18.1074H58.5352V7.40234H60.0176V18.1074ZM51.1055 14.709C51.9648 14.7051 52.7461 14.6953 53.4492 14.6797C54.1523 14.6641 54.8984 14.6328 55.6875 14.5859C56.4805 14.5352 57.2285 14.4629 57.9316 14.3691L58.0371 15.4414C57.3145 15.582 56.5605 15.6875 55.7754 15.7578C54.9902 15.8281 54.252 15.873 53.5605 15.8926C52.873 15.9121 52.1133 15.9219 51.2812 15.9219L51.1055 14.709ZM71.9766 10.8066H69.0059V9.60547H71.9766V10.8066ZM71.9766 14.1113H69.0059V12.9102H71.9766V14.1113ZM67.1484 8.1582C67.6797 8.1582 68.1543 8.31445 68.5723 8.62695C68.9902 8.93945 69.3164 9.38281 69.5508 9.95703C69.7891 10.5312 69.9082 11.1992 69.9082 11.9609C69.9082 12.7266 69.7891 13.3965 69.5508 13.9707C69.3164 14.5449 68.9902 14.9883 68.5723 15.3008C68.1543 15.6094 67.6797 15.7637 67.1484 15.7637C66.6133 15.7637 66.1348 15.6094 65.7129 15.3008C65.2949 14.9922 64.9668 14.5508 64.7285 13.9766C64.4902 13.3984 64.3711 12.7266 64.3711 11.9609C64.3711 11.1992 64.4902 10.5312 64.7285 9.95703C64.9668 9.38281 65.2949 8.93945 65.7129 8.62695C66.1348 8.31445 66.6133 8.1582 67.1484 8.1582ZM67.1484 9.51172C66.8828 9.50781 66.6465 9.60156 66.4395 9.79297C66.2363 9.98438 66.0801 10.2637 65.9707 10.6309C65.8652 10.998 65.8125 11.4414 65.8125 11.9609C65.8125 12.4805 65.8652 12.9238 65.9707 13.291C66.0801 13.6582 66.2363 13.9375 66.4395 14.1289C66.6465 14.3164 66.8828 14.4102 67.1484 14.4102C67.418 14.4102 67.6543 14.3164 67.8574 14.1289C68.0605 13.9375 68.2168 13.6582 68.3262 13.291C68.4355 12.9238 68.4902 12.4805 68.4902 11.9609C68.4902 11.4375 68.4336 10.9922 68.3203 10.625C68.2109 10.2578 68.0566 9.98047 67.8574 9.79297C67.6582 9.60156 67.4219 9.50781 67.1484 9.51172ZM73.207 18.1074H71.7246V7.40234H73.207V18.1074ZM83.7422 14.0938H82.3184V7.40234H83.7422V14.0938ZM82.6992 11.2754H80.9531V10.0566H82.6992V11.2754ZM81.4688 13.748H80.0742V7.60742H81.4688V13.748ZM79.7578 9.66992H74.5254V8.50391H79.7578V9.66992ZM77.1562 10.0332C77.6055 10.0332 78.0059 10.1094 78.3574 10.2617C78.7129 10.4141 78.9902 10.6328 79.1895 10.918C79.3887 11.1992 79.4883 11.5254 79.4883 11.8965C79.4883 12.2559 79.3887 12.5762 79.1895 12.8574C78.9902 13.1348 78.7129 13.3516 78.3574 13.5078C78.0059 13.6602 77.6055 13.7363 77.1562 13.7363C76.7188 13.7363 76.3242 13.6602 75.9727 13.5078C75.6211 13.3516 75.3457 13.1348 75.1465 12.8574C74.9473 12.5762 74.8477 12.2559 74.8477 11.8965C74.8477 11.5254 74.9473 11.1992 75.1465 10.918C75.3457 10.6328 75.6191 10.4141 75.9668 10.2617C76.3184 10.1094 76.7148 10.0332 77.1562 10.0332ZM77.1562 11.1055C76.9648 11.1016 76.7949 11.1309 76.6465 11.1934C76.502 11.2559 76.3887 11.3477 76.3066 11.4688C76.2246 11.5859 76.1836 11.7285 76.1836 11.8965C76.1836 12.0527 76.2246 12.1914 76.3066 12.3125C76.3887 12.4297 76.502 12.5215 76.6465 12.5879C76.7949 12.6504 76.9648 12.6816 77.1562 12.6816C77.3516 12.6816 77.5234 12.6504 77.6719 12.5879C77.8203 12.5215 77.9355 12.4297 78.0176 12.3125C78.0996 12.1914 78.1406 12.0527 78.1406 11.8965C78.1406 11.7285 78.0996 11.5859 78.0176 11.4688C77.9355 11.3477 77.8203 11.2559 77.6719 11.1934C77.5234 11.1309 77.3516 11.1016 77.1562 11.1055ZM77.8945 9.3125H76.4004V7.50781H77.8945V9.3125ZM80.0977 14.2051C80.8672 14.2051 81.5293 14.2812 82.084 14.4336C82.6387 14.582 83.0625 14.8027 83.3555 15.0957C83.6484 15.3848 83.7949 15.7344 83.7949 16.1445C83.7949 16.5508 83.6484 16.8984 83.3555 17.1875C83.0625 17.4766 82.6367 17.6973 82.0781 17.8496C81.5234 18.002 80.8633 18.0781 80.0977 18.0781C79.3359 18.0781 78.6777 18.002 78.123 17.8496C77.5684 17.6973 77.1426 17.4766 76.8457 17.1875C76.5527 16.8984 76.4062 16.5508 76.4062 16.1445C76.4062 15.7344 76.5527 15.3848 76.8457 15.0957C77.1426 14.8027 77.5684 14.582 78.123 14.4336C78.6777 14.2812 79.3359 14.2051 80.0977 14.2051ZM80.0977 15.3242C79.6133 15.3203 79.209 15.3477 78.8848 15.4062C78.5605 15.4648 78.3164 15.5566 78.1523 15.6816C77.9883 15.8066 77.9062 15.9609 77.9062 16.1445C77.9062 16.3242 77.9883 16.4746 78.1523 16.5957C78.3164 16.7129 78.5605 16.8027 78.8848 16.8652C79.2129 16.9238 79.6172 16.9531 80.0977 16.9531C80.5898 16.9531 80.9961 16.9238 81.3164 16.8652C81.6406 16.8027 81.8848 16.7129 82.0488 16.5957C82.2129 16.4746 82.2949 16.3242 82.2949 16.1445C82.2949 15.957 82.2129 15.8027 82.0488 15.6816C81.8848 15.5566 81.6406 15.4648 81.3164 15.4062C80.9961 15.3477 80.5898 15.3203 80.0977 15.3242ZM88.7695 10.3145C88.7695 11.1543 88.6504 11.9551 88.4121 12.7168C88.1777 13.4746 87.832 14.1484 87.375 14.7383C86.918 15.3281 86.3672 15.7734 85.7227 16.0742L84.8672 14.8965C85.4414 14.6348 85.9297 14.2617 86.332 13.7773C86.7383 13.293 87.043 12.752 87.2461 12.1543C87.4531 11.5527 87.5566 10.9395 87.5566 10.3145V9.07227H88.7695V10.3145ZM89.0801 10.3145C89.0801 10.9082 89.1816 11.4883 89.3848 12.0547C89.5879 12.6211 89.8906 13.1328 90.293 13.5898C90.6953 14.043 91.1836 14.3887 91.7578 14.627L90.9492 15.7988C90.2891 15.5137 89.7305 15.0938 89.2734 14.5391C88.8164 13.9844 88.4727 13.3457 88.2422 12.623C88.0156 11.8965 87.9023 11.127 87.9023 10.3145V9.07227H89.0801V10.3145ZM91.3184 9.66406H85.2949V8.44531H91.3184V9.66406ZM93.8789 18.0781H92.3613V7.40234H93.8789V18.0781Z" fill="white"/>
<path d="M15.4169 5.74079C16.2659 4.80726 17.7341 4.80726 18.5831 5.74079C19.0566 6.26152 19.756 6.51606 20.4534 6.42155C21.7038 6.25212 22.8286 7.19588 22.8788 8.45669C22.9069 9.15998 23.279 9.80451 23.874 10.1804C24.9408 10.8544 25.1957 12.3003 24.4238 13.2985C23.9932 13.8552 23.864 14.5882 24.0782 15.2586C24.4622 16.4606 23.7281 17.7321 22.4951 18.0006C21.8074 18.1503 21.2373 18.6287 20.9704 19.28C20.4919 20.4476 19.1122 20.9497 17.9952 20.3629C17.3721 20.0355 16.6279 20.0355 16.0048 20.3629C14.8878 20.9497 13.5081 20.4476 13.0296 19.28C12.7627 18.6287 12.1926 18.1503 11.5049 18.0006C10.2719 17.7321 9.53782 16.4606 9.92181 15.2586C10.136 14.5882 10.0068 13.8552 9.57617 13.2985C8.80425 12.3003 9.05921 10.8544 10.126 10.1804C10.721 9.80451 11.0931 9.15998 11.1212 8.45669C11.1714 7.19588 12.2962 6.25212 13.5466 6.42155C14.244 6.51606 14.9434 6.26152 15.4169 5.74079Z" fill="white"/>
<path d="M14.5 13L16.2846 15.5L19.5 10.5" stroke="#4C71E9" stroke-linecap="round" stroke-linejoin="round"/>
</svg>
