<svg width="22" height="22" viewBox="0 0 22 22" fill="none" xmlns="http://www.w3.org/2000/svg">
<circle cx="11" cy="11" r="2" fill="#E9534C"/>
<path d="M11 0C17.0751 0 22 4.92487 22 11C22 17.0751 17.0751 22 11 22C4.92487 22 0 17.0751 0 11C0 4.92487 4.92487 0 11 0ZM11.75 4.25C11.75 4.66421 11.4142 5 11 5C10.5858 5 10.25 4.66421 10.25 4.25V1.53125C5.6015 1.89437 1.89539 5.60151 1.53223 10.25H4.25C4.66421 10.25 5 10.5858 5 11C5 11.4142 4.66421 11.75 4.25 11.75H1.53223C1.89538 16.3985 5.60153 20.1046 10.25 20.4678V17.75C10.25 17.3358 10.5858 17 11 17C11.4142 17 11.75 17.3358 11.75 17.75V20.4678C16.3985 20.1046 20.1046 16.3985 20.4678 11.75H17.75C17.3358 11.75 17 11.4142 17 11C17 10.5858 17.3358 10.25 17.75 10.25H20.4678C20.1046 5.60151 16.3985 1.89437 11.75 1.53125V4.25Z" fill="#E9534C"/>
</svg>
