<svg width="67" height="26" viewBox="0 0 67 26" fill="none" xmlns="http://www.w3.org/2000/svg">
<path d="M0 2C0 0.89543 0.89543 0 2 0H63.7486C65.2391 0 66.2059 1.57168 65.5337 2.90196L60.8871 12.098C60.6005 12.6652 60.6005 13.3348 60.8871 13.902L65.5337 23.098C66.2059 24.4283 65.2391 26 63.7486 26H2C0.895429 26 0 25.1046 0 24V2Z" fill="#63CBC2"/>
<path d="M33.9375 10.3145C33.9375 11.1309 33.8223 11.9238 33.5918 12.6934C33.3613 13.459 33.0195 14.1406 32.5664 14.7383C32.1133 15.332 31.5723 15.7773 30.9434 16.0742L30.0645 14.8965C30.6426 14.627 31.1309 14.2461 31.5293 13.7539C31.9316 13.2617 32.2363 12.7188 32.4434 12.125C32.6504 11.5312 32.7539 10.9277 32.7539 10.3145V9.07227H33.9375V10.3145ZM34.2539 10.3145C34.2539 10.877 34.3516 11.4395 34.5469 12.002C34.7461 12.5605 35.041 13.0742 35.4316 13.543C35.8262 14.0078 36.3047 14.3691 36.8672 14.627L36.0352 15.7988C35.4102 15.5137 34.875 15.0859 34.4297 14.5156C33.9844 13.9453 33.6465 13.2969 33.416 12.5703C33.1855 11.8398 33.0703 11.0879 33.0703 10.3145V9.07227H34.2539V10.3145ZM36.4043 9.66406H30.4922V8.44531H36.4043V9.66406ZM38.7305 18.0781H37.2305V7.40234H38.7305V18.0781ZM40.3125 12.7344H38.4023V11.4863H40.3125V12.7344ZM48.7207 10.1152H45.5566V8.91406H48.7207V10.1152ZM48.7207 12.6934H45.5566V11.498H48.7207V12.6934ZM49.6758 15.2246H48.1875V7.42578H49.6758V15.2246ZM49.9336 17.8965H42.5977V16.6895H49.9336V17.8965ZM44.0977 17.3047H42.5977V14.4336H44.0977V17.3047ZM43.6641 8.04102C44.1836 8.04102 44.6562 8.16211 45.082 8.4043C45.5117 8.64258 45.8535 8.97266 46.1074 9.39453C46.3613 9.8125 46.4883 10.2852 46.4883 10.8125C46.4883 11.332 46.3613 11.8008 46.1074 12.2188C45.8535 12.6367 45.5117 12.9668 45.082 13.209C44.6523 13.4473 44.1797 13.5664 43.6641 13.5664C43.1289 13.5664 42.6445 13.4473 42.2109 13.209C41.7812 12.9668 41.4414 12.6367 41.1914 12.2188C40.9453 11.8008 40.8223 11.332 40.8223 10.8125C40.8223 10.2852 40.9453 9.81055 41.1914 9.38867C41.4414 8.9668 41.7812 8.63672 42.2109 8.39844C42.6445 8.16016 43.1289 8.04102 43.6641 8.04102ZM43.6641 9.37109C43.3867 9.36719 43.1406 9.42383 42.9258 9.54102C42.7109 9.6543 42.543 9.82031 42.4219 10.0391C42.3008 10.2578 42.2402 10.5156 42.2402 10.8125C42.2402 11.1016 42.3008 11.3535 42.4219 11.5684C42.543 11.7832 42.7109 11.9492 42.9258 12.0664C43.1406 12.1797 43.3867 12.2383 43.6641 12.2422C43.9258 12.2383 44.1621 12.1797 44.373 12.0664C44.5879 11.9492 44.7559 11.7832 44.877 11.5684C44.998 11.3535 45.0586 11.1016 45.0586 10.8125C45.0586 10.5156 44.998 10.2578 44.877 10.0391C44.7559 9.82031 44.5879 9.6543 44.373 9.54102C44.1621 9.42383 43.9258 9.36719 43.6641 9.37109Z" fill="white"/>
<path d="M15.4169 5.74079C16.2659 4.80726 17.7341 4.80726 18.5831 5.74079C19.0566 6.26152 19.756 6.51606 20.4534 6.42155C21.7038 6.25212 22.8286 7.19588 22.8788 8.45669C22.9069 9.15998 23.279 9.80451 23.874 10.1804C24.9408 10.8544 25.1957 12.3003 24.4238 13.2985C23.9932 13.8552 23.864 14.5882 24.0782 15.2586C24.4622 16.4606 23.7281 17.7321 22.4951 18.0006C21.8074 18.1503 21.2373 18.6287 20.9704 19.28C20.4919 20.4476 19.1122 20.9497 17.9952 20.3629C17.3721 20.0355 16.6279 20.0355 16.0048 20.3629C14.8878 20.9497 13.5081 20.4476 13.0296 19.28C12.7627 18.6287 12.1926 18.1503 11.5049 18.0006C10.2719 17.7321 9.53782 16.4606 9.92181 15.2586C10.136 14.5882 10.0068 13.8552 9.57617 13.2985C8.80425 12.3003 9.05921 10.8544 10.126 10.1804C10.721 9.80451 11.0931 9.15998 11.1212 8.45669C11.1714 7.19588 12.2962 6.25212 13.5466 6.42155C14.244 6.51606 14.9434 6.26152 15.4169 5.74079Z" fill="white"/>
<path d="M21 11C21 12.1046 20.1046 13 19 13C17.8954 13 17 12.1046 17 11C17 9.89543 17.8954 9 19 9C20.1046 9 21 9.89543 21 11Z" fill="#C7EEEE"/>
<path d="M15.0579 11.2626L12.1076 15.974C11.8412 16.3995 12.0999 17 12.5497 17H18.4503C18.9001 17 19.1588 16.3995 18.8924 15.974L15.9421 11.2626C15.7228 10.9125 15.2772 10.9125 15.0579 11.2626Z" fill="#C7EEEE"/>
<path d="M17.04 10.2523L13.1161 15.9908C12.8317 16.4066 13.1022 17 13.5761 17H21.4239C21.8978 17 22.1683 16.4066 21.8839 15.9908L17.96 10.2523C17.73 9.9159 17.27 9.9159 17.04 10.2523Z" fill="#63CBC2"/>
</svg>
