<svg width="42" height="11" viewBox="0 0 42 11" fill="none" xmlns="http://www.w3.org/2000/svg">
<path d="M40.0393 3.41247C40.1783 3.42115 40.2998 3.45588 40.404 3.51666C40.5082 3.56876 40.582 3.66862 40.6254 3.81623C40.721 4.15487 40.6081 4.38932 40.2868 4.51956C40.1826 4.56298 40.0741 4.58903 39.9612 4.59771C39.857 4.6064 39.7571 4.61074 39.6616 4.61074H33.7093C33.5357 4.61074 33.3533 4.61074 33.1623 4.61074C32.98 4.61074 32.7933 4.6064 32.6022 4.59771C32.4199 4.58035 32.2636 4.51088 32.1333 4.38932C32.0118 4.25907 31.9423 4.08975 31.925 3.88136C31.9076 3.72506 31.8989 3.56442 31.8989 3.39944C31.8989 3.22578 31.8989 3.07817 31.8989 2.9566C31.8989 2.93924 31.8946 2.91753 31.8859 2.89148C31.8859 2.86543 31.8859 2.84372 31.8859 2.82636C31.8859 2.73084 31.8902 2.61362 31.8989 2.47469C31.9076 2.32708 31.951 2.20551 32.0292 2.11C32.1507 1.97107 32.3114 1.88858 32.5111 1.86253C32.7108 1.8278 32.9061 1.81043 33.0972 1.81043H37.9293C38.0856 1.81043 38.2072 1.81043 38.294 1.81043C38.3809 1.81043 38.459 1.81043 38.5285 1.81043C38.5979 1.81043 38.6674 1.81043 38.7369 1.81043C38.8063 1.81043 38.8932 1.81043 38.9974 1.81043C38.9974 1.79306 38.9974 1.75833 38.9974 1.70623C39.006 1.64545 39.0104 1.58901 39.0104 1.53691C39.0191 1.47613 39.0234 1.42403 39.0234 1.38062C39.0234 1.32852 39.0147 1.30247 38.9974 1.30247H33.4228C33.3794 1.30247 33.3316 1.30247 33.2795 1.30247C33.2361 1.29378 33.1883 1.29378 33.1362 1.30247H32.8237C32.7368 1.30247 32.6587 1.30247 32.5892 1.30247C32.5197 1.30247 32.4503 1.29378 32.3808 1.27642C32.3027 1.25905 32.2289 1.233 32.1594 1.19827C32.0899 1.15486 32.0335 1.09841 31.9901 1.02895C31.9553 0.950802 31.9336 0.868312 31.925 0.781481C31.925 0.69465 31.925 0.61216 31.925 0.534012C31.925 0.455864 31.9467 0.382057 31.9901 0.312592C32.0422 0.243127 32.0986 0.186687 32.1594 0.143271C32.2289 0.0998556 32.2983 0.0738064 32.3678 0.0651233C32.4373 0.0564403 32.5154 0.0434156 32.6022 0.026049C32.6717 0.00868301 32.7412 0.0043415 32.8106 0.0130245C32.8801 0.0217075 32.9496 0.0217075 33.019 0.0130245C33.0972 0.0043415 33.171 0 33.2404 0C33.3186 0 33.3967 0 33.4749 0C33.7441 0.00868301 34.0871 0.0130245 34.5038 0.0130245C34.9206 0.0043415 35.3244 0 35.7151 0H39.2709C39.7137 0 40.0524 0.0738066 40.2868 0.22142C40.5212 0.36035 40.6385 0.594794 40.6385 0.924752V1.83648C40.6385 1.91463 40.6385 2.00146 40.6385 2.09697C40.6471 2.1838 40.6428 2.27498 40.6254 2.37049C40.6168 2.45732 40.5951 2.53981 40.5603 2.61796C40.5256 2.69611 40.4691 2.75689 40.391 2.80031C40.2607 2.86977 40.1088 2.90885 39.9351 2.91753C39.7702 2.91753 39.6139 2.91753 39.4662 2.91753H33.4879V3.39944H39.6095C39.679 3.39944 39.7484 3.39944 39.8179 3.39944C39.8961 3.39944 39.9699 3.40378 40.0393 3.41247ZM32.3027 10.4588C32.294 10.4588 32.281 10.4501 32.2636 10.4328C32.1768 10.3633 32.116 10.2678 32.0813 10.1462C32.0552 10.0247 32.0422 9.91612 32.0422 9.82061C32.0335 9.66431 32.0205 9.50802 32.0031 9.35172C31.9944 9.19543 31.9901 9.04347 31.9901 8.89586C31.9901 8.6701 31.9901 8.46604 31.9901 8.2837C31.9901 8.10135 32.0118 7.90164 32.0552 7.68456C32.0813 7.54563 32.1247 7.43709 32.1854 7.35894C32.2462 7.27211 32.3417 7.20265 32.472 7.15055C32.7151 7.05504 32.9582 7.00728 33.2014 7.00728H39.2058C39.3707 7.01596 39.54 7.02899 39.7137 7.04635C39.8874 7.06372 40.0524 7.10713 40.2087 7.1766C40.3823 7.24606 40.4952 7.34592 40.5473 7.47617C40.6081 7.59773 40.6472 7.74534 40.6645 7.91901C40.6732 8.06662 40.6775 8.23594 40.6775 8.42697C40.6862 8.618 40.6862 8.81337 40.6775 9.01308C40.6689 9.20411 40.6558 9.39514 40.6385 9.58617C40.6211 9.77719 40.5907 9.95086 40.5473 10.1072C40.5212 10.2027 40.4909 10.2852 40.4561 10.3546C40.4214 10.4328 40.3519 10.4892 40.2477 10.5239C40.1522 10.5587 40.0524 10.5804 39.9482 10.5891C39.8526 10.5977 39.7571 10.6021 39.6616 10.6021L33.006 10.576C32.8931 10.5674 32.7716 10.563 32.6413 10.563C32.5111 10.563 32.3982 10.5283 32.3027 10.4588ZM39.7398 5.07963C39.8874 5.07963 40.0437 5.07963 40.2087 5.07963C40.3823 5.07094 40.5386 5.08831 40.6775 5.13172C40.8252 5.16646 40.9424 5.24026 41.0292 5.35314C41.1247 5.46602 41.1725 5.63969 41.1725 5.87413C41.1725 6.08253 41.0856 6.26487 40.912 6.42117C40.7731 6.54273 40.6037 6.6122 40.404 6.62956C40.213 6.63825 40.0306 6.63825 39.857 6.62956C39.8136 6.62088 39.7745 6.61654 39.7398 6.61654C39.705 6.61654 39.666 6.61654 39.6225 6.61654H32.4459C32.4373 6.61654 32.3982 6.61654 32.3287 6.61654C32.2593 6.61654 32.1768 6.60786 32.0813 6.59049C31.9944 6.57312 31.9032 6.55141 31.8077 6.52537C31.7122 6.49063 31.6341 6.43853 31.5733 6.36907C31.4691 6.25619 31.417 6.10423 31.417 5.91321C31.417 5.73086 31.4734 5.58325 31.5863 5.47037C31.6992 5.36617 31.8164 5.27934 31.938 5.20987C32.0595 5.14041 32.1854 5.09699 32.3157 5.07963C32.3417 5.07963 32.3678 5.08397 32.3938 5.09265C32.4199 5.09265 32.4459 5.08831 32.472 5.07963C32.5936 5.06226 32.7238 5.06226 32.8627 5.07963C33.0017 5.08831 33.1449 5.08831 33.2925 5.07963C33.7441 5.06226 34.1999 5.05792 34.6601 5.0666C35.129 5.07528 35.6153 5.07963 36.1189 5.07963C36.6659 5.07963 37.2477 5.07528 37.8642 5.0666C38.4807 5.05792 39.0842 5.06226 39.6746 5.07963H39.7398ZM33.54 8.974C33.54 9.01742 33.54 9.06084 33.54 9.10425C33.5487 9.14767 33.5661 9.17806 33.5921 9.19543C33.6095 9.21279 33.6355 9.22582 33.6703 9.2345C33.7137 9.2345 33.7571 9.2345 33.8005 9.2345C33.8439 9.2345 33.896 9.23016 33.9568 9.22147H37.9033C38.0248 9.23016 38.1421 9.23884 38.255 9.24752C38.3505 9.25621 38.4503 9.26055 38.5545 9.26055C38.6587 9.26055 38.7542 9.25187 38.8411 9.2345C38.9279 9.22582 38.98 9.19977 38.9974 9.15635C39.0147 9.11294 39.0277 9.05215 39.0364 8.974C39.0451 8.90454 39.0495 8.82639 39.0495 8.73956C39.0495 8.64405 39.0234 8.56156 38.9713 8.49209C38.9105 8.42263 38.8237 8.38789 38.7108 8.38789C38.6066 8.37921 38.5111 8.37921 38.4243 8.38789H34.9337C34.7426 8.37053 34.5559 8.36619 34.3736 8.37487C34.1913 8.37487 34.0046 8.37921 33.8135 8.38789C33.7441 8.38789 33.6876 8.39224 33.6442 8.40092C33.6095 8.40092 33.5834 8.43999 33.5661 8.51814C33.5487 8.57892 33.54 8.6397 33.54 8.70049C33.54 8.75259 33.54 8.80468 33.54 8.85678C33.5487 8.87415 33.5487 8.89152 33.54 8.90888C33.54 8.92625 33.54 8.94796 33.54 8.974Z" fill="#E9534C"/>
<path d="M29.7826 8.30975C29.8086 8.31844 29.8347 8.32278 29.8607 8.32278C29.8868 8.31409 29.9128 8.30975 29.9389 8.30975C30.0865 8.32712 30.2211 8.35751 30.3427 8.40092C30.4729 8.43566 30.5988 8.50512 30.7204 8.60932C30.8419 8.73088 30.9027 8.88284 30.9027 9.06518C30.9027 9.1607 30.8853 9.2649 30.8506 9.37778C30.8246 9.48197 30.7855 9.56446 30.7334 9.62524C30.6639 9.69471 30.5771 9.74681 30.4729 9.78154C30.3687 9.81627 30.2688 9.84232 30.1733 9.85969C30.0778 9.86837 29.991 9.87271 29.9128 9.87271C29.8434 9.87271 29.8043 9.87271 29.7956 9.87271H22.5018C22.4584 9.87271 22.415 9.87705 22.3715 9.88574C22.3281 9.88574 22.2847 9.88574 22.2413 9.88574C22.059 9.89442 21.8636 9.89442 21.6552 9.88574C21.4468 9.86837 21.2688 9.79891 21.1212 9.67734C20.9388 9.51236 20.8477 9.32568 20.8477 9.11728C20.8477 8.98703 20.8867 8.85245 20.9649 8.71352C21.043 8.57459 21.1472 8.47907 21.2775 8.42697C21.4511 8.35751 21.6291 8.32278 21.8115 8.32278C22.0025 8.32278 22.1935 8.31844 22.3846 8.30975H22.4497C23.2051 8.29239 23.9823 8.29239 24.7811 8.30975L24.7681 6.40815C24.5076 6.39078 24.2514 6.36039 23.9996 6.31698C23.7478 6.27356 23.5047 6.20409 23.2702 6.10858C23.0358 6.01307 22.8144 5.8915 22.606 5.74389C22.4063 5.58759 22.2283 5.39656 22.072 5.1708C21.8723 4.90163 21.7377 4.61508 21.6682 4.31117C21.6074 4.00727 21.577 3.69033 21.577 3.36037C21.577 2.68309 21.755 2.11869 22.111 1.66716C22.4757 1.20696 22.9707 0.877 23.5959 0.677288C24.0127 0.538359 24.4338 0.451527 24.8593 0.416795C25.2934 0.373379 25.7276 0.369038 26.1617 0.40377C26.5177 0.429819 26.8737 0.464552 27.2298 0.507967C27.5858 0.551383 27.9287 0.646897 28.2587 0.79451C28.4063 0.863975 28.5496 0.946465 28.6885 1.04198C28.8274 1.13749 28.9577 1.25037 29.0793 1.38062C29.3832 1.71058 29.5916 2.06659 29.7044 2.44865C29.8173 2.8307 29.8564 3.23881 29.8217 3.67297C29.7869 4.1679 29.6697 4.58903 29.47 4.93636C29.2703 5.275 29.0141 5.5572 28.7015 5.78296C28.3976 6.00004 28.046 6.16068 27.6465 6.26488C27.2558 6.36907 26.8477 6.42117 26.4222 6.42117L26.4483 8.30975C26.6914 8.30975 26.9128 8.30975 27.1125 8.30975C27.3122 8.30107 27.5076 8.29673 27.6986 8.29673C27.8897 8.29673 28.0807 8.29673 28.2717 8.29673C28.4628 8.29673 28.6711 8.30107 28.8969 8.30975C29.0532 8.31844 29.2052 8.31844 29.3528 8.30975C29.5004 8.29239 29.6437 8.29239 29.7826 8.30975ZM28.1154 3.86834C28.1415 3.75545 28.1502 3.64692 28.1415 3.54272C28.1241 3.0912 27.9808 2.7569 27.7117 2.53982C27.4512 2.31406 27.1125 2.17513 26.6957 2.12303C26.4526 2.09698 26.153 2.07093 25.797 2.04488C25.441 2.01015 25.0894 2.01883 24.742 2.07093C24.4034 2.12303 24.1038 2.23157 23.8433 2.39655C23.5828 2.55284 23.4265 2.80465 23.3744 3.15198C23.3484 3.36037 23.3484 3.56008 23.3744 3.75111C23.4092 3.94214 23.483 4.11146 23.5959 4.25908C23.7087 4.40669 23.865 4.53259 24.0648 4.63679C24.2645 4.74099 24.5206 4.80611 24.8332 4.83216C25.1371 4.86689 25.4454 4.89729 25.758 4.92334C26.0792 4.94938 26.3918 4.93202 26.6957 4.87124C26.8434 4.84519 26.991 4.81045 27.1386 4.76704C27.2949 4.71494 27.4381 4.64982 27.5684 4.57167C27.6986 4.49352 27.8115 4.39801 27.907 4.28513C28.0025 4.16356 28.072 4.02463 28.1154 3.86834Z" fill="#E9534C"/>
<path d="M19.1927 3.41247C19.3316 3.42115 19.4531 3.45588 19.5573 3.51666C19.6615 3.56876 19.7353 3.66862 19.7788 3.81623C19.8743 4.15487 19.7614 4.38932 19.4401 4.51956C19.3359 4.56298 19.2274 4.58903 19.1145 4.59771C19.0103 4.6064 18.9104 4.61074 18.8149 4.61074H12.8627C12.689 4.61074 12.5066 4.61074 12.3156 4.61074C12.1333 4.61074 11.9466 4.6064 11.7556 4.59771C11.5732 4.58035 11.4169 4.51088 11.2867 4.38932C11.1651 4.25907 11.0956 4.08975 11.0783 3.88136C11.0609 3.72506 11.0522 3.56442 11.0522 3.39944C11.0522 3.22578 11.0522 3.07817 11.0522 2.9566C11.0522 2.93924 11.0479 2.91753 11.0392 2.89148C11.0392 2.86543 11.0392 2.84372 11.0392 2.82636C11.0392 2.73084 11.0435 2.61362 11.0522 2.47469C11.0609 2.32708 11.1043 2.20551 11.1825 2.11C11.304 1.97107 11.4647 1.88858 11.6644 1.86253C11.8641 1.8278 12.0595 1.81043 12.2505 1.81043H17.0827C17.2389 1.81043 17.3605 1.81043 17.4473 1.81043C17.5342 1.81043 17.6123 1.81043 17.6818 1.81043C17.7513 1.81043 17.8207 1.81043 17.8902 1.81043C17.9596 1.81043 18.0465 1.81043 18.1507 1.81043C18.1507 1.79306 18.1507 1.75833 18.1507 1.70623C18.1594 1.64545 18.1637 1.58901 18.1637 1.53691C18.1724 1.47613 18.1767 1.42403 18.1767 1.38062C18.1767 1.32852 18.168 1.30247 18.1507 1.30247H12.5761C12.5327 1.30247 12.4849 1.30247 12.4328 1.30247C12.3894 1.29378 12.3417 1.29378 12.2896 1.30247H11.977C11.8901 1.30247 11.812 1.30247 11.7425 1.30247C11.6731 1.30247 11.6036 1.29378 11.5341 1.27642C11.456 1.25905 11.3822 1.233 11.3127 1.19827C11.2433 1.15486 11.1868 1.09841 11.1434 1.02895C11.1087 0.950802 11.087 0.868312 11.0783 0.781481C11.0783 0.69465 11.0783 0.61216 11.0783 0.534012C11.0783 0.455864 11.1 0.382057 11.1434 0.312592C11.1955 0.243127 11.2519 0.186687 11.3127 0.143271C11.3822 0.0998556 11.4516 0.0738064 11.5211 0.0651233C11.5906 0.0564403 11.6687 0.0434156 11.7556 0.026049C11.825 0.00868301 11.8945 0.0043415 11.964 0.0130245C12.0334 0.0217075 12.1029 0.0217075 12.1723 0.0130245C12.2505 0.0043415 12.3243 0 12.3938 0C12.4719 0 12.5501 0 12.6282 0C12.8974 0.00868301 13.2404 0.0130245 13.6572 0.0130245C14.074 0.0043415 14.4777 0 14.8685 0H18.4242C18.867 0 19.2057 0.0738066 19.4401 0.22142C19.6746 0.36035 19.7918 0.594794 19.7918 0.924752V1.83648C19.7918 1.91463 19.7918 2.00146 19.7918 2.09697C19.8005 2.1838 19.7961 2.27498 19.7788 2.37049C19.7701 2.45732 19.7484 2.53981 19.7136 2.61796C19.6789 2.69611 19.6225 2.75689 19.5443 2.80031C19.4141 2.86977 19.2621 2.90885 19.0885 2.91753C18.9235 2.91753 18.7672 2.91753 18.6196 2.91753H12.6412V3.39944H18.7628C18.8323 3.39944 18.9018 3.39944 18.9712 3.39944C19.0494 3.39944 19.1232 3.40378 19.1927 3.41247ZM11.456 10.4588C11.4473 10.4588 11.4343 10.4501 11.4169 10.4328C11.3301 10.3633 11.2693 10.2678 11.2346 10.1462C11.2085 10.0247 11.1955 9.91612 11.1955 9.82061C11.1868 9.66431 11.1738 9.50802 11.1564 9.35172C11.1477 9.19543 11.1434 9.04347 11.1434 8.89586C11.1434 8.6701 11.1434 8.46604 11.1434 8.2837C11.1434 8.10135 11.1651 7.90164 11.2085 7.68456C11.2346 7.54563 11.278 7.43709 11.3388 7.35894C11.3996 7.27211 11.4951 7.20265 11.6253 7.15055C11.8684 7.05504 12.1116 7.00728 12.3547 7.00728H18.3591C18.5241 7.01596 18.6934 7.02899 18.867 7.04635C19.0407 7.06372 19.2057 7.10713 19.362 7.1766C19.5356 7.24606 19.6485 7.34592 19.7006 7.47617C19.7614 7.59773 19.8005 7.74534 19.8178 7.91901C19.8265 8.06662 19.8309 8.23594 19.8309 8.42697C19.8395 8.618 19.8395 8.81337 19.8309 9.01308C19.8222 9.20411 19.8092 9.39514 19.7918 9.58617C19.7744 9.77719 19.744 9.95086 19.7006 10.1072C19.6746 10.2027 19.6442 10.2852 19.6094 10.3546C19.5747 10.4328 19.5052 10.4892 19.401 10.5239C19.3055 10.5587 19.2057 10.5804 19.1015 10.5891C19.006 10.5977 18.9104 10.6021 18.8149 10.6021L12.1593 10.576C12.0464 10.5674 11.9249 10.563 11.7946 10.563C11.6644 10.563 11.5515 10.5283 11.456 10.4588ZM18.8931 5.07963C19.0407 5.07963 19.197 5.07963 19.362 5.07963C19.5356 5.07094 19.6919 5.08831 19.8309 5.13172C19.9785 5.16646 20.0957 5.24026 20.1825 5.35314C20.278 5.46602 20.3258 5.63969 20.3258 5.87413C20.3258 6.08253 20.239 6.26487 20.0653 6.42117C19.9264 6.54273 19.7571 6.6122 19.5573 6.62956C19.3663 6.63825 19.184 6.63825 19.0103 6.62956C18.9669 6.62088 18.9278 6.61654 18.8931 6.61654C18.8584 6.61654 18.8193 6.61654 18.7759 6.61654H11.5993C11.5906 6.61654 11.5515 6.61654 11.482 6.61654C11.4126 6.61654 11.3301 6.60786 11.2346 6.59049C11.1477 6.57312 11.0566 6.55141 10.9611 6.52537C10.8655 6.49063 10.7874 6.43853 10.7266 6.36907C10.6224 6.25619 10.5703 6.10423 10.5703 5.91321C10.5703 5.73086 10.6268 5.58325 10.7396 5.47037C10.8525 5.36617 10.9697 5.27934 11.0913 5.20987C11.2129 5.14041 11.3388 5.09699 11.469 5.07963C11.4951 5.07963 11.5211 5.08397 11.5472 5.09265C11.5732 5.09265 11.5993 5.08831 11.6253 5.07963C11.7469 5.06226 11.8771 5.06226 12.0161 5.07963C12.155 5.08831 12.2983 5.08831 12.4459 5.07963C12.8974 5.06226 13.3533 5.05792 13.8135 5.0666C14.2823 5.07528 14.7686 5.07963 15.2722 5.07963C15.8193 5.07963 16.401 5.07528 17.0175 5.0666C17.634 5.05792 18.2375 5.06226 18.828 5.07963H18.8931ZM12.6933 8.974C12.6933 9.01742 12.6933 9.06084 12.6933 9.10425C12.702 9.14767 12.7194 9.17806 12.7454 9.19543C12.7628 9.21279 12.7888 9.22582 12.8236 9.2345C12.867 9.2345 12.9104 9.2345 12.9538 9.2345C12.9972 9.2345 13.0493 9.23016 13.1101 9.22147H17.0566C17.1782 9.23016 17.2954 9.23884 17.4083 9.24752C17.5038 9.25621 17.6036 9.26055 17.7078 9.26055C17.812 9.26055 17.9075 9.25187 17.9944 9.2345C18.0812 9.22582 18.1333 9.19977 18.1507 9.15635C18.168 9.11294 18.1811 9.05215 18.1898 8.974C18.1984 8.90454 18.2028 8.82639 18.2028 8.73956C18.2028 8.64405 18.1767 8.56156 18.1246 8.49209C18.0638 8.42263 17.977 8.38789 17.8641 8.38789C17.7599 8.37921 17.6644 8.37921 17.5776 8.38789H14.087C13.8959 8.37053 13.7093 8.36619 13.5269 8.37487C13.3446 8.37487 13.1579 8.37921 12.9669 8.38789C12.8974 8.38789 12.8409 8.39224 12.7975 8.40092C12.7628 8.40092 12.7368 8.43999 12.7194 8.51814C12.702 8.57892 12.6933 8.6397 12.6933 8.70049C12.6933 8.75259 12.6933 8.80468 12.6933 8.85678C12.702 8.87415 12.702 8.89152 12.6933 8.90888C12.6933 8.92625 12.6933 8.94796 12.6933 8.974Z" fill="#E9534C"/>
<path d="M8.93493 8.30975C8.96098 8.31844 8.98703 8.32278 9.01308 8.32278C9.03913 8.31409 9.06518 8.30975 9.09123 8.30975C9.23884 8.32712 9.37343 8.35751 9.49499 8.40092C9.62524 8.43566 9.75115 8.50512 9.87271 8.60932C9.99427 8.73088 10.0551 8.88284 10.0551 9.06518C10.0551 9.1607 10.0377 9.2649 10.003 9.37778C9.97691 9.48197 9.93783 9.56446 9.88573 9.62524C9.81627 9.69471 9.72944 9.74681 9.62524 9.78154C9.52104 9.81627 9.42119 9.84232 9.32567 9.85969C9.23016 9.86837 9.14333 9.87271 9.06518 9.87271C8.99571 9.87271 8.95664 9.87271 8.94796 9.87271H1.65413C1.61072 9.87271 1.5673 9.87705 1.52389 9.88574C1.48047 9.88574 1.43706 9.88574 1.39364 9.88574C1.2113 9.89442 1.01593 9.89442 0.80753 9.88574C0.599135 9.86837 0.421131 9.79891 0.273518 9.67734C0.0911728 9.51236 0 9.32568 0 9.11728C0 8.98703 0.0390741 8.85245 0.117222 8.71352C0.19537 8.57459 0.299568 8.47907 0.429815 8.42697C0.603477 8.35751 0.781481 8.32278 0.963826 8.32278C1.15486 8.32278 1.34588 8.31844 1.53691 8.30975H1.60204C2.35747 8.29239 3.13461 8.29239 3.93345 8.30975L3.92043 6.40815C3.65994 6.39078 3.40378 6.36039 3.15197 6.31698C2.90016 6.27356 2.65704 6.20409 2.42259 6.10858C2.18815 6.01307 1.96673 5.8915 1.75833 5.74389C1.55862 5.58759 1.38062 5.39656 1.22432 5.1708C1.02461 4.90163 0.89002 4.61508 0.820555 4.31117C0.759773 4.00727 0.729382 3.69033 0.729382 3.36037C0.729382 2.68309 0.907386 2.11869 1.26339 1.66716C1.62809 1.20696 2.12302 0.877 2.74821 0.677288C3.165 0.538359 3.58613 0.451527 4.0116 0.416795C4.44576 0.373379 4.87991 0.369038 5.31407 0.40377C5.67008 0.429819 6.02609 0.464552 6.38209 0.507967C6.7381 0.551383 7.08109 0.646897 7.41104 0.79451C7.55866 0.863975 7.70193 0.946465 7.84086 1.04198C7.97979 1.13749 8.11003 1.25037 8.2316 1.38062C8.53551 1.71058 8.7439 2.06659 8.85678 2.44865C8.96966 2.8307 9.00874 3.23881 8.97401 3.67297C8.93927 4.1679 8.82205 4.58903 8.62234 4.93636C8.42263 5.275 8.16648 5.5572 7.85388 5.78296C7.54997 6.00004 7.19831 6.16068 6.79888 6.26488C6.40814 6.36907 6.00004 6.42117 5.57456 6.42117L5.60061 8.30975C5.84374 8.30975 6.06516 8.30975 6.26487 8.30975C6.46458 8.30107 6.65995 8.29673 6.85098 8.29673C7.04201 8.29673 7.23304 8.29673 7.42407 8.29673C7.6151 8.29673 7.82349 8.30107 8.04925 8.30975C8.20555 8.31844 8.3575 8.31844 8.50512 8.30975C8.65273 8.29239 8.796 8.29239 8.93493 8.30975ZM7.26777 3.86834C7.29382 3.75545 7.3025 3.64692 7.29382 3.54272C7.27646 3.0912 7.13318 2.7569 6.86401 2.53982C6.60351 2.31406 6.26487 2.17513 5.84808 2.12303C5.60496 2.09698 5.30539 2.07093 4.94938 2.04488C4.59337 2.01015 4.2417 2.01883 3.89438 2.07093C3.55574 2.12303 3.25617 2.23157 2.99568 2.39655C2.73518 2.55284 2.57889 2.80465 2.52679 3.15198C2.50074 3.36037 2.50074 3.56008 2.52679 3.75111C2.56152 3.94214 2.63533 4.11146 2.74821 4.25908C2.86109 4.40669 3.01738 4.53259 3.2171 4.63679C3.41681 4.74099 3.67296 4.80611 3.98555 4.83216C4.28946 4.86689 4.59771 4.89729 4.91031 4.92334C5.23158 4.94938 5.54417 4.93202 5.84808 4.87124C5.9957 4.84519 6.14331 4.81045 6.29092 4.76704C6.44722 4.71494 6.59049 4.64982 6.72074 4.57167C6.85098 4.49352 6.96386 4.39801 7.05938 4.28513C7.15489 4.16356 7.22436 4.02463 7.26777 3.86834Z" fill="#E9534C"/>
</svg>
