<svg width="18" height="24" viewBox="0 0 18 24" fill="none" xmlns="http://www.w3.org/2000/svg">
<path d="M11.2158 0C11.9803 0.000235981 12.5996 0.620209 12.5996 1.38477C12.5996 1.54659 12.5706 1.70135 12.5195 1.8457H15C16.6567 1.8457 17.9998 3.18906 18 4.8457V21C18 22.6569 16.6569 24 15 24H3C1.34315 24 0 22.6569 0 21V4.8457C0.000241707 3.18905 1.34329 1.8457 3 1.8457H5.48047C5.42943 1.70135 5.40041 1.54659 5.40039 1.38477C5.40039 0.620209 6.01968 0.000235518 6.78418 0H11.2158ZM4.52344 16.6152C4.01375 16.6152 3.5998 17.0284 3.59961 17.5381C3.59961 18.0479 4.01364 18.4619 4.52344 18.4619H13.4766C13.9864 18.4619 14.4004 18.0479 14.4004 17.5381C14.4002 17.0284 13.9862 16.6152 13.4766 16.6152H4.52344ZM4.52344 12C4.01371 12 3.59973 12.4132 3.59961 12.9229C3.59961 13.4327 4.01364 13.8457 4.52344 13.8457H11.6768C12.1866 13.8457 12.5996 13.4327 12.5996 12.9229C12.5995 12.4132 12.1865 12 11.6768 12H4.52344ZM4.52344 7.38477C4.01367 7.38477 3.59967 7.79786 3.59961 8.30762C3.59961 8.81742 4.01364 9.23047 4.52344 9.23047H13.4766C13.9864 9.23047 14.4004 8.81742 14.4004 8.30762C14.4003 7.79786 13.9863 7.38477 13.4766 7.38477H4.52344Z" fill="#D8D8D8"/>
</svg>
