<svg width="24" height="24" viewBox="0 0 24 24" fill="none" xmlns="http://www.w3.org/2000/svg">
<path d="M13.5264 0C14.6309 0 15.5264 0.895431 15.5264 2V2.56543C15.7458 2.64749 15.961 2.73834 16.1729 2.83496L16.5723 2.43652C17.3533 1.65585 18.6194 1.65574 19.4004 2.43652L21.5566 4.59277C22.3374 5.37373 22.3373 6.63988 21.5566 7.4209L21.1602 7.81641C21.2588 8.03202 21.351 8.25114 21.4346 8.47461H22.001C23.1054 8.47463 24.0007 9.37028 24.001 10.4746V13.5244C24.0008 14.6288 23.1054 15.5244 22.001 15.5244H21.4346C21.3512 15.7473 21.2585 15.9656 21.1602 16.1807L21.5576 16.5781C22.3387 17.3592 22.3387 18.6262 21.5576 19.4072L19.4014 21.5625C18.6203 22.3435 17.3543 22.3435 16.5732 21.5625L16.1729 21.1631C15.9609 21.2597 15.7458 21.3505 15.5264 21.4326V22C15.5264 23.1046 14.6309 24 13.5264 24H10.4775C9.37297 24 8.47754 23.1046 8.47754 22V21.4336C8.25376 21.35 8.03427 21.2579 7.81836 21.1592L7.41699 21.5615C6.63594 22.3426 5.36992 22.3426 4.58887 21.5615L2.43262 19.4062C1.65157 18.6252 1.65157 17.3582 2.43262 16.5771L2.83594 16.1729C2.73905 15.9604 2.64865 15.7445 2.56641 15.5244H2C0.895556 15.5244 0.000202983 14.6288 0 13.5244V10.4756C4.82823e-08 9.37102 0.895431 8.47461 2 8.47461H2.56641C2.64876 8.2543 2.7389 8.03789 2.83594 7.8252L2.43164 7.4209C1.65093 6.63988 1.65084 5.37374 2.43164 4.59277L4.58789 2.43652C5.36886 1.65574 6.635 1.65582 7.41602 2.43652L7.81836 2.83887C8.03425 2.74015 8.25378 2.64804 8.47754 2.56445V2C8.47754 0.895431 9.37297 0 10.4775 0H13.5264ZM12 6.46191C8.94137 6.46211 6.46191 8.94132 6.46191 12C6.46198 15.0586 8.94141 17.5379 12 17.5381C15.0588 17.5381 17.539 15.0587 17.5391 12C17.5391 8.9412 15.0588 6.46191 12 6.46191Z" fill="#E9534C"/>
</svg>
