<svg width="24" height="24" viewBox="0 0 24 24" fill="none" xmlns="http://www.w3.org/2000/svg">
<path d="M9.88925 2.32105C11.0212 1.07635 12.9788 1.07635 14.1107 2.32105V2.32105C14.7421 3.01535 15.6746 3.35475 16.6046 3.22873V3.22873C18.2718 3.00282 19.7714 4.26118 19.8384 5.94225V5.94225C19.8758 6.87998 20.372 7.73935 21.1654 8.24059V8.24059C22.5877 9.13917 22.9277 11.0671 21.8984 12.3979V12.3979C21.3243 13.1403 21.152 14.1176 21.4376 15.0115V15.0115C21.9496 16.6141 20.9707 18.3095 19.3268 18.6674V18.6674C18.4099 18.8671 17.6497 19.5049 17.2938 20.3733V20.3733C16.6559 21.9301 14.8163 22.5997 13.3269 21.8172V21.8172C12.4962 21.3807 11.5038 21.3807 10.6731 21.8172V21.8172C9.18369 22.5997 7.34409 21.9301 6.70615 20.3733V20.3733C6.3503 19.5049 5.59014 18.8671 4.67315 18.6674V18.6674C3.02926 18.3095 2.05043 16.6141 2.56241 15.0115V15.0115C2.848 14.1176 2.67568 13.1403 2.10157 12.3979V12.3979C1.07234 11.0671 1.41228 9.13917 2.83462 8.24059V8.24059C3.62802 7.73935 4.12418 6.87998 4.16156 5.94225V5.94225C4.22859 4.26118 5.72824 3.00282 7.39541 3.22873V3.22873C8.32539 3.35475 9.25786 3.01535 9.88925 2.32105V2.32105Z" fill="#4C71E9"/>
<path d="M8.30762 12.4615L11.8011 15.6923L15.2307 8.30768" stroke="white" stroke-width="2" stroke-linecap="round" stroke-linejoin="round"/>
</svg>
