<svg width="20" height="20" viewBox="0 0 20 20" fill="none" xmlns="http://www.w3.org/2000/svg">
<path d="M8.24104 1.93421C9.18431 0.89696 10.8157 0.89696 11.759 1.93421C12.2851 2.5128 13.0622 2.79562 13.8372 2.69061C15.2265 2.50235 16.4762 3.55098 16.532 4.95188C16.5632 5.73332 16.9767 6.44946 17.6378 6.86716C18.8231 7.61598 19.1064 9.22257 18.2487 10.3316C17.7703 10.9503 17.6267 11.7646 17.8647 12.5096C18.2913 13.8451 17.4756 15.2579 16.1057 15.5562C15.3415 15.7226 14.7081 16.2541 14.4115 16.9778C13.8799 18.2751 12.3469 18.833 11.1058 18.181C10.4135 17.8172 9.58654 17.8172 8.89421 18.181C7.65308 18.833 6.12008 18.2751 5.58846 16.9778C5.29191 16.2541 4.65845 15.7226 3.89429 15.5562C2.52438 15.2579 1.70869 13.8451 2.13534 12.5096C2.37333 11.7646 2.22974 10.9503 1.7513 10.3316C0.893613 9.22257 1.1769 7.61598 2.36218 6.86716C3.02335 6.44946 3.43681 5.73332 3.46797 4.95188C3.52382 3.55098 4.77353 2.50235 6.16285 2.69061C6.93782 2.79562 7.71488 2.5128 8.24104 1.93421Z" fill="white"/>
<path d="M6.92285 10.3846L9.83409 13.0769L12.6921 6.9231" stroke="#D8D8D8" stroke-width="2" stroke-linecap="round" stroke-linejoin="round"/>
</svg>
