<svg width="36" height="44" viewBox="0 0 36 44" fill="none" xmlns="http://www.w3.org/2000/svg">
<rect width="36" height="36" rx="18" fill="#D8D8D8"/>
<path d="M16.241 9.93421C17.1843 8.89696 18.8157 8.89696 19.759 9.93421C20.2851 10.5128 21.0622 10.7956 21.8372 10.6906C23.2265 10.5024 24.4762 11.551 24.532 12.9519C24.5632 13.7333 24.9767 14.4495 25.6378 14.8672C26.8231 15.616 27.1064 17.2226 26.2487 18.3316C25.7703 18.9503 25.6267 19.7646 25.8647 20.5096C26.2913 21.8451 25.4756 23.2579 24.1057 23.5562C23.3415 23.7226 22.7081 24.2541 22.4115 24.9778C21.8799 26.2751 20.3469 26.833 19.1058 26.181C18.4135 25.8172 17.5865 25.8172 16.8942 26.181C15.6531 26.833 14.1201 26.2751 13.5885 24.9778C13.2919 24.2541 12.6585 23.7226 11.8943 23.5562C10.5244 23.2579 9.70869 21.8451 10.1353 20.5096C10.3733 19.7646 10.2297 18.9503 9.7513 18.3316C8.89361 17.2226 9.1769 15.616 10.3622 14.8672C11.0234 14.4495 11.4368 13.7333 11.468 12.9519C11.5238 11.551 12.7735 10.5024 14.1628 10.6906C14.9378 10.7956 15.7149 10.5128 16.241 9.93421Z" fill="white"/>
<path d="M14.9229 18.3846L17.8341 21.0769L20.6921 14.9231" stroke="#D8D8D8" stroke-width="2" stroke-linecap="round" stroke-linejoin="round"/>
<path d="M16.5344 42.4217L5 30H31L19.4656 42.4217C18.6743 43.2738 17.3257 43.2738 16.5344 42.4217Z" fill="#D8D8D8"/>
</svg>
