<svg width="91" height="26" viewBox="0 0 91 26" fill="none" xmlns="http://www.w3.org/2000/svg">
<path d="M0 2C0 0.89543 0.895431 0 2 0H87.2018C88.8114 0 89.7616 1.80455 88.8508 3.13169L82.8551 11.8683C82.3871 12.5502 82.3871 13.4498 82.8551 14.1317L88.8508 22.8683C89.7616 24.1955 88.8114 26 87.2018 26H2C0.89543 26 0 25.1046 0 24V2Z" fill="#E9534C"/>
<path d="M38.0859 10.8066H35.1152V9.60547H38.0859V10.8066ZM38.0859 14.1113H35.1152V12.9102H38.0859V14.1113ZM33.2578 8.1582C33.7891 8.1582 34.2637 8.31445 34.6816 8.62695C35.0996 8.93945 35.4258 9.38281 35.6602 9.95703C35.8984 10.5312 36.0176 11.1992 36.0176 11.9609C36.0176 12.7266 35.8984 13.3965 35.6602 13.9707C35.4258 14.5449 35.0996 14.9883 34.6816 15.3008C34.2637 15.6094 33.7891 15.7637 33.2578 15.7637C32.7227 15.7637 32.2441 15.6094 31.8223 15.3008C31.4043 14.9922 31.0762 14.5508 30.8379 13.9766C30.5996 13.3984 30.4805 12.7266 30.4805 11.9609C30.4805 11.1992 30.5996 10.5312 30.8379 9.95703C31.0762 9.38281 31.4043 8.93945 31.8223 8.62695C32.2441 8.31445 32.7227 8.1582 33.2578 8.1582ZM33.2578 9.51172C32.9922 9.50781 32.7559 9.60156 32.5488 9.79297C32.3457 9.98438 32.1895 10.2637 32.0801 10.6309C31.9746 10.998 31.9219 11.4414 31.9219 11.9609C31.9219 12.4805 31.9746 12.9238 32.0801 13.291C32.1895 13.6582 32.3457 13.9375 32.5488 14.1289C32.7559 14.3164 32.9922 14.4102 33.2578 14.4102C33.5273 14.4102 33.7637 14.3164 33.9668 14.1289C34.1699 13.9375 34.3262 13.6582 34.4355 13.291C34.5449 12.9238 34.5996 12.4805 34.5996 11.9609C34.5996 11.4375 34.543 10.9922 34.4297 10.625C34.3203 10.2578 34.166 9.98047 33.9668 9.79297C33.7676 9.60156 33.5312 9.50781 33.2578 9.51172ZM39.3164 18.1074H37.834V7.40234H39.3164V18.1074ZM49.8516 14.0938H48.4277V7.40234H49.8516V14.0938ZM48.8086 11.2754H47.0625V10.0566H48.8086V11.2754ZM47.5781 13.748H46.1836V7.60742H47.5781V13.748ZM45.8672 9.66992H40.6348V8.50391H45.8672V9.66992ZM43.2656 10.0332C43.7148 10.0332 44.1152 10.1094 44.4668 10.2617C44.8223 10.4141 45.0996 10.6328 45.2988 10.918C45.498 11.1992 45.5977 11.5254 45.5977 11.8965C45.5977 12.2559 45.498 12.5762 45.2988 12.8574C45.0996 13.1348 44.8223 13.3516 44.4668 13.5078C44.1152 13.6602 43.7148 13.7363 43.2656 13.7363C42.8281 13.7363 42.4336 13.6602 42.082 13.5078C41.7305 13.3516 41.4551 13.1348 41.2559 12.8574C41.0566 12.5762 40.957 12.2559 40.957 11.8965C40.957 11.5254 41.0566 11.1992 41.2559 10.918C41.4551 10.6328 41.7285 10.4141 42.0762 10.2617C42.4277 10.1094 42.8242 10.0332 43.2656 10.0332ZM43.2656 11.1055C43.0742 11.1016 42.9043 11.1309 42.7559 11.1934C42.6113 11.2559 42.498 11.3477 42.416 11.4688C42.334 11.5859 42.293 11.7285 42.293 11.8965C42.293 12.0527 42.334 12.1914 42.416 12.3125C42.498 12.4297 42.6113 12.5215 42.7559 12.5879C42.9043 12.6504 43.0742 12.6816 43.2656 12.6816C43.4609 12.6816 43.6328 12.6504 43.7812 12.5879C43.9297 12.5215 44.0449 12.4297 44.127 12.3125C44.209 12.1914 44.25 12.0527 44.25 11.8965C44.25 11.7285 44.209 11.5859 44.127 11.4688C44.0449 11.3477 43.9297 11.2559 43.7812 11.1934C43.6328 11.1309 43.4609 11.1016 43.2656 11.1055ZM44.0039 9.3125H42.5098V7.50781H44.0039V9.3125ZM46.207 14.2051C46.9766 14.2051 47.6387 14.2812 48.1934 14.4336C48.748 14.582 49.1719 14.8027 49.4648 15.0957C49.7578 15.3848 49.9043 15.7344 49.9043 16.1445C49.9043 16.5508 49.7578 16.8984 49.4648 17.1875C49.1719 17.4766 48.7461 17.6973 48.1875 17.8496C47.6328 18.002 46.9727 18.0781 46.207 18.0781C45.4453 18.0781 44.7871 18.002 44.2324 17.8496C43.6777 17.6973 43.252 17.4766 42.9551 17.1875C42.6621 16.8984 42.5156 16.5508 42.5156 16.1445C42.5156 15.7344 42.6621 15.3848 42.9551 15.0957C43.252 14.8027 43.6777 14.582 44.2324 14.4336C44.7871 14.2812 45.4453 14.2051 46.207 14.2051ZM46.207 15.3242C45.7227 15.3203 45.3184 15.3477 44.9941 15.4062C44.6699 15.4648 44.4258 15.5566 44.2617 15.6816C44.0977 15.8066 44.0156 15.9609 44.0156 16.1445C44.0156 16.3242 44.0977 16.4746 44.2617 16.5957C44.4258 16.7129 44.6699 16.8027 44.9941 16.8652C45.3223 16.9238 45.7266 16.9531 46.207 16.9531C46.6992 16.9531 47.1055 16.9238 47.4258 16.8652C47.75 16.8027 47.9941 16.7129 48.1582 16.5957C48.3223 16.4746 48.4043 16.3242 48.4043 16.1445C48.4043 15.957 48.3223 15.8027 48.1582 15.6816C47.9941 15.5566 47.75 15.4648 47.4258 15.4062C47.1055 15.3477 46.6992 15.3203 46.207 15.3242ZM61.7109 9.50586H54.9492V8.30469H61.7109V9.50586ZM63.5684 16.8477H53.8418V15.6289H63.5684V16.8477ZM62.5957 9.24805C62.5879 9.92773 62.5781 10.4727 62.5664 10.8828C62.5547 11.2891 62.5137 11.791 62.4434 12.3887C62.373 12.9863 62.2598 13.6387 62.1035 14.3457L60.6445 14.2051C60.793 13.5332 60.9023 12.9043 60.9727 12.3184C61.043 11.7285 61.084 11.2129 61.0957 10.7715C61.1113 10.3262 61.1191 9.81836 61.1191 9.24805V8.30469H62.5957V9.24805ZM54.8086 12.3711L54.5977 11.0938L61.4062 10.8652V11.9961L54.8086 12.3711ZM58.8047 16.0684H57.3223V13.0566H58.8047V16.0684ZM69.5391 8.81445C69.5391 9.58789 69.3574 10.3125 68.9941 10.9883C68.6309 11.6641 68.1133 12.2422 67.4414 12.7227C66.7734 13.1992 65.9902 13.5273 65.0918 13.707L64.4531 12.4648C65.2188 12.3203 65.8867 12.0605 66.457 11.6855C67.0312 11.3105 67.4688 10.8711 67.7695 10.3672C68.0742 9.86328 68.2266 9.3457 68.2266 8.81445V8.05273H69.5391V8.81445ZM69.8145 8.81445C69.8145 9.34961 69.9648 9.87109 70.2656 10.3789C70.5703 10.8867 71.0098 11.3281 71.584 11.7031C72.1621 12.0742 72.8379 12.3281 73.6113 12.4648L72.9551 13.707C72.0645 13.5273 71.2832 13.2012 70.6113 12.7285C69.9434 12.2559 69.4297 11.6816 69.0703 11.0059C68.7109 10.3301 68.5312 9.59961 68.5312 8.81445V8.05273H69.8145V8.81445ZM73.9629 16.7715H64.2129V15.5469H73.9629V16.7715Z" fill="white"/>
<path d="M15.4169 5.74079C16.2659 4.80726 17.7341 4.80726 18.5831 5.74079C19.0566 6.26152 19.756 6.51606 20.4534 6.42155C21.7038 6.25212 22.8286 7.19588 22.8788 8.45669C22.9069 9.15998 23.279 9.80451 23.874 10.1804C24.9408 10.8544 25.1957 12.3003 24.4238 13.2985C23.9932 13.8552 23.864 14.5882 24.0782 15.2586C24.4622 16.4606 23.7281 17.7321 22.4951 18.0006C21.8074 18.1503 21.2373 18.6287 20.9704 19.28C20.4919 20.4476 19.1122 20.9497 17.9952 20.3629C17.3721 20.0355 16.6279 20.0355 16.0048 20.3629C14.8878 20.9497 13.5081 20.4476 13.0296 19.28C12.7627 18.6287 12.1926 18.1503 11.5049 18.0006C10.2719 17.7321 9.53782 16.4606 9.92181 15.2586C10.136 14.5882 10.0068 13.8552 9.57617 13.2985C8.80425 12.3003 9.05921 10.8544 10.126 10.1804C10.721 9.80451 11.0931 9.15998 11.1212 8.45669C11.1714 7.19588 12.2962 6.25212 13.5466 6.42155C14.244 6.51606 14.9434 6.26152 15.4169 5.74079Z" fill="white"/>
<rect x="14.2601" y="10.6122" width="5.48" height="6.06696" rx="1.59" stroke="#E9534C" stroke-width="0.82"/>
<path d="M15.6504 16.6384C15.9382 16.6386 16.1396 16.8577 16.1396 17.0896C16.1394 17.3213 15.938 17.5396 15.6504 17.5398C15.3626 17.5398 15.1604 17.3215 15.1602 17.0896C15.1602 16.8576 15.3624 16.6384 15.6504 16.6384Z" stroke="#E9534C" stroke-width="0.82"/>
<path d="M18.3503 16.6384C18.6381 16.6386 18.8396 16.8577 18.8396 17.0896C18.8393 17.3213 18.6379 17.5396 18.3503 17.5398C18.0625 17.5398 17.8604 17.3215 17.8601 17.0896C17.8601 16.8576 18.0624 16.6384 18.3503 16.6384Z" stroke="#E9534C" stroke-width="0.82"/>
<path d="M15.2 10.6326V9.85002C15.2 8.85591 16.0058 8.05002 17 8.05002V8.05002C17.9941 8.05002 18.8 8.85591 18.8 9.85002V10.6326" stroke="#E9534C" stroke-width="0.82" stroke-linecap="round" stroke-linejoin="round"/>
<path d="M16.1001 12.5696V14.2913" stroke="#E9534C" stroke-width="0.82" stroke-linecap="round" stroke-linejoin="round"/>
<path d="M17.8999 12.5696V14.2913" stroke="#E9534C" stroke-width="0.82" stroke-linecap="round" stroke-linejoin="round"/>
</svg>
