<svg width="114" height="157" viewBox="0 0 114 157" fill="none" xmlns="http://www.w3.org/2000/svg">
<path d="M19.8667 34.0249C19.8667 15.2335 34.816 0 53.2568 0H59.9348C78.3757 0 93.3249 15.2335 93.3249 34.0249V38.5616C93.3249 57.3531 78.3757 72.5866 59.9348 72.5866H53.2568C34.816 72.5866 19.8667 57.3531 19.8667 38.5616V34.0249Z" fill="#C4C3C3"/>
<path d="M82.0319 70.3156C81.5885 62.1027 87.8758 55.0848 96.0749 54.6406C104.274 54.1965 111.28 60.4943 111.724 68.7072L112.697 86.7323C113.14 94.9452 106.853 101.963 98.6538 102.407C90.4546 102.851 83.4484 96.5536 83.005 88.3407L82.0319 70.3156Z" fill="#A2A1A1"/>
<path d="M31.9677 70.3156C32.4111 62.1027 26.1238 55.0848 17.9246 54.6406C9.72539 54.1965 2.71918 60.4943 2.27578 68.7072L1.30262 86.7323C0.859219 94.9452 7.14652 101.963 15.3457 102.407C23.5449 102.851 30.5511 96.5536 30.9945 88.3407L31.9677 70.3156Z" fill="#A2A1A1"/>
<path d="M13.3536 72.719C14.1856 49.8922 32.842 31.8188 55.573 31.8188H58.6114C81.3423 31.8188 99.9987 49.8922 100.831 72.719L102.23 111.108C103.106 135.148 83.9499 155.117 60.0107 155.117H54.1736C30.2344 155.117 11.0779 135.148 11.9542 111.108L13.3536 72.719Z" fill="#CAC9C9"/>
<path d="M68.5078 107.388C68.5078 102.446 72.3078 98.4395 76.9952 98.4395H86.8227C91.5102 98.4395 95.3101 102.446 95.3101 107.388C95.3101 112.331 91.5102 116.338 86.8227 116.338H76.9952C72.3078 116.338 68.5078 112.331 68.5078 107.388Z" fill="url(#paint0_linear_61_766)"/>
<path d="M44.6836 107.388C44.6836 102.446 40.8837 98.4395 36.1962 98.4395H26.3687C21.6812 98.4395 17.8813 102.446 17.8813 107.388C17.8813 112.331 21.6812 116.338 26.3687 116.338H36.1962C40.8837 116.338 44.6836 112.331 44.6836 107.388Z" fill="url(#paint1_linear_61_766)"/>
<path d="M67.8459 130.252C68.9632 123.617 75.2393 119.145 81.8639 120.264C88.4886 121.383 92.9532 127.669 91.8359 134.305L90.0377 144.985C88.9204 151.621 82.6443 156.093 76.0197 154.974C69.395 153.855 64.9304 147.568 66.0476 140.932L67.8459 130.252Z" fill="url(#paint2_linear_61_766)"/>
<path d="M45.4351 130.252C44.3178 123.617 38.0418 119.145 31.4171 120.264C24.7924 121.383 20.3278 127.669 21.4451 134.305L23.2433 144.985C24.3606 151.621 30.6367 156.093 37.2613 154.974C43.886 153.855 48.3506 147.568 47.2334 140.932L45.4351 130.252Z" fill="url(#paint3_linear_61_766)"/>
<path d="M10.9326 43.2537C10.9326 36.9384 16.074 31.8188 22.4162 31.8188H91.7681C98.1104 31.8188 103.252 36.9384 103.252 43.2537V52.8949C103.252 53.8855 102.445 54.6886 101.45 54.6886H12.734C11.7391 54.6886 10.9326 53.8855 10.9326 52.8949V43.2537Z" fill="#C4C3C3"/>
<path d="M10.9326 47.5291C10.9326 46.5406 11.7391 45.7393 12.734 45.7393H101.45C102.445 45.7393 103.252 46.5406 103.252 47.5291V52.8985C103.252 53.887 102.445 54.6883 101.45 54.6883H12.734C11.7391 54.6883 10.9326 53.887 10.9326 52.8985V47.5291Z" fill="#A2A1A1"/>
<path d="M73.4712 12.9262C73.4712 14.0245 72.5823 14.9148 71.4858 14.9148C70.3894 14.9148 69.5005 14.0245 69.5005 12.9262C69.5005 11.8279 70.3894 10.9375 71.4858 10.9375C72.5823 10.9375 73.4712 11.8279 73.4712 12.9262Z" fill="#A2A1A1"/>
<path d="M81.4129 16.9037C81.4129 18.002 80.524 18.8924 79.4275 18.8924C78.331 18.8924 77.4421 18.002 77.4421 16.9037C77.4421 15.8054 78.331 14.915 79.4275 14.915C80.524 14.915 81.4129 15.8054 81.4129 16.9037Z" fill="#A2A1A1"/>
<path d="M73.4712 20.8813C73.4712 21.9796 72.5823 22.8699 71.4858 22.8699C70.3894 22.8699 69.5005 21.9796 69.5005 20.8813C69.5005 19.7829 70.3894 18.8926 71.4858 18.8926C72.5823 18.8926 73.4712 19.7829 73.4712 20.8813Z" fill="#A2A1A1"/>
<path d="M41.9267 70.4466C41.7013 69.604 42.2005 68.7379 43.0417 68.5121L46.9583 67.4609C47.7995 67.2351 48.6642 67.7351 48.8896 68.5778C49.115 69.4204 48.6158 70.2865 47.7746 70.5122L43.8579 71.5635C43.0167 71.7892 42.1521 71.2892 41.9267 70.4466Z" fill="#838384"/>
<path d="M71.867 70.4466C72.0924 69.604 71.5932 68.7379 70.752 68.5121L66.8354 67.4609C65.9942 67.2351 65.1295 67.7351 64.9041 68.5778C64.6787 69.4204 65.1779 70.2865 66.0191 70.5122L69.9358 71.5635C70.777 71.7892 71.6416 71.2892 71.867 70.4466Z" fill="#838384"/>
<path d="M84.3907 81.0383C84.3907 85.7061 80.613 89.4901 75.9529 89.4901C71.2929 89.4901 67.5151 85.7061 67.5151 81.0383C67.5151 76.3705 71.2929 72.5864 75.9529 72.5864C80.613 72.5864 84.3907 76.3705 84.3907 81.0383Z" fill="#F9D1C5"/>
<path d="M45.6763 81.0383C45.6763 85.7061 41.8986 89.4901 37.2386 89.4901C32.5785 89.4901 28.8008 85.7061 28.8008 81.0383C28.8008 76.3705 32.5785 72.5864 37.2386 72.5864C41.8986 72.5864 45.6763 76.3705 45.6763 81.0383Z" fill="#F9D1C5"/>
<path d="M41.7056 60.1572C41.7056 58.7843 42.7071 57.6714 43.9426 57.6714H71.2343C72.4697 57.6714 73.4713 58.7843 73.4713 60.1572C73.4713 61.5301 72.4697 62.6431 71.2343 62.6431H43.9426C42.7071 62.6431 41.7056 61.5301 41.7056 60.1572Z" fill="#A2A1A1"/>
<path d="M54.0701 70.3721C54.3409 69.5531 55.1063 69 55.969 69H59.031C59.8937 69 60.6591 69.5531 60.9299 70.3721L63.0604 76.8148C63.3202 77.6002 63.7001 78.3405 64.1868 79.0095L65.378 80.6468C67.3014 83.2906 65.4128 87 62.1434 87H52.8566C49.5872 87 47.6986 83.2906 49.622 80.6468L50.8132 79.0095C51.2999 78.3405 51.6798 77.6002 51.9396 76.8148L54.0701 70.3721Z" fill="#A8A7A7"/>
<defs>
<linearGradient id="paint0_linear_61_766" x1="68.5078" y1="107.388" x2="95.3101" y2="107.388" gradientUnits="userSpaceOnUse">
<stop stop-color="#A2A1A1"/>
<stop offset="1" stop-color="#CAC9C9"/>
</linearGradient>
<linearGradient id="paint1_linear_61_766" x1="44.6836" y1="107.388" x2="17.8813" y2="107.388" gradientUnits="userSpaceOnUse">
<stop stop-color="#A2A1A1"/>
<stop offset="1" stop-color="#CAC9C9"/>
</linearGradient>
<linearGradient id="paint2_linear_61_766" x1="81.8639" y1="120.264" x2="76.0007" y2="154.971" gradientUnits="userSpaceOnUse">
<stop stop-color="#ACACAC"/>
<stop offset="1" stop-color="#CBCACA"/>
</linearGradient>
<linearGradient id="paint3_linear_61_766" x1="31.4171" y1="120.264" x2="37.2803" y2="154.971" gradientUnits="userSpaceOnUse">
<stop stop-color="#ACACAC"/>
<stop offset="1" stop-color="#CBCACA"/>
</linearGradient>
</defs>
</svg>
