<svg width="18" height="18" viewBox="0 0 18 18" fill="none" xmlns="http://www.w3.org/2000/svg">
<path d="M9 0C13.9706 0 18 4.02944 18 9C18 13.9706 13.9706 18 9 18C4.02944 18 0 13.9706 0 9C0 4.02944 4.02944 0 9 0ZM9 11.75C8.30964 11.75 7.75 12.3096 7.75 13C7.75 13.6904 8.30964 14.25 9 14.25C9.69036 14.25 10.25 13.6904 10.25 13C10.25 12.3096 9.69036 11.75 9 11.75ZM9 3.75C7.94249 3.75 7.12841 4.68379 7.27246 5.73145L7.88086 10.1592C7.949 10.6541 8.37248 11.0225 8.87207 11.0225H9.12793C9.62752 11.0225 10.051 10.6541 10.1191 10.1592L10.7275 5.73145C10.8716 4.68379 10.0575 3.75 9 3.75Z" fill="#E9534C"/>
</svg>
