<svg width="62" height="54" viewBox="0 0 62 54" fill="none" xmlns="http://www.w3.org/2000/svg">
<mask id="path-1-inside-1_524_1973" fill="white">
<path d="M30 16C38.2353 16 45.1789 21.5305 47.3193 29.0801C54.9148 27.7581 62 33.6056 62 41.4492C62 48.3808 56.3808 54 49.4492 54H10.5C4.70101 54 0 49.299 0 43.5C0 37.701 4.70101 33 10.5 33H12.0283C12.5472 23.524 20.3945 16 30 16Z"/>
</mask>
<path d="M47.3193 29.0801L43.471 30.1711C44.0298 32.1419 45.9871 33.3721 48.0052 33.0208L47.3193 29.0801ZM62 41.4492H66V41.4492L62 41.4492ZM10.5 54V58V54ZM10.5 33V29V33ZM12.0283 33V37C14.1525 37 15.9062 35.3397 16.0223 33.2187L12.0283 33ZM30 16V20C36.3995 20 41.8056 24.2971 43.471 30.1711L47.3193 29.0801L51.1677 27.989C48.5522 18.7639 40.0712 12 30 12V16ZM47.3193 29.0801L48.0052 33.0208C53.1735 32.1213 58 36.1087 58 41.4492L62 41.4492L66 41.4492C66 31.1025 56.6561 23.3949 46.6335 25.1393L47.3193 29.0801ZM62 41.4492H58C58 46.1717 54.1717 50 49.4492 50V54V58C58.5899 58 66 50.5899 66 41.4492H62ZM49.4492 54V50H10.5V54V58H49.4492V54ZM10.5 54V50C6.91015 50 4 47.0898 4 43.5H0H-4C-4 51.5081 2.49187 58 10.5 58V54ZM0 43.5H4C4 39.9101 6.91015 37 10.5 37V33V29C2.49187 29 -4 35.4919 -4 43.5H0ZM10.5 33V37H12.0283V33V29H10.5V33ZM12.0283 33L16.0223 33.2187C16.4258 25.8517 22.5306 20 30 20V16V12C18.2583 12 8.6687 21.1964 8.0343 32.7813L12.0283 33Z" fill="#E9534C" mask="url(#path-1-inside-1_524_1973)"/>
<path d="M34 12.9991C38.5 11.9996 47.5 14.5 49 22.4991" stroke="#E9534C" stroke-width="4" stroke-linecap="round"/>
<path d="M39 2V8" stroke="#E9534C" stroke-width="4" stroke-linecap="round"/>
<path d="M59 24L55.0059 23.9951" stroke="#E9534C" stroke-width="4" stroke-linecap="round"/>
<path d="M55 9L50.3158 12.6827" stroke="#E9534C" stroke-width="4" stroke-linecap="round"/>
<path d="M25 10L27.6881 12.6832" stroke="#E9534C" stroke-width="4" stroke-linecap="round"/>
</svg>
