<svg width="62" height="55" viewBox="0 0 62 55" fill="none" xmlns="http://www.w3.org/2000/svg">
<mask id="path-1-inside-1_526_343" fill="white">
<path d="M30 0C38.2353 0 45.1789 5.53052 47.3193 13.0801C54.9148 11.7581 62 17.6056 62 25.4492C62 32.3808 56.3808 38 49.4492 38H10.5C4.70101 38 0 33.299 0 27.5C0 21.701 4.70101 17 10.5 17H12.0283C12.5472 7.52404 20.3945 0 30 0Z"/>
</mask>
<path d="M47.3193 13.0801L43.471 14.1711C44.0298 16.1419 45.9871 17.3721 48.0052 17.0208L47.3193 13.0801ZM62 25.4492H66V25.4492L62 25.4492ZM10.5 38V42V38ZM10.5 17V13V17ZM12.0283 17V21C14.1525 21 15.9062 19.3397 16.0223 17.2187L12.0283 17ZM30 0V4C36.3995 4 41.8056 8.29711 43.471 14.1711L47.3193 13.0801L51.1677 11.989C48.5522 2.76393 40.0712 -4 30 -4V0ZM47.3193 13.0801L48.0052 17.0208C53.1735 16.1213 58 20.1087 58 25.4492L62 25.4492L66 25.4492C66 15.1025 56.6561 7.39494 46.6335 9.13932L47.3193 13.0801ZM62 25.4492H58C58 30.1717 54.1717 34 49.4492 34V38V42C58.5899 42 66 34.5899 66 25.4492H62ZM49.4492 38V34H10.5V38V42H49.4492V38ZM10.5 38V34C6.91015 34 4 31.0898 4 27.5H0H-4C-4 35.5081 2.49187 42 10.5 42V38ZM0 27.5H4C4 23.9101 6.91015 21 10.5 21V17V13C2.49187 13 -4 19.4919 -4 27.5H0ZM10.5 17V21H12.0283V17V13H10.5V17ZM12.0283 17L16.0223 17.2187C16.4258 9.85171 22.5306 4 30 4V0V-4C18.2583 -4 8.6687 5.19636 8.0343 16.7813L12.0283 17Z" fill="#E9534C" mask="url(#path-1-inside-1_526_343)"/>
<rect x="46" y="36" width="4" height="12" rx="2" fill="#E9534C"/>
<rect x="36" y="41" width="4" height="14" rx="2" fill="#E9534C"/>
</svg>
