<svg width="72" height="72" viewBox="0 0 72 72" fill="none" xmlns="http://www.w3.org/2000/svg">
<rect width="72" height="72" fill="white"/>
<mask id="path-2-inside-1_1365_4649" fill="white">
<path d="M38.8887 19C47.7208 19 54.9181 26.0702 55.2461 34.917C59.1416 36.0055 61.9999 39.5784 62 43.8213C62 48.9283 57.86 53.0683 52.7529 53.0684H19.2471C14.14 53.0683 10 48.9283 10 43.8213C10.0001 38.7144 14.1401 34.5743 19.2471 34.5742H22.5479C23.0464 25.8884 30.171 19.0001 38.8887 19Z"/>
</mask>
<path d="M38.8887 19V15H38.8886L38.8887 19ZM55.2461 34.917L51.2488 35.0652C51.3133 36.8037 52.4941 38.3012 54.1696 38.7694L55.2461 34.917ZM62 43.8213H66V43.8212L62 43.8213ZM52.7529 53.0684V57.0684H52.753L52.7529 53.0684ZM19.2471 53.0684L19.247 57.0684H19.2471V53.0684ZM10 43.8213L6 43.8212V43.8213H10ZM19.2471 34.5742V30.5742H19.247L19.2471 34.5742ZM22.5479 34.5742V38.5742C24.668 38.5742 26.4198 36.92 26.5413 34.8034L22.5479 34.5742ZM38.8887 19V23C45.5226 23 50.9988 28.3214 51.2488 35.0652L55.2461 34.917L59.2433 34.7688C58.8374 23.8191 49.9191 15 38.8887 15V19ZM55.2461 34.917L54.1696 38.7694C56.3838 39.3881 57.9999 41.4213 58 43.8214L62 43.8213L66 43.8212C65.9998 37.7356 61.8995 32.6229 56.3225 31.0646L55.2461 34.917ZM62 43.8213H58C58 46.7191 55.6509 49.0683 52.7529 49.0684L52.7529 53.0684L52.753 57.0684C60.069 57.0682 66 51.1376 66 43.8213H62ZM52.7529 53.0684V49.0684H19.2471V53.0684V57.0684H52.7529V53.0684ZM19.2471 53.0684L19.2471 49.0684C16.3491 49.0683 14 46.7191 14 43.8213H10H6C6 51.1376 11.931 57.0682 19.247 57.0684L19.2471 53.0684ZM10 43.8213L14 43.8214C14.0001 40.9235 16.3493 38.5743 19.2471 38.5742L19.2471 34.5742L19.247 30.5742C11.9309 30.5744 6.0002 36.5052 6 43.8212L10 43.8213ZM19.2471 34.5742V38.5742H22.5479V34.5742V30.5742H19.2471V34.5742ZM22.5479 34.5742L26.5413 34.8034C26.9212 28.184 32.341 23.0001 38.8887 23L38.8887 19L38.8886 15C28.0009 15.0001 19.1716 23.5928 18.5544 34.345L22.5479 34.5742Z" fill="#F4A9A6" mask="url(#path-2-inside-1_1365_4649)"/>
<path d="M59.5 16.5L17.5 58.5" stroke="#F4A9A6" stroke-width="4" stroke-linecap="round"/>
</svg>
